<?xml version="1.0" encoding="utf-8"?>
<!-- Generator: Adobe Illustrator 16.0.0, SVG Export Plug-In . SVG Version: 6.00 Build 0)  -->
<!DOCTYPE svg PUBLIC "-//W3C//DTD SVG 1.1//EN" "http://www.w3.org/Graphics/SVG/1.1/DTD/svg11.dtd">
<svg version="1.1" id="Layer_1" xmlns="http://www.w3.org/2000/svg" xmlns:xlink="http://www.w3.org/1999/xlink" x="0px" y="0px"
	 width="18.164px" height="13.922px" viewBox="0 0 18.164 13.922" enable-background="new 0 0 18.164 13.922" xml:space="preserve">
<g>
	<path fill="#FFFFFF" d="M17.836,3.516L9.352,12l-1.594,1.594c-0.211,0.211-0.504,0.328-0.797,0.328s-0.586-0.117-0.797-0.328
		L4.57,12L0.328,7.758C0.117,7.547,0,7.254,0,6.961s0.117-0.586,0.328-0.797L1.922,4.57c0.211-0.211,0.504-0.328,0.797-0.328
		S3.305,4.359,3.516,4.57l3.445,3.457l7.688-7.699C14.859,0.117,15.152,0,15.445,0s0.586,0.117,0.797,0.328l1.594,1.594
		c0.211,0.211,0.328,0.504,0.328,0.797S18.047,3.305,17.836,3.516z"/>
</g>
</svg>
