<?xml version="1.0" encoding="utf-8"?>
<!-- Generator: Adobe Illustrator 16.0.0, SVG Export Plug-In . SVG Version: 6.00 Build 0)  -->
<!DOCTYPE svg PUBLIC "-//W3C//DTD SVG 1.1//EN" "http://www.w3.org/Graphics/SVG/1.1/DTD/svg11.dtd">
<svg version="1.1" id="Layer_1" xmlns="http://www.w3.org/2000/svg" xmlns:xlink="http://www.w3.org/1999/xlink" x="0px" y="0px"
	 width="50px" height="50px" viewBox="0 0 50 50" enable-background="new 0 0 50 50" xml:space="preserve">
<g>
	<path fill="#FFFFFF" d="M30.5,24.5c-1.031,0-2.016,0.188-3.047,0.328C26.641,24.953,25.828,25,25,25s-1.641-0.047-2.453-0.172
		C21.531,24.688,20.531,24.5,19.5,24.5c-2.547,0-4,2.109-4,4.5c0,4.781,4.375,5.516,8.188,5.516h2.625
		c3.813,0,8.188-0.734,8.188-5.516C34.5,26.609,33.047,24.5,30.5,24.5z M20,32c-1.406,0-2-1.859-2-3s0.594-3,2-3s2,1.859,2,3
		S21.406,32,20,32z M30,32c-1.406,0-2-1.859-2-3s0.594-3,2-3s2,1.859,2,3S31.406,32,30,32z"/>
	<path fill="#FFFFFF" d="M25,0C11.192,0,0,11.193,0,25s11.192,25,25,25s25-11.193,25-25S38.808,0,25,0z M37.047,31.422
		C34.984,35.594,29.313,36,25.25,36c-4.125,0-10.141-0.359-12.281-4.578C12.172,29.844,12,27.984,12,26.25
		c0-2.281,0.625-4.438,2.125-6.188c-0.281-0.859-0.422-1.766-0.422-2.656c0-1.172,0.266-2.344,0.797-3.406
		c2.469,0,4.047,1.078,5.922,2.547C22,16.172,23.625,16,25.25,16c1.469,0,2.953,0.156,4.375,0.5c1.859-1.453,3.438-2.5,5.875-2.5
		c0.531,1.063,0.797,2.234,0.797,3.406c0,0.891-0.141,1.781-0.422,2.625C37.375,21.797,38,23.969,38,26.25
		C38,27.984,37.828,29.828,37.047,31.422z"/>
</g>
</svg>
