<?xml version="1.0" encoding="utf-8"?>
<!-- Generator: Adobe Illustrator 16.0.0, SVG Export Plug-In . SVG Version: 6.00 Build 0)  -->
<!DOCTYPE svg PUBLIC "-//W3C//DTD SVG 1.1//EN" "http://www.w3.org/Graphics/SVG/1.1/DTD/svg11.dtd">
<svg version="1.1" id="Layer_1" xmlns="http://www.w3.org/2000/svg" xmlns:xlink="http://www.w3.org/1999/xlink" x="0px" y="0px"
	 width="50px" height="50px" viewBox="0 0 50 50" enable-background="new 0 0 50 50" xml:space="preserve">
<path fill="#FFFFFF" d="M25,0C11.192,0,0,11.193,0,25s11.192,25,25,25s25-11.193,25-25S38.808,0,25,0z M19.453,34.136h-5.156V18.651
	h5.156V34.136z M16.875,16.542h-0.031c-1.734,0-2.844-1.188-2.844-2.672c0-1.516,1.156-2.672,2.906-2.672
	c1.766,0,2.859,1.156,2.875,2.672C19.797,15.354,18.672,16.542,16.875,16.542z M38,34.136h-5.141v-8.281c0-2.078-0.75-3.5-2.609-3.5
	c-1.422,0-2.266,0.953-2.641,1.875c-0.125,0.344-0.172,0.797-0.172,1.266v8.641h-5.141c0.063-14.031,0-15.484,0-15.484h5.141v2.204
	c0.678-1.061,1.898-2.563,4.641-2.563c3.391,0,5.922,2.219,5.922,6.969V34.136z"/>
</svg>
