<?xml version="1.0" encoding="utf-8"?>
<!-- Generator: Adobe Illustrator 16.0.0, SVG Export Plug-In . SVG Version: 6.00 Build 0)  -->
<!DOCTYPE svg PUBLIC "-//W3C//DTD SVG 1.1//EN" "http://www.w3.org/Graphics/SVG/1.1/DTD/svg11.dtd">
<svg version="1.1" id="Layer_1" xmlns="http://www.w3.org/2000/svg" xmlns:xlink="http://www.w3.org/1999/xlink" x="0px" y="0px"
	 width="15.151px" height="21.654px" viewBox="0 0 15.151 21.654" enable-background="new 0 0 15.151 21.654" xml:space="preserve">
<g id="Glyph_copy_2">
	<path fill="#00BEA4" d="M11.004,7.835c0-1.883-1.538-3.414-3.43-3.414c-1.889,0-3.431,1.531-3.431,3.414
		c0,1.884,1.542,3.419,3.431,3.419C9.466,11.254,11.004,9.719,11.004,7.835z"/>
	<path fill="#00BEA4" d="M7.574,21.654l1.388-1.817c1.455-1.925,6.189-8.469,6.189-12.049C15.151,3.132,12.106,0,7.574,0
		C3.045,0,0,3.132,0,7.788c0,3.854,5.56,11.223,6.192,12.049L7.574,21.654z M2.792,7.835c0-2.628,2.146-4.77,4.782-4.77
		c2.64,0,4.785,2.142,4.785,4.77c0,2.63-2.146,4.771-4.785,4.771C4.938,12.605,2.792,10.465,2.792,7.835z"/>
</g>
</svg>
