<?xml version="1.0" encoding="utf-8"?>
<!-- Generator: Adobe Illustrator 16.0.0, SVG Export Plug-In . SVG Version: 6.00 Build 0)  -->
<!DOCTYPE svg PUBLIC "-//W3C//DTD SVG 1.1//EN" "http://www.w3.org/Graphics/SVG/1.1/DTD/svg11.dtd">
<svg version="1.1" id="Layer_1" xmlns="http://www.w3.org/2000/svg" xmlns:xlink="http://www.w3.org/1999/xlink" x="0px" y="0px"
	 width="16.492px" height="20.947px" viewBox="0 0 16.492 20.947" enable-background="new 0 0 16.492 20.947" xml:space="preserve">
<g>
	<g>
		<path fill="#00BEA4" d="M7.858,17.102c-1.523-1.127-3.018-2.677-4.328-4.481c-1.698-2.343-2.883-4.844-3.334-7.042
			c-0.198-0.973-0.248-1.863-0.141-2.58c0.113-0.76,0.398-1.327,0.832-1.643c0.115-0.083,0.234-0.173,0.359-0.27
			c0.706-0.542,1.588-1.217,2.561-1.063c0.717,0.114,1.344,0.65,1.905,1.635c0.722,1.27,0.949,2.161,0.724,2.894
			C6.226,5.243,5.657,5.645,5.056,6.075c-0.068,0.05-0.137,0.099-0.209,0.15C4.638,6.377,4.703,6.891,5.019,7.599
			c0.315,0.712,0.881,1.629,1.676,2.727c1.841,2.538,2.724,3.013,3.086,3.069c0.125,0.021,0.188-0.012,0.231-0.042
			c0.072-0.049,0.142-0.102,0.21-0.149c0.663-0.489,1.289-0.949,2.133-0.814c0.678,0.107,1.398,0.605,2.27,1.563
			c0.736,0.813,1.051,1.548,0.97,2.244c-0.116,1.017-1.058,1.662-1.813,2.182c-0.131,0.092-0.258,0.178-0.372,0.261
			c-0.421,0.307-1.034,0.406-1.771,0.289C10.543,18.755,9.198,18.107,7.858,17.102z"/>
	</g>
	<path fill="#00BEA4" d="M15.712,20.623c-0.261-1.595-1.768-2.657-1.781-2.667l0,0c-0.176-0.126-0.22-0.37-0.098-0.546
		c0.122-0.181,0.366-0.224,0.546-0.103c0.07,0.053,1.792,1.26,2.108,3.188c0.035,0.212-0.109,0.415-0.321,0.447
		c-0.043,0.006-0.084,0.007-0.125-0.001C15.88,20.917,15.746,20.791,15.712,20.623z"/>
</g>
</svg>
