<?xml version="1.0" encoding="utf-8"?>
<!-- Generator: Adobe Illustrator 16.0.0, SVG Export Plug-In . SVG Version: 6.00 Build 0)  -->
<!DOCTYPE svg PUBLIC "-//W3C//DTD SVG 1.1//EN" "http://www.w3.org/Graphics/SVG/1.1/DTD/svg11.dtd">
<svg version="1.1" id="Layer_1" xmlns="http://www.w3.org/2000/svg" xmlns:xlink="http://www.w3.org/1999/xlink" x="0px" y="0px"
	 width="18.864px" height="18.863px" viewBox="0 0 18.864 18.863" enable-background="new 0 0 18.864 18.863" xml:space="preserve">
<g>
	<path fill="#00BFA5" d="M18.448,16.76c-0.281,0.656-1.031,1.086-1.634,1.42c-0.791,0.43-1.595,0.684-2.492,0.684
		c-1.246,0-2.371-0.51-3.51-0.924c-0.817-0.295-1.608-0.657-2.345-1.112c-2.278-1.407-5.024-4.153-6.431-6.431
		C1.581,9.659,1.219,8.869,0.924,8.052C0.509,6.913,0,5.788,0,4.542C0,3.644,0.254,2.84,0.683,2.05
		c0.335-0.603,0.764-1.353,1.42-1.634C2.545,0.214,3.483,0,3.965,0C4.06,0,4.153,0,4.247,0.04c0.281,0.094,0.576,0.75,0.71,1.019
		c0.429,0.764,0.844,1.541,1.286,2.291c0.214,0.349,0.616,0.777,0.616,1.192c0,0.817-2.425,2.01-2.425,2.733
		c0,0.361,0.335,0.831,0.522,1.152c1.353,2.438,3.041,4.126,5.479,5.479c0.322,0.188,0.791,0.522,1.152,0.522
		c0.724,0,1.916-2.425,2.733-2.425c0.415,0,0.844,0.402,1.192,0.616c0.75,0.442,1.527,0.857,2.291,1.286
		c0.268,0.134,0.924,0.429,1.018,0.71c0.041,0.094,0.041,0.188,0.041,0.281C18.864,15.38,18.649,16.318,18.448,16.76z"/>
</g>
</svg>
