<?xml version="1.0" encoding="utf-8"?>
<!-- Generator: Adobe Illustrator 16.0.0, SVG Export Plug-In . SVG Version: 6.00 Build 0)  -->
<!DOCTYPE svg PUBLIC "-//W3C//DTD SVG 1.1//EN" "http://www.w3.org/Graphics/SVG/1.1/DTD/svg11.dtd">
<svg version="1.1" id="Layer_1" xmlns="http://www.w3.org/2000/svg" xmlns:xlink="http://www.w3.org/1999/xlink" x="0px" y="0px"
	 width="238.892px" height="238.892px" viewBox="0 0 238.892 238.892" enable-background="new 0 0 238.892 238.892"
	 xml:space="preserve">
<g>
	<path fill="#FFFFFF" d="M153.768,80.319c-24.978,15.69-49.925,31.425-74.885,47.139c-2.01,1.265-3.101,2.873-2.306,5.315
		c3.593,11.024,7.191,22.047,10.786,33.07c0.5-0.156,0.999-0.315,1.499-0.471c0.508-4.21,1.619-8.456,1.393-12.624
		c-0.417-7.655,2.813-12.654,8.521-17.603c18.473-16.013,36.429-32.621,54.502-49.092c1.763-1.607,4.662-2.638,4.417-5.828
		C156.238,79.356,154.883,79.618,153.768,80.319z"/>
	<path fill="#FFFFFF" d="M119.446,0C53.478,0,0,53.478,0,119.446c0,65.968,53.478,119.446,119.446,119.446
		c65.969,0,119.446-53.478,119.446-119.446C238.892,53.478,185.415,0,119.446,0z M177.351,106.34
		c-4.966,23.363-9.878,46.743-14.941,70.087c-2.393,11.035-6.963,12.814-16.078,6.277c-9.499-6.81-18.968-13.679-28.177-20.872
		c-3.726-2.911-6.225-2.799-9.403,0.636c-4.322,4.678-8.872,9.194-13.712,13.33c-5.623,4.802-9.284,3.637-11.639-3.366
		c-3.895-11.572-7.788-23.15-11.384-34.818c-1.222-3.968-3.213-6.233-7.325-7.354c-8.188-2.235-16.301-4.803-24.314-7.607
		c-3.746-1.311-9.779-1.084-9.621-6.551c0.144-4.825,5.655-5.791,9.519-7.293c25.983-10.102,52.008-20.097,78.025-30.12
		c18.829-7.255,37.63-14.583,56.509-21.704c6.856-2.587,11.2,0.401,11.275,8.174C183.296,78.308,180.332,92.325,177.351,106.34z"/>
</g>
</svg>
