<?xml version="1.0" encoding="utf-8"?>
<!-- Generator: Adobe Illustrator 16.0.0, SVG Export Plug-In . SVG Version: 6.00 Build 0)  -->
<!DOCTYPE svg PUBLIC "-//W3C//DTD SVG 1.1//EN" "http://www.w3.org/Graphics/SVG/1.1/DTD/svg11.dtd">
<svg version="1.1" id="Layer_1" xmlns="http://www.w3.org/2000/svg" xmlns:xlink="http://www.w3.org/1999/xlink" x="0px" y="0px"
	 width="30.011px" height="17.123px" viewBox="0 0 30.011 17.123" enable-background="new 0 0 30.011 17.123" xml:space="preserve">
<g>
	<path fill="#FFFFFF" d="M27.625,5.832c-3.031,4.031-3.359,3.656-0.859,5.984c2.406,2.234,2.906,3.313,2.984,3.453
		c0,0,1,1.75-1.109,1.766l-4,0.063c-0.859,0.172-2-0.609-2-0.609c-1.5-1.031-2.906-3.703-4-3.359c0,0-1.125,0.359-1.094,2.766
		c0.016,0.516-0.234,0.797-0.234,0.797s-0.281,0.297-0.828,0.344h-1.797c-3.953,0.25-7.438-3.391-7.438-3.391
		S3.437,9.707,0.093,1.848c-0.219-0.516,0.016-0.766,0.016-0.766S0.343,0.785,1,0.785l4.281-0.031
		c0.406,0.063,0.688,0.281,0.688,0.281s0.25,0.172,0.375,0.5c0.703,1.75,1.609,3.344,1.609,3.344
		c1.563,3.219,2.625,3.766,3.234,3.438c0,0,0.797-0.484,0.625-4.375c-0.063-1.406-0.453-2.047-0.453-2.047
		C11,1.41,10.328,1.27,10.031,1.223c-0.234-0.031,0.156-0.594,0.672-0.844c0.766-0.375,2.125-0.391,3.734-0.375
		c1.266,0.016,1.625,0.094,2.109,0.203c1.484,0.359,0.984,1.734,0.984,5.047c0,1.063-0.203,2.547,0.563,3.031
		c0.328,0.219,1.141,0.031,3.141-3.375c0,0,0.938-1.625,1.672-3.516c0.125-0.344,0.391-0.484,0.391-0.484s0.25-0.141,0.594-0.094
		l4.5-0.031c1.359-0.172,1.578,0.453,1.578,0.453C30.203,1.879,29.468,3.379,27.625,5.832z"/>
</g>
</svg>
