<?xml version="1.0" encoding="utf-8"?>
<!-- Generator: Adobe Illustrator 16.0.0, SVG Export Plug-In . SVG Version: 6.00 Build 0)  -->
<!DOCTYPE svg PUBLIC "-//W3C//DTD SVG 1.1//EN" "http://www.w3.org/Graphics/SVG/1.1/DTD/svg11.dtd">
<svg version="1.1" id="Layer_1" xmlns="http://www.w3.org/2000/svg" xmlns:xlink="http://www.w3.org/1999/xlink" x="0px" y="0px"
	 width="50px" height="50px" viewBox="0 0 50 50" enable-background="new 0 0 50 50" xml:space="preserve">
<path fill="#FFFFFF" d="M25,0C11.193,0,0,11.193,0,25c0,13.807,11.193,25,25,25c13.807,0,25-11.193,25-25C50,11.193,38.807,0,25,0z
	 M36.76,28.255c2.406,2.234,2.906,3.313,2.984,3.453c0,0,1,1.75-1.109,1.766l-4,0.063c-0.859,0.172-2-0.609-2-0.609
	c-1.5-1.031-2.906-3.703-4-3.359c0,0-1.125,0.359-1.094,2.766c0.016,0.516-0.234,0.797-0.234,0.797s-0.281,0.297-0.828,0.344h-1.797
	c-3.953,0.25-7.438-3.391-7.438-3.391s-3.813-3.938-7.156-11.797c-0.219-0.516,0.016-0.766,0.016-0.766s0.234-0.297,0.891-0.297
	l4.281-0.031c0.406,0.063,0.688,0.281,0.688,0.281s0.25,0.172,0.375,0.5c0.703,1.75,1.609,3.344,1.609,3.344
	c1.563,3.219,2.625,3.766,3.234,3.438c0,0,0.797-0.484,0.625-4.375c-0.063-1.406-0.453-2.047-0.453-2.047
	c-0.359-0.484-1.031-0.625-1.328-0.672c-0.234-0.031,0.156-0.594,0.672-0.844c0.766-0.375,2.125-0.391,3.734-0.375
	c1.266,0.016,1.625,0.094,2.109,0.203c1.484,0.359,0.984,1.734,0.984,5.047c0,1.063-0.203,2.547,0.563,3.031
	c0.328,0.219,1.141,0.031,3.141-3.375c0,0,0.938-1.625,1.672-3.516c0.125-0.344,0.391-0.484,0.391-0.484s0.25-0.141,0.594-0.094
	l4.5-0.031c1.359-0.172,1.578,0.453,1.578,0.453c0.234,0.641-0.5,2.141-2.344,4.594C34.588,26.302,34.26,25.927,36.76,28.255z"/>
</svg>
