<?xml version="1.0" encoding="utf-8"?>
<!-- Generator: Adobe Illustrator 16.0.0, SVG Export Plug-In . SVG Version: 6.00 Build 0)  -->
<!DOCTYPE svg PUBLIC "-//W3C//DTD SVG 1.1//EN" "http://www.w3.org/Graphics/SVG/1.1/DTD/svg11.dtd">
<svg version="1.1" id="Layer_1" xmlns="http://www.w3.org/2000/svg" xmlns:xlink="http://www.w3.org/1999/xlink" x="0px" y="0px"
	 width="302.193px" height="208.012px" viewBox="0 0 302.193 208.012" enable-background="new 0 0 302.193 208.012"
	 xml:space="preserve">
<g>
	<path fill="#FFFFFF" d="M71.806,90.643c0,3.972-0.913,7.245-2.737,9.821c-0.644,0.966-1.504,2.471-2.576,4.508
		c-0.644,0.86-3.275,3.167-7.889,6.923c0.106-0.322,0.375-0.805,0.805-1.449c0-0.105,0.053-0.161,0.161-0.161h-0.805
		c0.858,0-0.269,0.483-3.381,1.449c0.75-0.428,1.824-1.18,3.22-2.254c0.106-0.214,0.053-0.428-0.161-0.644l-20.608,10.626
		c-0.108-0.428-0.322-0.644-0.644-0.644c-1.504,0-5.796,1.557-12.88,4.669c-0.322,0.105-0.966,0.645-1.932,1.61
		c0-0.752,0.106-1.127,0.322-1.127c-0.644,0.644-1.074,1.555-1.288,2.736c-0.216-0.107-0.644-0.43-1.288-0.966
		c-3.542,1.394-5.207,3.917-4.991,7.567c-0.216,0-0.511-0.136-0.886-0.402c-0.377-0.27-0.671-0.402-0.885-0.402
		c-0.216,0.321-0.86,1.771-1.932,4.347h-0.805c-0.108-1.074-0.108-2.362,0-3.864c-0.216-0.43-0.483-0.752-0.805-0.966
		c-0.216,0.214-0.322,0.589-0.322,1.127c0-0.538-0.161-0.913-0.483-1.127c-0.216,0.214-0.805,1.019-1.771,2.415
		c0.105-1.826,0.105-3.006,0-3.542c-0.322,0-0.539,0.161-0.644,0.483c-0.216,0.966-0.752,2.359-1.61,4.186
		c-0.108-0.108-0.269-0.966-0.483-2.576c-0.322-1.183-0.161-2.201,0.483-3.059c-0.752-0.86-1.502-1.288-2.254-1.288
		c-0.428,0-0.911,0.053-1.449,0.161c-0.536,0.105-0.966,0.161-1.288,0.161v-2.415c1.183-0.217,2.737-0.645,4.669-1.288
		c0.536-1.505,1.824-4.936,3.864-10.304c1.18-3.112,2.576-7.084,4.186-11.914v-0.483c-0.43,0.322-0.805,0.86-1.127,1.61
		c4.613-15.134,8.855-31.984,12.719-50.554c2.468-12.45,3.864-21.896,4.186-28.336c0-0.858,0-2.038,0-3.542
		c0-1.501-0.055-2.629-0.161-3.381c0-0.75,0-0.858,0-0.322v-2.576c0.214,0.752,0.644,1.771,1.288,3.059
		c0.644-1.072,0.966-2.254,0.966-3.542c0-0.966-0.161-1.932-0.483-2.898c0.106-0.536,0.644-1.716,1.61-3.542
		c-0.322,3.328-0.483,5.635-0.483,6.923c0.322-0.644,0.966-1.824,1.932-3.542c0.536-0.644,1.394-1.502,2.576-2.576
		c0.214,0.216,0.588,0.86,1.127,1.932c0.214-0.105,0.375-0.483,0.483-1.127v1.127c0.966,0,1.663,0.108,2.093,0.322
		c0.214-0.214,0.402-0.563,0.563-1.046c0.161-0.483,0.294-0.777,0.402-0.885c-0.108,0.538-0.108,1.61,0,3.22
		c0.75-0.322,1.341-0.911,1.771-1.771l-0.966-1.127c0.644,0.43,1.61,1.074,2.898,1.932c0.536-1.072,0.805-2.199,0.805-3.381
		c0.106,0.644,0.322,1.557,0.644,2.737c0.106-0.644,0.375-1.288,0.805-1.932c0.214,1.183,0.697,2.954,1.449,5.313h0.161
		c0.106-1.61,0.483-3.647,1.127-6.118c0.536-1.072,1.341-1.61,2.415-1.61c0.644,0,1.341,0.966,2.093,2.898
		c-1.396,0-2.254,0.644-2.576,1.932c-0.322,0.966-0.322,2.148,0,3.542c0.536,3.437,0.805,6.817,0.805,10.143
		c0,5.474-0.805,10.681-2.415,15.617c0-0.428-0.216-0.911-0.644-1.449c-0.322,1.61-0.913,4.025-1.771,7.245
		c-0.216-0.214-0.43-0.322-0.644-0.322c-0.43,0.86-0.913,2.148-1.449,3.864c0.106,0.538,0.161,1.396,0.161,2.576
		c-0.43,0.538-1.021,1.449-1.771,2.737v-1.61c-0.108-0.106-0.216,0-0.322,0.322c-0.539,1.932-1.666,5.69-3.381,11.27
		c1.072-0.105,3.326-0.105,6.762,0c3.864,0.216,6.923,0.699,9.177,1.449c4.614,1.718,8.478,4.83,11.592,9.338
		C70.249,80.983,71.806,85.708,71.806,90.643z M26.404,12.719c-0.216,0.322-0.43,1.235-0.644,2.737
		c-0.322-0.644-0.752-1.716-1.288-3.22c0.428,0.43,0.697,0.644,0.805,0.644h0.805C26.188,12.774,26.296,12.719,26.404,12.719z
		 M25.76,107.548h-0.483l-0.805,1.932l0.483,0.161L25.76,107.548z M27.209,103.04c-0.644,0.538-1.127,1.718-1.449,3.542
		c-0.216,0-0.377,0.055-0.483,0.161c0.105,0.216,0.267,0.483,0.483,0.805C26.726,105.294,27.209,103.792,27.209,103.04z
		 M51.198,94.829c0-0.858-0.322-2.093-0.966-3.703l-0.805,2.576c0-1.394-0.483-3.22-1.449-5.474c0,1.074-0.108,1.771-0.322,2.093
		c0-0.536-0.644-1.394-1.932-2.576h1.288c-0.539-1.716-3.437-2.576-8.694-2.576c-2.041,0-3.275,0.43-3.703,1.288
		c0.75,0,1.876,0.269,3.381,0.805l-3.542,0.805c-1.074,3.328-2.684,8.05-4.83,14.168c0-0.214,0.053-0.322,0.161-0.322
		c0.105,0.216,0.161,0.538,0.161,0.966c0,0.539-0.242,1.396-0.725,2.576c-0.483,1.182-0.725,1.879-0.725,2.093
		c0.536-0.644,1.072-1.501,1.61-2.576c0.214,0.216,0.267,0.377,0.161,0.483c0-0.322-0.216-0.106-0.644,0.644
		c-0.538,0.966-1.021,1.61-1.449,1.932l-0.322,0.322c-0.108,1.182-0.322,2.148-0.644,2.898c0-0.536,0.322-0.805,0.966-0.805
		c0.214,0.86-0.27,2.041-1.449,3.542h1.288c-0.539,0.752-1.183,1.771-1.932,3.059c1.61-0.536,3.326-1.61,5.152-3.22
		c-1.182,0.86-2.04,1.182-2.576,0.966c0.644-0.536,1.288-1.019,1.932-1.449c-1.183,0.43-1.932,0.538-2.254,0.322
		c3.434-2.038,8.425-4.883,14.973-8.533l-3.381,0.966c2.038-1.502,4.078-2.951,6.118-4.347c2.468-1.824,3.864-3.647,4.186-5.474
		C50.876,94.776,51.198,94.293,51.198,94.829z M32.2,88.55c-0.322,0.108-0.699,0.322-1.127,0.644
		c-0.966,2.898-2.254,7.192-3.864,12.88l0.805,0.483L32.2,88.55z M28.336,112.861l-0.644,0.805l-0.483-0.322l0.966-0.966
		L28.336,112.861z M30.107,10.465h-0.483v-1.61h0.483V10.465z M32.361,100.142l-0.966,1.771l-0.644-0.161l1.127-1.771
		L32.361,100.142z M33.327,85.813c-1.074,0.539-1.61,0.966-1.61,1.288h1.288C33.005,86.565,33.111,86.135,33.327,85.813z
		 M32.683,87.906v-0.644h-0.966v0.644H32.683z M34.454,10.143H33.81l-0.322-1.449h0.483L34.454,10.143z M36.225,89.677
		c-0.644,0-1.127,0.377-1.449,1.127c0.213-1.072,0.536-1.877,0.966-2.415C35.742,88.927,35.903,89.355,36.225,89.677z M37.996,0.644
		l-0.322,0.483l-0.805-0.805L37.191,0L37.996,0.644z M37.674,66.332v-0.966H37.03v0.966H37.674z M37.996,65.205v-1.127h-0.644v1.127
		H37.996z M38.318,63.917v-1.61h-0.483v1.61H38.318z M38.962,65.205l-0.483-0.161l-0.483,1.127l0.483,0.161L38.962,65.205z
		 M42.665,59.57l-0.483,1.771h-0.483l0.322-1.771H42.665z M42.987,58.926h-0.644v-1.127h0.644V58.926z M46.851,50.393h-0.483v-1.288
		h0.483V50.393z M53.291,28.014h-0.805V25.76h0.805V28.014z M53.452,16.261h-0.483v-0.966h0.483V16.261z M53.452,24.794h-0.483
		v-8.211h0.483V24.794z M57.316,112.539l-1.61,0.805v-0.483l1.449-0.805L57.316,112.539z M66.332,89.516
		c0-1.932-0.86-4.292-2.576-7.084c0,0.538-0.108,0.913-0.322,1.127c-0.108-0.966-0.913-2.174-2.415-3.623
		c-1.504-1.449-2.737-2.334-3.703-2.657c6.01,4.83,8.8,10.199,8.372,16.1C66.116,91.986,66.332,90.698,66.332,89.516z M61.18,63.273
		l0.483,0.483h1.127c-0.43,0-0.269-0.214,0.483-0.644c0.966,0.322,1.18,0.914,0.644,1.771c-0.538,1.183-0.591,2.148-0.161,2.898
		c0.536,0.322,1.18,0.914,1.932,1.771l2.415,0.483c1.072,0,1.394-0.536,0.966-1.61c0.322-0.214,0.805-1.341,1.449-3.381
		c0.428,0.43,0.697,0.644,0.805,0.644c1.394,0,2.093-0.697,2.093-2.093c0-1.932-0.913-2.898-2.737-2.898
		c-0.108,0-0.242,0.081-0.402,0.242c-0.161,0.161-0.297,0.242-0.403,0.242c-0.108,0-0.43-0.187-0.966-0.563
		c-0.539-0.375-0.86-0.563-0.966-0.563c-0.538,0-1.449,0.377-2.737,1.127c-0.216,0.216-0.699,0.591-1.449,1.127
		c-0.108,0-0.161-0.053-0.161-0.161c0-1.072-0.43-1.61-1.288-1.61c-0.322,0-0.699,0.322-1.127,0.966V63.273z M65.044,103.523
		l-0.322-0.322l-3.059,3.22l0.161,0.322L65.044,103.523z M63.917,65.527l0.483-0.161v0.161l-0.322,0.161L63.917,65.527z"/>
	<path fill="#FFFFFF" d="M108.996,103.04c-0.538,0.43-2.523,1.557-5.957,3.381c0.214,0.43,0.375,0.644,0.483,0.644
		c0.428,0,0.805-0.161,1.127-0.483c-0.108,0.322-0.161,0.538-0.161,0.644c-0.216,0.108-0.108,0.161,0.322,0.161
		c0.322,0,0.536-0.161,0.644-0.483c0.322,0.644,0.428,1.344,0.322,2.093c-0.108,0.752-0.27,1.235-0.483,1.449
		c-1.826,0.644-3.919,1.987-6.279,4.025c-0.108,0-0.322-0.106-0.644-0.322c-0.322-0.214-0.591-0.322-0.805-0.322
		c-0.538-0.106-1.449,0.269-2.737,1.127l-0.161,0.966c-0.752,0.322-1.396,0.699-1.932,1.127c-0.217,0.108-0.108,0.161,0.322,0.161
		c0.428,0.108,1.127-0.053,2.093-0.483c-0.644,0.216-1.504,0.483-2.576,0.805c-0.322,0.43-0.752,0.966-1.288,1.61
		c-0.644-0.106-1.61-0.106-2.898,0c-1.183,0.644-2.31,1.182-3.381,1.61c-1.396,0.86-2.31,1.771-2.737,2.737
		c0.106-0.538-0.055-1.127-0.483-1.771c-0.752,0.539-1.127,1.127-1.127,1.771c-0.108,0.536-0.055,0.966,0.161,1.288l-0.644-0.805
		c-0.539,0.535-1.288,1.449-2.254,2.736c-0.108-0.216-0.322-0.538-0.644-0.966c-0.966,0-1.504,0.483-1.61,1.449
		c-0.108,0.966-0.161,1.771-0.161,2.415v0.483h-1.127c0-0.322,0.105-0.645,0.322-0.967v-1.127c0.105-0.321,0.053-0.805-0.161-1.448
		l-2.576,2.093c-1.394-0.108-2.415-0.86-3.059-2.254l-0.966,0.805c0-0.538-0.161-1.021-0.483-1.449
		c-0.105,0.105-0.214,0.267-0.322,0.483c-0.106,0.214-0.214,0.375-0.322,0.482c0-0.43,0.27-1.182,0.805-2.254l-0.483-0.321
		c-0.322,0.428-0.697,0.91-1.127,1.448c0-0.321,0.161-1.127,0.483-2.415c0.108-1.288-0.214-1.932-0.966-1.932
		c-0.322-0.105-0.911,0-1.771,0.322c0,0.322,0.055,0.591,0.161,0.805l0.805-0.483c0.322,0,0.055,0.377-0.805,1.127
		c0-0.645-0.267-1.233-0.805-1.771c0-0.105-0.106-0.053-0.322,0.161c0,0.538,0,1.341,0,2.415c-0.105-0.645-0.105-1.394,0-2.254
		c-0.105-0.106-0.375-0.161-0.805-0.161c-0.214,0-0.375,0.081-0.483,0.241c-0.105,0.161-0.214,0.242-0.322,0.242
		c0.216-0.105,0.35-0.267,0.402-0.483c0.056-0.214,0.136-0.375,0.242-0.483c-0.428-0.536-0.911-1.072-1.449-1.61l1.449,0.966
		c0.216-0.214,0.108-0.589-0.322-1.127l3.22-4.186c-0.106-0.106-0.375-0.161-0.805-0.161c0.644,0-0.536,0.322-3.542,0.966
		c1.074-0.536,2.631-1.341,4.669-2.415c0-0.214,0-0.536,0-0.966c0.216-0.214,0.914-1.288,2.093-3.22
		c0.216-0.214,0.833-0.697,1.852-1.449c1.021-0.75,1.529-1.449,1.529-2.093c0.644-0.214,1.288-0.644,1.932-1.288
		c6.01-12.772,10.679-29.569,14.007-50.393l0.483-8.211c-1.718,10.198-2.684,16.1-2.898,17.71
		c-1.504,6.762-3.22,12.505-5.152,17.227c3.112-15.992,4.83-26.027,5.152-30.107l0.322,0.644c0.105-0.213,0.161-0.483,0.161-0.805
		c0.106-0.214,0.106-0.428,0-0.644c-0.644,0.538-0.966,0.644-0.966,0.322c0-0.105,0.081-0.347,0.242-0.724
		c0.161-0.375,0.241-0.725,0.241-1.047l0.966-25.116c0.105-3.434,0.75-6.332,1.932-8.694v-0.644
		c0.322-0.214,0.805-0.483,1.449-0.805c0.105-0.428,0.161-0.697,0.161-0.805h0.322c0.214,0,0.375,0,0.483,0
		c0,0.216,0.106,0.539,0.322,0.966l-1.288,26.726c0.322-1.18,0.858-5.527,1.61-13.041l-0.161-7.084
		c0.214-1.716,0.644-3.648,1.288-5.796c0.106,0.43,0.267,0.966,0.483,1.61c0.644-0.536,1.019-1.663,1.127-3.381
		c0.75,0.43,1.341,0.644,1.771,0.644c0.213-0.214,0.588-0.644,1.127-1.288v1.288c0.322,0.108,1.071,0.216,2.254,0.322
		c0.75,0.108,1.127,0,1.127-0.322c-0.108,0.539-0.055,1.021,0.161,1.449c0-0.536,0.267-1.233,0.805-2.093
		c0.536-0.858,1.019-1.232,1.449-1.127v0.966c-0.752,0.43-1.235,0.86-1.449,1.288l0.161,1.127c0.858-0.322,1.824-1.18,2.898-2.576
		l-0.322,2.576c0,1.074,0.697,1.665,2.093,1.771c-0.43,0.966-0.699,1.826-0.805,2.576c-0.108,1.288-0.056,4.885,0.161,10.787
		l-0.322,2.898c-0.108,1.074,0.105,1.771,0.644,2.093l-1.61,15.134c-1.074,10.842-4.508,26.137-10.304,45.885
		c0,0.216-0.216,0.805-0.644,1.771c-0.216,0.322-0.269,0.539-0.161,0.644c0.322-0.214,0.697-0.267,1.127-0.161
		c0.214,0.108,0.644,0.591,1.288,1.449h0.805c0.644-0.644,1.019-1.341,1.127-2.093c0,0.108,0.105,0.377,0.322,0.805
		c0.428,0,0.697-0.214,0.805-0.644c-0.322,0.644-1.235,1.449-2.737,2.415c0.966,0.216,1.715,0.322,2.254,0.322
		c2.576-0.966,4.078-1.449,4.508-1.449c0.322,0,0.697,0.242,1.127,0.725c0.428,0.483,0.697,0.725,0.805,0.725
		c0.214,0.108,0.428,0,0.644-0.322c0.214-0.322,0.428-0.427,0.644-0.322c1.18,0.108,2.737,0.699,4.669,1.771L108.996,103.04z
		 M64.398,118.496l-0.322-0.322l-0.483,0.966l0.322,0.161L64.398,118.496z M65.687,120.75c-0.322-1.18-0.428-2.146-0.322-2.898
		c-0.214,0.216-0.644,1.074-1.288,2.576C64.937,120.428,65.473,120.536,65.687,120.75z M65.042,125.58l-0.483-0.16l0.161-1.449
		l0.483,0.161L65.042,125.58z M69.068,124.936l-0.644-0.161l-0.322,1.449h0.483L69.068,124.936z M69.551,106.26l-0.483,0.644
		l-0.322-0.161l0.483-0.644L69.551,106.26z M76.795,89.677c-0.322,1.288-1.343,3.542-3.059,6.762
		c-0.752,0.966-1.449,2.093-2.093,3.381c0.858-2.359,2.199-5.796,4.025-10.304L76.795,89.677z M78.566,80.339l-0.483,1.127
		l-0.483-0.161l0.322-1.127L78.566,80.339z M81.304,63.917h-0.322l0.161-0.966l0.322,0.161L81.304,63.917z M83.075,55.384
		l-0.322,2.093l-0.483-0.161l0.322-1.932H83.075z M90.48,121.555c-1.718,0.966-3.489,2.198-5.313,3.703
		c0.428,0.857,1.072,1.341,1.932,1.448c0.214,0.106,0.428,0.106,0.644,0v-0.321c-0.108,0.966-0.216,1.394-0.322,1.288
		c-0.108-0.108-0.377-0.108-0.805,0l-0.483,0.161c-0.644-0.645-0.805-0.967-0.483-0.967c-0.43-0.321-1.449-0.591-3.059-0.805
		C85.167,124.237,87.796,122.735,90.48,121.555z M83.396,53.13l-0.483-0.161l0.161-2.415h0.644L83.396,53.13z M85.329,38.64
		l0.805-15.456c-0.216-0.106-0.591,1.665-1.127,5.313C85.434,33.005,85.542,36.386,85.329,38.64z M90.32,118.657l0.161-0.644h-1.127
		l-0.161,0.483L90.32,118.657z M91.93,96.278h-0.322l-0.966,1.449l0.322,0.322L91.93,96.278z M92.574,93.38h-0.483l-0.805,2.254
		h0.322L92.574,93.38z M93.54,99.176l-0.322-0.644l-1.932,1.127v0.644L93.54,99.176z M96.599,116.564l-0.805,0.161v-0.483
		l0.805-0.322V116.564z M100.946,117.691c-0.108,0-0.297,0.081-0.563,0.242c-0.27,0.161-0.563,0.188-0.886,0.081l-1.932-0.161
		c0.536-0.428,1.18-0.589,1.932-0.483L100.946,117.691z M102.877,97.888l-0.805,1.127l-0.322-0.483l0.805-0.966L102.877,97.888z
		 M105.454,51.198l-0.644-0.161l0.161-1.61l0.644,0.161L105.454,51.198z M105.454,98.532h-0.644l0.161-0.966l0.483,0.161V98.532z
		 M106.098,44.919h-0.644l0.161-1.61h0.644L106.098,44.919z M108.674,102.235h-0.483l-0.483,1.288h0.483L108.674,102.235z"/>
	<path fill="#FFFFFF" d="M187.081,73.416c0,1.932-0.806,4.777-2.415,8.533c-0.645,1.826-1.558,4.724-2.737,8.694
		c-1.288,1.396-3.114,3.758-5.474,7.084l0.805-1.61c0.644-1.18,0.857-1.877,0.644-2.093c-0.86,1.183-2.04,3.114-3.542,5.796
		c-0.644,0.539-1.609,1.557-2.897,3.059c-0.645,1.183-1.558,2.898-2.737,5.152c-2.792,3.972-5.904,7.192-9.338,9.66
		c-5.904,4.402-9.821,6.602-11.753,6.602c-0.322,0-0.805-0.108-1.449-0.322c-0.644-0.217-1.074-0.322-1.288-0.322
		c-0.86,0-2.067,0.187-3.622,0.563c-1.558,0.375-2.765,0.563-3.623,0.563c-3.22,0-6.656-1.718-10.304-5.152l-3.22-0.644
		c-0.108,0.322-0.161,0.752-0.161,1.288c0,0.538,0.053,1.182,0.161,1.932c-1.074-1.394-2.523-3.22-4.347-5.474
		c-0.108-0.536-0.377-1.502-0.805-2.898c-0.322-0.214-0.644-0.428-0.966-0.644c-0.216-1.394-0.539-3.542-0.966-6.44
		c0.536-0.644,0.805-1.127,0.805-1.449c-1.074-2.468-1.771-4.561-2.093-6.279c0.322-0.322,0.322-3.22,0-8.694
		c0.966-7.833,2.951-15.562,5.957-23.184c1.18-3.326,3.486-6.815,6.923-10.465c3.647-4.292,6.923-6.762,9.821-7.406
		c0.428,0,2.468-0.858,6.118-2.576c-7.406,3.006-13.311,7.675-17.71,14.007c-0.108,0.108,0,0.322,0.322,0.644l0.805-0.644
		c-1.396,1.504-2.523,3.329-3.381,5.474l0.644,0.322c3.326-4.614,8.747-9.499,16.261-14.651c-0.322,0-1.235,0.27-2.737,0.805
		c6.868-4.078,12.181-6.063,15.939-5.957c-0.108,0-0.322,0.161-0.644,0.483c0.321,0.216,0.696,0.322,1.127,0.322
		c0.535,0,1.341-0.106,2.415-0.322c1.071-0.214,1.876-0.322,2.414-0.322c0.322,0,1.047,0.377,2.174,1.127
		c1.127,0.752,1.796,1.127,2.013,1.127c0.428,0,0.616-0.081,0.563-0.242c-0.056-0.161,0.025-0.241,0.241-0.241
		c0.322,0.108,0.777,0.458,1.369,1.046c0.588,0.591,2.173,2.334,4.749,5.232c0.428,0.966,1.502,2.254,3.22,3.864l0.645-0.644
		c-0.752-0.322-1.047-0.75-0.886-1.288c0.161-0.536,0.025-0.966-0.402-1.288c1.716,0,3.004,0.377,3.864,1.127
		c0.644-0.75,0.966-1.232,0.966-1.449c0.428,1.182,1.288,2.415,2.576,3.703c0.749,0.86,1.876,3.598,3.381,8.211
		c0,0.43,0.053,1.127,0.161,2.093c0.214,0.43,0.696,0.86,1.448,1.288C186.758,71.484,187.081,72.45,187.081,73.416z M132.34,56.35
		l-2.093,2.254l-0.161-0.483l1.932-1.932L132.34,56.35z M134.916,54.74l-2.093,1.61l-0.161-0.644l1.932-1.449L134.916,54.74z
		 M160.515,70.196c-1.074-1.61-1.718-2.842-1.932-3.703c-1.396,0.966-3.65,2.792-6.763,5.474c0.106-0.644,0.536-1.449,1.288-2.415
		c-4.938,6.118-8.532,12.936-10.787,20.447c-0.43-0.644-0.699-0.966-0.805-0.966c-0.752,0-1.477,1.288-2.174,3.864
		c-0.699,2.576-1.046,4.402-1.046,5.474c0,2.148,0.482,4.938,1.449,8.372c4.291-1.18,8.425-4.347,12.396-9.499
		c3.97-5.152,5.901-9.821,5.796-14.007c0.428,0.216,0.75-0.105,0.966-0.966l0.483-1.127c-0.86-0.322-1.771-0.697-2.737-1.127
		c0.106-0.536,0.161-0.966,0.161-1.288c0-1.072-1.718-2.038-5.151-2.898l4.024-0.161c0.536,0.216,1.288,0.699,2.254,1.449
		c0.105-0.322,0.267-0.697,0.483-1.127c-0.645,0-1.021-0.053-1.127-0.161c0.535-0.536,0.749-0.966,0.644-1.288
		c-0.43-0.322-1.021-0.75-1.771-1.288c1.609-0.536,2.682-1.232,3.22-2.093c-0.322-0.428-0.752-0.911-1.288-1.449
		c0.322,0,0.75,0.081,1.288,0.242C159.924,70.116,160.299,70.196,160.515,70.196z M146.186,46.69h-0.966v-0.644h0.966V46.69z
		 M153.109,46.851c-1.182,0.322-3.597,1.127-7.245,2.415h1.449C147.958,49.374,149.889,48.569,153.109,46.851z M148.279,45.885
		h-0.966v-0.644h0.966V45.885z M155.363,80.5h-0.805v-0.644h0.805V80.5z M184.021,54.096h-0.644v-1.449h0.644V54.096z"/>
	<path fill="#FFFFFF" d="M302.193,96.6c-2.254,1.718-5.582,4.025-9.981,6.923v1.449c0.857,0.538,1.394,0.805,1.61,0.805
		c0.644,0,1.582-0.186,2.817-0.563c1.232-0.375,2.173-0.616,2.817-0.725c-1.396,1.074-3.328,2.362-5.796,3.864l-3.703,1.449
		c-1.719,0.644-3.007,1.558-3.864,2.737h0.322c0.105,0.108,0.321,0.161,0.644,0.161c0.966-0.106,4.131-1.771,9.499-4.991
		l1.127,0.322l-21.896,11.753l0.321,0.322c2.36-0.214,7.138-1.072,14.329-2.576c0.214,0.217,0.536,0.43,0.967,0.644l-25.922,10.143
		c0.967,0.428,2.038,0.589,3.221,0.483c2.468-0.217,10.034-2.846,22.701-7.889c1.823-0.75,3.702-1.771,5.635-3.059
		c0.105,0.538,0.267,0.913,0.482,1.127c0.322-0.214,0.589-0.322,0.806-0.322c-7.192,3.22-16.853,7.083-28.98,11.591
		c-6.87,2.576-13.149,4.83-18.837,6.763c-0.538,0.428-0.752,0.805-0.644,1.127c-0.108-0.108-0.322-0.322-0.645-0.645
		c-0.322,0.536-1.021,3.112-2.093,7.729c0.322,0.105,0.697,0,1.127-0.322c-0.322,0.214-0.699,0.589-1.127,1.127
		c-4.725,18.354-9.285,32.467-13.685,42.342c-0.539,0.859-1.988,2.416-4.348,4.67c-0.108,0-0.402-0.08-0.886-0.242
		c-0.482-0.16-0.885-0.24-1.207-0.24c-0.322,0.105-1.021,0.725-2.093,1.852c-1.074,1.127-1.771,1.742-2.094,1.852
		c-2.897,1.715-4.938,2.629-6.117,2.736l-1.771,0.322c0-0.109,0.053-0.27,0.161-0.482l-0.161-0.807
		c-0.108-0.859-0.913-1.557-2.415-2.092l-1.127,0.643c0.105-1.182-0.056-2.146-0.482-2.896c-1.183-2.254-1.771-3.598-1.771-4.025
		l0.483-1.289c-0.217-3.648-0.431-9.232-0.645-16.743c0,0.535,0.375,0.805,1.127,0.805l0.322-1.288
		c-0.431-3.65,0.483-7.515,2.737-11.592c0.966-1.505,2.682-4.508,5.151-9.017c1.072-1.826,3.864-4.99,8.372-9.499
		c0.214-0.107,0.428-0.644,0.645-1.609c-0.217-0.322-0.431-0.483-0.645-0.483c0.428-0.108,0.75-0.377,0.966-0.805
		c-0.216-0.217-0.482-0.27-0.805-0.161c-0.752,0.105-2.201,0.857-4.347,2.254c0.214,0.105,0.589,0.161,1.127,0.161
		c-2.04,0.644-4.669,2.198-7.89,4.669c-8.693,6.762-13.632,14.651-14.812,23.667c-0.966,6.762-1.396,10.678-1.288,11.752
		c0.214,1.289,0.589,2.416,1.127,3.381c0.214,0.537,0.105,1.555-0.322,3.061c-0.752,0-1.396-0.217-1.932-0.645
		c-0.644-0.967-1.288-2.201-1.932-3.703l-2.254-12.558c-0.753-4.725,0.427-10.843,3.542-18.354
		c2.468-6.117,5.257-11.003,8.372-14.65c0.749-1.074,2.093-2.576,4.024-4.508c1.071-0.86,2.629-1.987,4.669-3.382
		c0.322-2.04,1.394-3.649,3.22-4.829c2.79-1.183,6.763-3.004,11.914-5.475c-0.107-0.322-0.107-0.885,0-1.69
		c0.106-0.805,0.161-1.313,0.161-1.529c0-0.322-0.108-0.589-0.321-0.805c-1.933,1.074-4.134,1.987-6.602,2.737
		c-0.86,1.074-1.504,1.666-1.932,1.771c-0.217,0-0.458-0.053-0.725-0.161c-0.27-0.106-0.511-0.106-0.725,0
		c-0.538,0-3.22,1.343-8.05,4.024c2.037-1.071,4.991-2.79,8.854-5.151c0.322-0.428,0.966-1.019,1.933-1.771l7.245-1.771
		c0.105-0.322,0.374-1.341,0.805-3.059l-0.645-2.254c-0.43,0.43-0.591,0.913-0.482,1.449l-0.645-0.483
		c-0.216,0.216-0.321,0.538-0.321,0.966c-0.217,0-0.539-0.214-0.967-0.644c-0.216,0-0.43,0.161-0.644,0.483
		c0.105,0.644,0.536,0.913,1.288,0.805c-1.826,0.43-4.508,0.966-8.05,1.61c0.644,0.216,1.502,0.43,2.575,0.644
		c-5.903-0.857-9.338-1.232-10.304-1.127c-0.43,0.108-1.102,0.297-2.013,0.563c-0.913,0.27-1.584,0.458-2.012,0.563
		c-2.148,0.216-4.806-0.483-7.97-2.093c-3.167-1.61-5.502-3.381-7.004-5.313c-0.321-1.072-1.235-2.79-2.736-5.152
		c0.321,0.216,0.588,0.269,0.805,0.161c0.322-0.427,0.482-0.857,0.482-1.288c-0.107-0.644-0.618-1.771-1.529-3.381
		c-0.913-1.61-1.368-2.737-1.368-3.381l-0.483-3.864c2.36-6.118,4.025-10.787,4.991-14.007c-1.932,10.412-2.897,15.456-2.897,15.134
		c0,0.644,0.214,1.288,0.644,1.932c0.105-1.394,1.341-5.957,3.703-13.685c0.75-2.254,2.359-4.722,4.83-7.406
		c0.428-1.072,3.917-5.957,10.465-14.651c-0.966,1.61-2.04,3.167-3.22,4.669c-1.183,2.254-1.61,3.919-1.288,4.991
		c2.254-3.647,6.063-8.799,11.431-15.456c-3.006,3.65-5.635,7.406-7.889,11.27c0.105,0.217,0.267,0.322,0.482,0.322l10.787-12.719
		c-0.108,0.539-0.805,1.666-2.093,3.381l1.288-0.161c-0.86,0.538-1.396,1.343-1.61,2.415c3.756-3.648,7.834-5.741,12.236-6.279
		c2.254-0.213,4.186,0,5.796,0.644l0.805-2.093c0,0.86-0.055,1.557-0.16,2.093c3.434,1.074,6.331,2.254,8.693,3.542l1.288-0.644
		l-0.161-1.61c-0.752-0.536-1.182-0.805-1.288-0.805c-0.321,0-0.482,0.269-0.482,0.805c-0.322-0.644-1.987-1.072-4.991-1.288
		l2.093-0.161c3.542-0.428,6.332,0.966,8.372,4.186c-0.216,0.216-0.43,0.322-0.644,0.322c-0.217,0-0.431-0.161-0.645-0.483
		l-0.805,1.127c0.428,0.538,1.288,1.127,2.576,1.771c0.105-0.322,0.321-0.805,0.644-1.449c0.214,1.504,0.105,2.471-0.322,2.898
		c0,0.538,0.589,1.021,1.771,1.449c-0.108-0.644,0.105-1.394,0.644-2.254c0.322,0.43,0.858,1.127,1.61,2.093l0.966-0.161
		c0.322-1.18,1.019-2.951,2.093-5.313c0.645,0.752,0.858,1.396,0.645,1.932l-0.645,1.288l0.483,4.186
		c0.536,0.43,0.857,0.644,0.966,0.644c0.428-0.105,0.725-0.267,0.886-0.483c0.161-0.214,0.294-0.322,0.402-0.322
		c0.858,1.183,1.341,1.932,1.449,2.254l0.161,1.771c0.105,0.752,0.214,1.288,0.321,1.61c0.322,3.436-1.557,10.412-5.635,20.93
		c-0.538,1.504-0.644,3.115-0.321,4.83c-0.322,2.362-0.86,6.065-1.61,11.109c1.288,0.538,2.629,0.699,4.024,0.483
		c-0.43,0.108,1.02-0.428,4.348-1.61c0,0.217-0.028,0.539-0.081,0.966c-0.055,0.43-0.08,0.699-0.08,0.805
		c0.536,0.322,0.91,0.483,1.127,0.483c0.322,0,0.805-0.161,1.449-0.483c0.644-0.322,1.127-0.483,1.449-0.483
		c0.321,0,0.805,0,1.448,0c0.645,0,1.127,0,1.449,0c1.394-0.105,3.004-0.644,4.83-1.61c-0.966,0.322-1.718,0.913-2.254,1.771
		c0.536,0.43,1.18,0.591,1.932,0.483c0.75,0,1.933-0.75,3.542-2.254c0.105,0.539,0.536,0.752,1.288,0.644
		c0.75-0.105,1.824-0.456,3.22-1.046c1.395-0.589,2.415-0.938,3.06-1.047c0.214,0,0.455,0.028,0.725,0.081
		c0.267,0.056,0.508,0.081,0.725,0.081c3.97-0.428,7.298-2.093,9.981-4.991c0.214,0.108,0.806,0.591,1.771,1.449
		c0.321-0.105,0.91-0.483,1.771-1.127L302.193,96.6z M201.408,158.102l-0.645-0.161l-0.482,1.127h0.805L201.408,158.102z
		 M222.66,134.113c-4.509,2.576-7.462,4.4-8.855,5.475c-3.114,2.575-5.635,5.579-7.566,9.016c-0.645,0.75-1.558,1.877-2.737,3.381
		c-0.645,1.394-1.235,3.112-1.771,5.152c2.038-3.328,3.542-5.69,4.509-7.084c1.609-2.576,3.381-4.777,5.313-6.602
		c1.288-0.86,2.737-2.093,4.347-3.703c0.645-0.86,1.852-1.851,3.623-2.979C221.291,135.642,222.337,134.757,222.66,134.113z
		 M206.881,127.19l-2.576,2.898l-0.482-0.645l2.736-2.576L206.881,127.19z M245.2,55.062c-0.108-1.288-1.235-2.199-3.382-2.737
		c-2.792-0.644-4.455-1.18-4.99-1.61c-0.322,2.148-0.913,5.152-1.771,9.016c0.105-0.75,0.375-3.703,0.805-8.855l-2.736,0.322
		c-6.013,0.644-11.647,5.69-16.905,15.134c-0.644,1.182-1.396,2.576-2.254,4.186c-5.26,11.486-7.728,18.784-7.406,21.896
		c0.105,0.43,0.322,0.805,0.645,1.127c0.321,0.322,0.535,0.538,0.644,0.644c0.105-0.858,0.589-2.146,1.449-3.864l0.805,0.644
		c-0.752,0.216-1.182,0.644-1.288,1.288v1.932c1.288,1.074,2.199,1.557,2.737,1.449h1.127c0.214-1.394,0.645-2.898,1.288-4.508
		c0.105-0.322,0.322-0.483,0.644-0.483c0.322,0,0.589,0.108,0.806,0.322c-0.322,1.074-0.806,2.684-1.449,4.83l5.796-0.644
		c2.359-0.214,6.279-2.093,11.753-5.635c0-0.322,0.105-0.644,0.322-0.966c0.214,0.216,0.322,0.483,0.322,0.805
		c0.644-0.75,0.857-1.716,0.644-2.898c0,0.216-0.216,0.644-0.644,1.288l-0.645-0.644c0.428-2.038,1.502-7.728,3.22-17.066
		c0,0.322-0.16,0.538-0.482,0.644c-0.431-1.502-0.27-4.991,0.482-10.465l0.645,0.483c-0.538,3.759-0.645,6.762-0.322,9.016
		c0.105-7.406,1.341-12.181,3.703-14.329c0.428,0.86,0.911,1.827,1.449,2.898c0.535-0.75,1.341-1.824,2.415-3.22
		c0.644,1.396,0.91,2.362,0.805,2.898C244.716,56.458,245.305,55.492,245.2,55.062z M208.008,96.6l-0.644-0.161l-0.322,0.966
		l0.644,0.161L208.008,96.6z M211.55,123.648l-4.186,3.381l-0.322-0.644l4.186-3.221L211.55,123.648z M209.94,63.756
		c-0.216-0.322-0.43-0.588-0.644-0.805c-0.538,1.074-0.913,1.771-1.127,2.093C208.597,65.044,209.188,64.616,209.94,63.756z
		 M213,98.854l-0.161-1.127c-0.645-0.322-2.201-0.644-4.669-0.966c0.428,0.538,0.696,1.396,0.805,2.576L213,98.854z
		 M208.974,160.195c0.214,1.933,0.053,2.898-0.482,2.898c-0.108,0.105-0.217,0.053-0.322-0.161l0.644-0.483
		C208.813,162.127,208.866,161.375,208.974,160.195z M213.161,152.306l-1.61,2.254l-0.483-0.161l1.449-2.415L213.161,152.306z
		 M229.905,145.705h-0.645c-1.61,0.858-2.685,1.716-3.22,2.576c-0.217,1.072-0.538,2.468-0.966,4.187
		c-0.539,1.394-1.235,3.486-2.094,6.278c-0.216-0.216-0.269-0.43-0.161-0.644c0.322-1.288,1.128-4.616,2.415-9.982
		c-4.186,2.038-8.104,6.815-11.753,14.329c-0.538,1.18-0.805,2.79-0.805,4.83c-0.43,2.038-0.591,3.22-0.483,3.542
		c0,0.322,0.161,0.858,0.483,1.61c0.322,0.749,0.536,1.288,0.645,1.609c0.644-2.47,1.715-5.689,3.22-9.659
		c0.105,0.321-0.322,2.468-1.288,6.439c-0.431,0.858-0.752,1.933-0.966,3.22c-0.322,3.112-0.322,6.225,0,9.338
		c0.214,1.932,0.482,3.326,0.805,4.186l1.61-0.16c1.18-0.109,1.984-0.592,2.415-1.449c0.321-1.287,0.696-2.523,1.127-3.703
		c-0.539,0-0.806-0.217-0.806-0.645c0.322-0.215,0.536-0.27,0.645-0.16c0.428,0.322,0.749,0.482,0.966,0.482
		c-0.217-0.217-0.377-0.482-0.483-0.805l0.967-1.287c0.428-0.861,0.588-1.828,0.482-2.898c-0.216,0-0.43-0.057-0.644-0.162
		c0.644-0.537,1.823-3.058,3.542-7.566c1.288-2.362,2.037-5.583,2.254-9.66l-1.127,0.161
		C227.006,156.492,228.294,151.823,229.905,145.705z M231.353,93.863l-0.161-1.449l-0.966,0.805
		c-0.966,0.108-2.201,0.538-3.703,1.288c0,0.322-0.216,0.7-0.644,1.127c-3.006,0.86-5.474,1.396-7.406,1.61
		c-1.609,0.108-3.006,0.161-4.186,0.161c-0.539,1.183-0.753,1.932-0.645,2.254l4.991-0.483c2.254-0.213,5.366-1.232,9.338-3.059
		C228.722,95.473,229.849,94.723,231.353,93.863z M223.142,203.344l-1.288,1.127c0,0.213,0.161,0.482,0.483,0.805
		c-1.396,0.322-3.864,1.232-7.406,2.736c3.22-3.113,5.58-4.777,7.084-4.99L223.142,203.344z M217.668,56.511l-0.483-0.483
		l-1.127,1.449l0.483,0.483L217.668,56.511z M221.693,204.793l-0.644-0.484l-0.322,0.322l0.483,0.645L221.693,204.793z
		 M222.176,162.449l-0.322,1.127l-0.644-0.321l0.322-0.967L222.176,162.449z M222.337,160.839l-0.322,1.127l-0.482-0.161
		l0.321-0.966H222.337z M229.905,143.29c0.105-0.216-0.056-0.591-0.483-1.127c-1.183,0.858-2.148,1.877-2.898,3.06
		C228.456,144.47,229.583,143.826,229.905,143.29z M231.836,204.148c-0.431,0.428-0.966,0.697-1.61,0.805
		c-0.321,0-0.86-0.43-1.609-1.289c0.105,0,0.267,0.082,0.482,0.242c0.214,0.162,0.509,0.242,0.886,0.242c0.375,0,0.777,0,1.207,0
		H231.836z M248.902,53.935c-0.107-0.428-0.377-1.127-0.805-2.093c-0.216,0.43-0.269,1.288-0.161,2.576
		C248.15,54.204,248.472,54.043,248.902,53.935z M262.91,125.419l-0.161-0.645l-1.127,0.161l0.161,0.644L262.91,125.419z
		 M265.646,71.806l-1.127,1.771l-0.644-0.322l1.127-1.771L265.646,71.806z M265.325,62.629l-1.127,0.644V62.79l0.805-0.644
		L265.325,62.629z"/>
</g>
</svg>
