<?xml version="1.0" encoding="utf-8"?>
<!-- Generator: Adobe Illustrator 16.0.0, SVG Export Plug-In . SVG Version: 6.00 Build 0)  -->
<!DOCTYPE svg PUBLIC "-//W3C//DTD SVG 1.1//EN" "http://www.w3.org/Graphics/SVG/1.1/DTD/svg11.dtd">
<svg version="1.1" id="Layer_1" xmlns="http://www.w3.org/2000/svg" xmlns:xlink="http://www.w3.org/1999/xlink" x="0px" y="0px"
	 width="498.161px" height="175.44px" viewBox="0 0 498.161 175.44" enable-background="new 0 0 498.161 175.44"
	 xml:space="preserve">
<g>
	<path fill="#6E7171" d="M154.836,122.604c-4.354,2.856-10.949,7.277-19.788,13.26c0.408,0.408,0.816,0.612,1.224,0.612
		c0.816,0,2.311-0.679,4.488-2.04c-0.408,0.545-0.478,0.953-0.204,1.224c0.679-0.271,1.632-0.679,2.856-1.224
		c-1.361,1.09-2.856,2.04-4.488,2.856l-1.428,1.632c-2.177,0.953-5.374,2.652-9.588,5.1c-0.274,0.137-0.274,0.341,0,0.612
		c7.478-3.535,13.598-6.866,18.36-9.996c-1.09,1.224-2.722,2.856-4.896,4.896c-1.361,0.682-3.538,1.836-6.528,3.468
		c-2.177,1.906-5.374,4.488-9.588,7.752c-1.09,0.683-3.605,1.703-7.548,3.061c-0.545,0.816-3.538,2.447-8.976,4.896
		c-3.264,1.632-5.1,2.378-5.508,2.244c-0.274,0-0.714-0.137-1.326-0.408c-0.612-0.273-1.055-0.407-1.326-0.407
		c-1.906,0-4.762,0.372-8.568,1.121c-3.809,0.746-6.665,1.053-8.568,0.918c1.087,0,0.032-0.137-3.162-0.407
		c-3.197-0.274-4.998-0.408-5.406-0.408c0.271,0.271,1.291,0.883,3.06,1.836c-3.401-0.137-5.374-0.341-5.916-0.612
		c-2.314-1.09-6.257-3.876-11.832-8.363c-1.632-1.633-2.518-2.582-2.652-2.856l-4.284,0.408c-0.408,0.274-0.816,0.612-1.224,1.02
		L51,151.98c-0.137,0.137-0.204,0.376-0.204,0.714c0,0.341-0.204,0.442-0.612,0.306h-1.428c-0.408-0.134-0.749-0.204-1.02-0.204
		c0.816,0,2.174-0.372,4.08-1.122c1.903-0.746,3.398-1.121,4.488-1.121c0.408,0.137,0.612,0,0.612-0.408
		c0-0.68-0.851-1.868-2.55-3.57c-1.702-1.699-2.891-2.617-3.57-2.754c-0.408,0-1.09,0.274-2.04,0.816
		c-0.953,0.545-1.632,0.816-2.04,0.816c-3.401-0.134-8.297,0.137-14.688,0.816c0,0.137,0.134,0.376,0.408,0.714
		c0.271,0.341,0.408,0.714,0.408,1.122c-1.224-1.495-2.448-2.244-3.672-2.244c-0.408,0-0.612,0.07-0.612,0.204
		c0,0.137,0.134,0.341,0.408,0.612c-0.682-0.408-2.314-1.02-4.896-1.836c-0.137,0.137-0.341,0.239-0.612,0.306
		c-0.274,0.07-0.478,0.172-0.612,0.306c2.582,2.177,4.692,3.334,6.324,3.468l4.692,0.204c0.134-0.134,0.204-0.271,0.204-0.408
		c0-0.134-0.204-0.204-0.612-0.204c0.95,0,2.04,0.341,3.264,1.02c-0.816,0-2.008,0.138-3.57,0.407
		c-1.565,0.275-2.754,0.408-3.57,0.408c-0.408,0-1.361-0.475-2.856-1.428c-1.498-0.95-2.381-1.428-2.652-1.428
		c-0.408,0-0.58,0.07-0.51,0.204c0.067,0.137-0.102,0.204-0.51,0.204c-2.314-0.134-6.461-2.652-12.444-7.548
		c-0.682-1.087-1.906-3.06-3.672-5.916c-3.539-5.575-5.646-11.832-6.324-18.768C0.204,111.725,0,108.869,0,107.1
		c0-0.134,0.169-0.475,0.51-1.02c0.338-0.542,0.44-0.95,0.306-1.224c-0.137-5.304,1.734-11.797,5.61-19.482
		c3.876-7.682,8.125-12.546,12.75-14.586c0.816-0.134,1.766-0.408,2.856-0.816c3.398-2.311,5.304-3.331,5.712-3.06
		c-1.224,0.408-2.518,1.294-3.876,2.652c1.087,0.816,2.244,1.224,3.468,1.224c0.816,0,1.664-0.577,2.55-1.734
		c0.883-1.154,1.256-2.142,1.122-2.958c0.542,0,0.883,0.137,1.02,0.408c0.408,0,0.679-0.408,0.816-1.224
		c0,0.274,0.338,0.408,1.02,0.408c0.134,0,1.632-0.781,4.488-2.346c2.856-1.562,4.622-2.48,5.304-2.754
		c1.632-0.679,5.575-1.428,11.832-2.244c3.943-0.542,5.712-0.816,5.304-0.816c0.408,0,1.02,0.274,1.836,0.816
		c0.816,0.545,1.358,0.886,1.632,1.02c0.408,0,1.02-0.134,1.836-0.408c0.816-0.271,1.358-0.408,1.632-0.408
		c0.271,0,0.714,0.102,1.326,0.306c0.612,0.204,1.052,0.306,1.326,0.306c0.408,0,0.848-0.134,1.326-0.408
		c0.475-0.271,0.848-0.408,1.122-0.408c0.271,0,0.746,0.274,1.428,0.816c0.679,0.545,1.154,0.816,1.428,0.816
		c2.174,0.545,3.739,0.816,4.692,0.816c0.271,0,0.577-0.134,0.918-0.408c0.338-0.271,0.644-0.408,0.918-0.408
		c0.408,0,0.816,0.07,1.224,0.204l0.612,0.408c-0.682,0-1.157,0.204-1.428,0.612l-0.204,0.408c1.495,0.137,3.943,0.612,7.344,1.428
		l-0.204,4.488L88.74,68.34c-0.408,0.408-0.612,0.816-0.612,1.224c0.134,0,0.408,0.204,0.816,0.612
		c-0.408-0.134-0.886-0.408-1.428-0.816c-0.682,0.682-1.769,1.769-3.264,3.264l0.204,1.428c0.408-0.134,1.02-0.542,1.836-1.224
		c-0.137,1.09,0.067,1.632,0.612,1.632c0.408,0.137,0.746,0.137,1.02,0h0.612c-0.274,0.408-0.886,1.973-1.836,4.692
		c0,0.408-1.09,2.04-3.264,4.896v1.836c1.224-2.04,3.397-4.896,6.528-8.568c-2.314,5.712-4.284,10.133-5.916,13.26
		c-0.137,0.137-0.07,0.341,0.204,0.612c0.271-0.134,0.612-0.408,1.02-0.816c1.903-4.488,5.371-11.016,10.404-19.584h0.816
		c-0.137,0.408-0.408,1.09-0.816,2.04l0.408,0.816l1.428-1.224c-0.816,1.361-1.836,3.401-3.06,6.12
		c0.134,0.274,0.338,0.408,0.612,0.408c0-0.816-0.137-1.224-0.408-1.224c-0.408,0-1.361,1.157-2.856,3.468L85.476,92.82
		c0.134,0.274,0.134,0.682,0,1.224c-0.137,0.274-0.274,0.749-0.408,1.428l-0.816-0.816c-2.585,2.993-4.15,7.344-4.692,13.056
		l-1.224,12.036c-0.274,0.816-0.408,1.498-0.408,2.04c0,0.816,0.134,1.498,0.408,2.04c0.542-0.408,0.816-1.087,0.816-2.04
		c0.542-1.766,1.154-4.284,1.836-7.548c0.271-1.903,0.679-4.826,1.224-8.772c0.134-0.408,1.154-2.378,3.06-5.916
		c0.408-0.816,1.291-2.923,2.652-6.324c0.95-2.311,2.244-4.214,3.876-5.712l0.612,1.836c-2.314,3.538-4.896,11.494-7.752,23.868
		l0.816,0.816c1.087-6.391,3.535-11.966,7.344-16.728c-1.09,1.906-2.381,4.829-3.876,8.772c-1.498,5.578-2.244,10.066-2.244,13.464
		c-0.137,0.545,0.067,0.816,0.612,0.816c-0.682,0,1.836-1.087,7.548-3.264v1.836c0.271,0.137,0.612,0.204,1.02,0.204
		c1.358,0,5.167-1.699,11.424-5.1l-9.588,6.324c0.408,0.274,0.746,0.408,1.02,0.408c0.542,0,1.087-0.134,1.632-0.408
		c-0.274,0.274-0.749,0.816-1.428,1.632l-1.428-1.428l-6.936,5.304c0.542,0.137,1.428,0.478,2.652,1.02
		c-0.545,0-2.585,0.682-6.12,2.04c0,0.816-0.172,1.906-0.51,3.264c-0.341,1.361-0.51,2.448-0.51,3.264
		c-0.137,1.361,0.612,2.62,2.244,3.774c1.632,1.157,3.194,1.804,4.692,1.938c0.408,0,0.985-0.067,1.734-0.204
		c0.746-0.134,1.326-0.204,1.734-0.204l16.32-6.732c-0.274,0.274-1.702,0.953-4.284,2.04c-1.769,0.816-2.926,1.906-3.468,3.264
		c0.134,0,0.306,0.07,0.51,0.204c0.204,0.137,0.373,0.204,0.51,0.204l17.136-8.976c0.95,0.274,2.448,0.478,4.488,0.612
		c-0.682-0.134,0.612-0.679,3.876-1.632l0.612-0.204c1.358-0.271,3.602-1.02,6.732-2.244c6.254-3.943,9.655-6.05,10.2-6.324
		c0.408,0,0.577,0.07,0.51,0.204c-0.07,0.137,0.032,0.204,0.306,0.204c0.679,0.137,1.358-0.067,2.04-0.612
		c-0.953,0.816-1.632,1.836-2.04,3.06c-1.906,0.408-4.15,1.565-6.732,3.468c-0.137,0.137-0.07,0.341,0.204,0.612
		C144.636,127.366,148.442,125.597,154.836,122.604z M4.896,125.256c-0.953-2.99-1.428-4.622-1.428-4.896
		c0-1.224,0.542-1.766,1.632-1.632L4.896,125.256z M4.284,118.116H3.672v-3.06h0.612V118.116z M21.624,146.064
		c-1.499-0.679-3.809-2.244-6.936-4.692l0.204-0.612l-0.816,0.612l-2.856-3.06C13.802,139.81,17.27,142.392,21.624,146.064z
		 M34.476,153.612c-0.545,1.766-1.769,2.582-3.672,2.448c-1.498,0-4.013-1.225-7.548-3.672c-2.585-1.767-4.488-3.127-5.712-4.081
		c2.856,1.631,7.207,3.875,13.056,6.732c0.134-0.134,0.306-0.235,0.51-0.306c0.204-0.067,0.373-0.169,0.51-0.307
		c-0.682-0.949-1.906-2.039-3.672-3.264c3.398,1.77,5.234,2.723,5.508,2.855C33.864,154.02,34.202,153.887,34.476,153.612z
		 M74.256,69.36h-3.468l0.816,1.02c-0.137,0.137-0.479,0.204-1.02,0.204c-0.545-0.542-0.953-0.883-1.224-1.02
		c0.271,0.408,0.408,0.749,0.408,1.02c0,0.274-0.204,0.479-0.612,0.612c-2.448-0.542-3.468-0.816-3.06-0.816
		c-1.361,0-2.993,0.612-4.896,1.836c-6.528,4.217-10.678,7.752-12.444,10.608c0.408,0,0.95,0.341,1.632,1.02
		c1.087-1.766,3.264-3.535,6.528-5.304c3.264-1.766,5.983-2.582,8.16-2.448c0.542,0,0.883,0.07,1.02,0.204
		c-4.762,1.224-9.588,3.672-14.484,7.344c-0.682,0.274-1.498,0.545-2.448,0.816c-1.77,2.585-4.284,6.12-7.548,10.608
		c-0.137-0.95,1.02-3.468,3.468-7.548c-3.538,5.17-5.916,8.705-7.14,10.608c-2.314,3.809-3.468,6.802-3.468,8.976
		c-2.04,5.304-3.13,9.384-3.264,12.24c0,1.632,0.475,3.742,1.428,6.324c1.358,3.672,3.194,5.508,5.508,5.508
		c1.087,0.137,3.127-0.408,6.12-1.632c2.99-1.224,5.03-1.836,6.12-1.836c0.408,0,0.577,0.07,0.51,0.204
		c-0.07,0.137,0.102,0.274,0.51,0.408c0.408,0,0.95-0.236,1.632-0.714c0.679-0.475,1.154-0.714,1.428-0.714
		c0.542-1.087,0.883-3.194,1.02-6.324c1.087-16.862,4.692-30.326,10.812-40.392c-0.816,0-1.428,0.274-1.836,0.816v-1.632
		c0,0.274-0.274,0.682-0.816,1.224l0.204-2.856c1.224,0,2.04-0.134,2.448-0.408c0.408-0.816,0.883-1.97,1.428-3.468h1.632
		c0.134,0.274,0.204,0.612,0.204,1.02l-0.408,0.816L74.256,69.36z M40.596,152.184c-0.408,0.408-0.612,0.75-0.612,1.021
		c0,0.138,0.067,0.274,0.204,0.408c-2.585-0.134-4.625-0.408-6.12-0.816c0.134,0,0.306-0.169,0.51-0.51
		c0.204-0.338,0.373-0.51,0.51-0.51h1.836C37.332,151.913,38.556,152.051,40.596,152.184z M37.332,109.548l-0.408-0.408
		l-1.224,1.632l0.612,0.408L37.332,109.548z M44.472,151.776c-0.408,0-1.836-0.408-4.284-1.224c0.95,0.137,2.174,0.407,3.672,0.815
		C44.131,151.643,44.335,151.776,44.472,151.776z M49.572,147.9h-4.284v-0.612h4.284V147.9z M54.468,155.652
		c-0.816,0.271-1.906,0.679-3.264,1.224c-0.274-0.137-0.749-0.545-1.428-1.224c0.134-1.633,1.699-2.378,4.692-2.244
		c-0.408,0-1.224,0.341-2.448,1.02l0.816,1.021C53.786,155.448,54.331,155.515,54.468,155.652z M51.816,147.9l-0.204,0.612
		l-1.428-0.612v-0.612L51.816,147.9z M55.896,108.528l-0.408,3.468h-0.816l0.408-3.468H55.896z M72.216,67.116l-0.204-0.612
		l-1.02,0.612l-0.204,0.612L72.216,67.116z M80.172,64.872c-1.498-0.408-2.789-0.612-3.876-0.612
		c-1.361-0.134-3.13,0.204-5.304,1.02c1.087,0.816,1.632,1.498,1.632,2.04c0.679,0,1.358,0.137,2.04,0.408
		c1.224,0.816,1.903,1.224,2.04,1.224c0.408-0.816,0.918-1.699,1.53-2.652C78.846,65.35,79.49,64.872,80.172,64.872z M77.52,71.196
		c0.271,0,0.408,0.07,0.408,0.204c-0.137,0.274-0.408,0.682-0.816,1.224l-1.632-1.02c0.134,0.137,0.475,0.102,1.02-0.102
		C77.042,71.298,77.383,71.196,77.52,71.196z M76.704,139.128v-1.632h-0.816v1.632H76.704z M76.908,136.476v-1.632h-0.816v1.632
		H76.908z M86.292,65.892c1.087,0.137,0.408,0.035-2.04-0.306c-2.448-0.338-3.809-0.51-4.08-0.51
		c-0.408,1.361-1.224,2.789-2.448,4.284c0.679,0,1.087,0.137,1.224,0.408c-0.545,0.545-0.816,0.886-0.816,1.02
		c0.134,0,0.338-0.067,0.612-0.204c0.271-0.134,0.542-0.204,0.816-0.204c0.408,0,0.612,0.172,0.612,0.51
		c0,0.341,0.067,0.51,0.204,0.51c-0.274,0.274-0.408,0.816-0.408,1.632c0.542-0.271,2.107-0.746,4.692-1.428
		c-0.274,0-0.478-0.134-0.612-0.408C84.727,70.109,85.476,68.34,86.292,65.892z M79.152,133.824L78.54,132.6l-0.612,0.204
		l0.612,1.02H79.152z M84.252,46.512l-0.204,5.508c0,2.314-1.02,3.742-3.06,4.284c-1.224-1.358-1.836-3.535-1.836-6.528
		c0.134-2.99,1.154-4.418,3.06-4.284C82.754,45.492,83.436,45.833,84.252,46.512z M82.212,67.728l-1.02,1.02l-0.408-0.612
		l1.224-0.816L82.212,67.728z M85.476,115.26H84.66l-1.02,6.12h0.612L85.476,115.26z M89.556,73.236
		c-0.682,0-1.428-0.338-2.244-1.02c0.134,0,0.408-0.102,0.816-0.306c0.408-0.204,0.746-0.306,1.02-0.306
		c0,0.408,0.067,0.749,0.204,1.02L89.556,73.236z M92.412,93.84l-3.468,5.1l-0.612-0.408l3.468-5.1L92.412,93.84z M90.372,108.528
		l-1.224,4.284l-0.816-0.204l1.428-4.08H90.372z M109.344,58.344c0,0.953-1.906,3.197-5.712,6.732
		c-1.769-0.542-4.15-1.562-7.14-3.06c-0.274-0.542-0.749-1.428-1.428-2.652c0.271-0.408,0.475-1.224,0.612-2.448
		c0.134-1.495-0.137-2.244-0.816-2.244c-0.274,0-0.58,0.07-0.918,0.204c-0.341,0.137-0.647,0.137-0.918,0
		c-1.361,0-2.722-1.358-4.08-4.08c1.903-2.174,3.876-3.194,5.916-3.06c0.271,0,0.95,0.376,2.04,1.122
		c1.087,0.75,1.836,1.122,2.244,1.122c0.542,0.137,1.291,0.137,2.244,0c0.95-0.134,1.699-0.204,2.244-0.204
		c1.087,0.137,2.311,1.294,3.672,3.468C108.662,55.421,109.344,57.12,109.344,58.344z M91.188,72.624h-1.02v-0.612h1.02V72.624z
		 M97.308,81.396L94.86,84.66l-0.612-0.408l2.448-3.264L97.308,81.396z M96.9,78.54l-1.224,2.04l-0.612-0.204l1.224-2.04L96.9,78.54
		z M99.144,78.132l-1.224,0.816l-0.408-0.408l1.224-1.02L99.144,78.132z M102.612,122.604c-0.274-0.271-0.478-0.612-0.612-1.02
		c-0.274,0.137-0.953,0.816-2.04,2.04c0.271,0.274,0.679,0.749,1.224,1.428C101.184,124.51,101.659,123.694,102.612,122.604z
		 M105.468,123.42l-1.836,1.632l1.632,0.204C105.264,124.169,105.331,123.557,105.468,123.42z M148.308,94.86
		c0,0.274-0.07,0.647-0.204,1.122c-0.137,0.479-0.204,0.784-0.204,0.918h-2.04c-0.274-0.408-0.816-1.224-1.632-2.448
		c0,0.274-0.274,0.612-0.816,1.02c0.679-0.271,1.02-0.883,1.02-1.836c0-0.542-0.07-1.393-0.204-2.55
		c-0.137-1.154-0.204-2.005-0.204-2.55c0-0.679,0.067-1.291,0.204-1.836l2.04,0.204c0.271,0.953,0.542,2.856,0.816,5.712
		C147.9,93.432,148.308,94.181,148.308,94.86z"/>
	<path fill="#6E7171" d="M196.042,114.852c0,5.033-1.157,9.18-3.468,12.444c-0.816,1.224-1.906,3.13-3.264,5.712
		c-0.816,1.09-4.15,4.013-9.996,8.772c0.134-0.408,0.475-1.02,1.02-1.836c0-0.134,0.067-0.204,0.204-0.204h-1.02
		c1.087,0-0.341,0.612-4.284,1.836c0.95-0.542,2.311-1.495,4.08-2.856c0.134-0.271,0.067-0.542-0.204-0.816l-26.112,13.464
		c-0.137-0.542-0.408-0.815-0.816-0.815c-1.906,0-7.344,1.973-16.32,5.915c-0.408,0.134-1.224,0.816-2.448,2.04
		c0-0.953,0.134-1.428,0.408-1.428c-0.816,0.816-1.361,1.97-1.632,3.468c-0.274-0.137-0.816-0.545-1.632-1.224
		c-4.488,1.766-6.598,4.963-6.324,9.588c-0.274,0-0.647-0.172-1.122-0.51c-0.478-0.341-0.851-0.51-1.122-0.51
		c-0.274,0.407-1.09,2.243-2.448,5.508h-1.02c-0.137-1.361-0.137-2.993,0-4.896c-0.274-0.545-0.612-0.953-1.02-1.224
		c-0.274,0.271-0.408,0.746-0.408,1.428c0-0.682-0.204-1.157-0.612-1.428c-0.274,0.271-1.02,1.291-2.244,3.06
		c0.134-2.313,0.134-3.809,0-4.487c-0.408,0-0.682,0.203-0.816,0.611c-0.274,1.225-0.953,2.99-2.04,5.305
		c-0.137-0.138-0.341-1.225-0.612-3.265c-0.408-1.498-0.204-2.789,0.612-3.876c-0.953-1.09-1.903-1.632-2.856-1.632
		c-0.542,0-1.154,0.067-1.836,0.204c-0.679,0.134-1.224,0.204-1.632,0.204v-3.061c1.498-0.273,3.468-0.815,5.916-1.632
		c0.679-1.906,2.311-6.253,4.896-13.056c1.495-3.943,3.264-8.976,5.304-15.096v-0.612c-0.545,0.408-1.02,1.09-1.428,2.04
		c5.846-19.176,11.22-40.526,16.116-64.056c3.127-15.775,4.896-27.744,5.304-35.904c0-1.087,0-2.582,0-4.488
		c0-1.903-0.07-3.331-0.204-4.284c0-0.95,0-1.087,0-0.408v-3.264c0.271,0.953,0.816,2.244,1.632,3.876
		c0.816-1.358,1.224-2.856,1.224-4.488c0-1.224-0.204-2.448-0.612-3.672c0.134-0.679,0.816-2.174,2.04-4.488
		c-0.408,4.217-0.612,7.14-0.612,8.772c0.408-0.816,1.224-2.311,2.448-4.488c0.679-0.816,1.766-1.903,3.264-3.264
		c0.271,0.274,0.746,1.09,1.428,2.448c0.271-0.134,0.475-0.612,0.612-1.428v1.428c1.224,0,2.107,0.137,2.652,0.408
		c0.271-0.271,0.51-0.714,0.714-1.326c0.204-0.612,0.373-0.985,0.51-1.122c-0.137,0.682-0.137,2.04,0,4.08
		c0.95-0.408,1.699-1.154,2.244-2.244l-1.224-1.428c0.816,0.545,2.04,1.361,3.672,2.448c0.679-1.358,1.02-2.786,1.02-4.284
		c0.134,0.816,0.408,1.973,0.816,3.468c0.134-0.816,0.475-1.632,1.02-2.448c0.271,1.498,0.883,3.742,1.836,6.732h0.204
		c0.134-2.04,0.612-4.622,1.428-7.752c0.679-1.358,1.699-2.04,3.06-2.04c0.816,0,1.699,1.224,2.652,3.672
		c-1.77,0-2.856,0.816-3.264,2.448c-0.408,1.224-0.408,2.722,0,4.488c0.679,4.354,1.02,8.638,1.02,12.852
		c0,6.936-1.02,13.534-3.06,19.788c0-0.542-0.274-1.154-0.816-1.836c-0.408,2.04-1.157,5.1-2.244,9.18
		c-0.274-0.271-0.545-0.408-0.816-0.408c-0.545,1.09-1.157,2.722-1.836,4.896c0.134,0.682,0.204,1.769,0.204,3.264
		c-0.545,0.682-1.294,1.836-2.244,3.468v-2.04c-0.137-0.134-0.274,0-0.408,0.408c-0.682,2.448-2.11,7.21-4.284,14.28
		c1.358-0.134,4.214-0.134,8.568,0c4.896,0.274,8.772,0.886,11.628,1.836c5.846,2.177,10.742,6.12,14.688,11.832
		C194.069,102.612,196.042,108.598,196.042,114.852z M138.515,16.116c-0.274,0.408-0.545,1.565-0.816,3.468
		c-0.408-0.816-0.953-2.174-1.632-4.08c0.542,0.545,0.883,0.816,1.02,0.816h1.02C138.24,16.186,138.377,16.116,138.515,16.116z
		 M137.699,136.272h-0.612l-1.02,2.448l0.612,0.204L137.699,136.272z M139.535,130.56c-0.816,0.682-1.428,2.177-1.836,4.488
		c-0.274,0-0.479,0.07-0.612,0.204c0.134,0.274,0.338,0.612,0.612,1.02C138.922,133.416,139.535,131.513,139.535,130.56z
		 M169.931,120.156c0-1.087-0.408-2.652-1.224-4.692l-1.02,3.264c0-1.766-0.612-4.08-1.836-6.936c0,1.361-0.137,2.244-0.408,2.652
		c0-0.679-0.816-1.766-2.448-3.264h1.632c-0.682-2.174-4.354-3.264-11.016-3.264c-2.585,0-4.15,0.545-4.692,1.632
		c0.95,0,2.378,0.341,4.284,1.02l-4.488,1.02c-1.361,4.217-3.401,10.2-6.12,17.952c0-0.271,0.067-0.408,0.204-0.408
		c0.134,0.274,0.204,0.682,0.204,1.224c0,0.682-0.306,1.769-0.918,3.264c-0.612,1.498-0.918,2.381-0.918,2.652
		c0.679-0.816,1.358-1.903,2.04-3.264c0.271,0.274,0.338,0.478,0.204,0.612c0-0.408-0.274-0.134-0.816,0.816
		c-0.682,1.224-1.294,2.04-1.836,2.448l-0.408,0.408c-0.137,1.498-0.408,2.722-0.816,3.672c0-0.679,0.408-1.02,1.224-1.02
		c0.271,1.09-0.341,2.585-1.836,4.488h1.632c-0.682,0.953-1.499,2.244-2.448,3.876c2.04-0.679,4.214-2.04,6.528-4.08
		c-1.498,1.09-2.585,1.498-3.264,1.224c0.816-0.679,1.632-1.291,2.448-1.836c-1.498,0.545-2.448,0.682-2.856,0.408
		c4.351-2.582,10.675-6.187,18.972-10.812l-4.284,1.224c2.582-1.903,5.167-3.739,7.752-5.508c3.127-2.311,4.896-4.622,5.304-6.936
		C169.522,120.089,169.931,119.477,169.931,120.156z M145.858,112.2c-0.408,0.137-0.886,0.408-1.428,0.816
		c-1.224,3.672-2.856,9.113-4.896,16.32l1.02,0.612L145.858,112.2z M140.962,143.004l-0.816,1.02l-0.612-0.408l1.224-1.224
		L140.962,143.004z M143.207,13.26h-0.612v-2.04h0.612V13.26z M146.063,126.888l-1.224,2.244l-0.816-0.204l1.428-2.244
		L146.063,126.888z M147.287,108.732c-1.361,0.682-2.04,1.224-2.04,1.632h1.632C146.878,109.685,147.012,109.14,147.287,108.732z
		 M146.471,111.384v-0.816h-1.224v0.816H146.471z M148.714,12.852h-0.816l-0.408-1.836h0.612L148.714,12.852z M150.958,113.628
		c-0.816,0-1.428,0.479-1.836,1.428c0.271-1.358,0.679-2.378,1.224-3.06C150.347,112.678,150.55,113.22,150.958,113.628z
		 M153.203,0.816l-0.408,0.612l-1.02-1.02L152.183,0L153.203,0.816z M152.794,84.048v-1.224h-0.816v1.224H152.794z M153.203,82.62
		v-1.428h-0.816v1.428H153.203z M153.61,80.988v-2.04h-0.612v2.04H153.61z M154.426,82.62l-0.612-0.204l-0.612,1.428l0.612,0.204
		L154.426,82.62z M159.119,75.48l-0.612,2.244h-0.612l0.408-2.244H159.119z M159.526,74.664h-0.816v-1.428h0.816V74.664z
		 M164.422,63.852h-0.612V62.22h0.612V63.852z M172.583,35.496h-1.02V32.64h1.02V35.496z M172.787,20.604h-0.612V19.38h0.612V20.604
		z M172.787,31.416h-0.612V21.012h0.612V31.416z M177.683,142.596l-2.04,1.02v-0.612l1.836-1.02L177.683,142.596z M189.106,113.424
		c0-2.448-1.09-5.438-3.264-8.976c0,0.682-0.137,1.157-0.408,1.428c-0.137-1.224-1.157-2.754-3.06-4.59
		c-1.906-1.836-3.468-2.958-4.692-3.366c7.615,6.12,11.15,12.922,10.608,20.4C188.833,116.554,189.106,114.922,189.106,113.424z
		 M182.579,80.172l0.612,0.612h1.428c-0.545,0-0.341-0.271,0.612-0.816c1.224,0.408,1.495,1.157,0.816,2.244
		c-0.682,1.499-0.749,2.722-0.204,3.672c0.679,0.408,1.495,1.157,2.448,2.244l3.06,0.612c1.358,0,1.766-0.679,1.224-2.04
		c0.408-0.271,1.02-1.699,1.836-4.284c0.542,0.545,0.883,0.816,1.02,0.816c1.766,0,2.652-0.883,2.652-2.652
		c0-2.448-1.157-3.672-3.468-3.672c-0.137,0-0.306,0.102-0.51,0.306c-0.204,0.204-0.376,0.306-0.51,0.306
		c-0.137,0-0.545-0.236-1.224-0.714c-0.682-0.475-1.09-0.714-1.224-0.714c-0.682,0-1.836,0.478-3.468,1.428
		c-0.274,0.274-0.886,0.749-1.836,1.428c-0.137,0-0.204-0.067-0.204-0.204c0-1.358-0.545-2.04-1.632-2.04
		c-0.408,0-0.886,0.408-1.428,1.224V80.172z M187.475,131.172l-0.408-0.408l-3.876,4.08l0.204,0.408L187.475,131.172z
		 M186.046,83.028l0.612-0.204v0.204l-0.408,0.204L186.046,83.028z"/>
	<path fill="#6E7171" d="M292.533,93.024c0,2.448-1.021,6.053-3.061,10.812c-0.815,2.314-1.973,5.986-3.468,11.016
		c-1.632,1.769-3.946,4.762-6.936,8.976l1.02-2.04c0.816-1.495,1.087-2.378,0.816-2.652c-1.09,1.498-2.585,3.946-4.488,7.344
		c-0.815,0.682-2.04,1.973-3.672,3.876c-0.816,1.499-1.973,3.672-3.468,6.528c-3.538,5.033-7.481,9.113-11.832,12.24
		c-7.481,5.578-12.444,8.364-14.893,8.364c-0.407,0-1.02-0.137-1.836-0.408c-0.815-0.274-1.36-0.408-1.632-0.408
		c-1.09,0-2.62,0.236-4.59,0.714c-1.973,0.476-3.503,0.715-4.59,0.715c-4.08,0-8.434-2.178-13.056-6.528l-4.08-0.816
		c-0.137,0.408-0.204,0.953-0.204,1.633c0,0.682,0.067,1.498,0.204,2.447c-1.361-1.766-3.197-4.08-5.508-6.936
		c-0.137-0.679-0.478-1.903-1.02-3.672c-0.408-0.271-0.816-0.542-1.224-0.816c-0.274-1.766-0.682-4.488-1.224-8.16
		c0.679-0.816,1.02-1.428,1.02-1.836c-1.361-3.127-2.244-5.779-2.652-7.956c0.408-0.408,0.408-4.08,0-11.016
		c1.224-9.926,3.739-19.718,7.548-29.376c1.495-4.214,4.418-8.635,8.772-13.26c4.622-5.438,8.772-8.568,12.444-9.384
		c0.542,0,3.127-1.087,7.752-3.264c-9.384,3.809-16.865,9.725-22.439,17.748c-0.137,0.137,0,0.408,0.408,0.816l1.02-0.816
		c-1.769,1.906-3.197,4.217-4.284,6.936l0.816,0.408c4.214-5.846,11.083-12.036,20.604-18.564c-0.407,0-1.564,0.341-3.468,1.02
		c8.702-5.167,15.434-7.682,20.196-7.548c-0.138,0-0.408,0.204-0.816,0.612c0.408,0.274,0.883,0.408,1.428,0.408
		c0.68,0,1.699-0.134,3.061-0.408c1.357-0.271,2.378-0.408,3.06-0.408c0.408,0,1.326,0.478,2.754,1.428
		c1.429,0.953,2.276,1.428,2.551,1.428c0.542,0,0.78-0.102,0.714-0.306c-0.07-0.204,0.031-0.306,0.306-0.306
		c0.408,0.137,0.985,0.581,1.734,1.326c0.746,0.749,2.754,2.958,6.018,6.63c0.542,1.224,1.903,2.856,4.08,4.896l0.816-0.816
		c-0.953-0.408-1.326-0.95-1.122-1.632c0.204-0.679,0.031-1.224-0.51-1.632c2.174,0,3.806,0.478,4.896,1.428
		c0.816-0.95,1.224-1.562,1.224-1.836c0.542,1.498,1.633,3.06,3.265,4.692c0.949,1.09,2.378,4.558,4.284,10.404
		c0,0.545,0.066,1.428,0.203,2.652c0.271,0.545,0.884,1.09,1.837,1.632C292.125,90.576,292.533,91.8,292.533,93.024z M223.173,71.4
		l-2.652,2.856l-0.204-0.612l2.448-2.448L223.173,71.4z M226.437,69.36l-2.652,2.04l-0.204-0.816l2.448-1.836L226.437,69.36z
		 M258.873,88.944c-1.361-2.04-2.177-3.602-2.448-4.692c-1.769,1.224-4.625,3.538-8.567,6.936c0.134-0.816,0.679-1.836,1.632-3.06
		c-6.257,7.752-10.813,16.39-13.668,25.908c-0.545-0.816-0.887-1.224-1.021-1.224c-0.953,0-1.871,1.632-2.754,4.896
		c-0.886,3.264-1.326,5.578-1.326,6.936c0,2.722,0.612,6.257,1.836,10.608c5.438-1.495,10.676-5.508,15.708-12.036
		c5.03-6.528,7.479-12.444,7.345-17.748c0.542,0.274,0.949-0.134,1.224-1.224l0.612-1.428c-1.091-0.408-2.244-0.883-3.468-1.428
		c0.134-0.679,0.203-1.224,0.203-1.632c0-1.358-2.177-2.582-6.527-3.672l5.1-0.204c0.679,0.274,1.632,0.886,2.856,1.836
		c0.134-0.408,0.338-0.883,0.611-1.428c-0.815,0-1.294-0.067-1.428-0.204c0.679-0.679,0.95-1.224,0.816-1.632
		c-0.545-0.408-1.294-0.95-2.244-1.632c2.04-0.679,3.397-1.562,4.08-2.652c-0.408-0.542-0.953-1.154-1.632-1.836
		c0.407,0,0.949,0.102,1.632,0.306C258.124,88.842,258.598,88.944,258.873,88.944z M240.716,59.16h-1.224v-0.816h1.224V59.16z
		 M249.489,59.364c-1.498,0.408-4.559,1.428-9.18,3.06h1.836C242.96,62.561,245.409,61.541,249.489,59.364z M243.369,58.14h-1.224
		v-0.816h1.224V58.14z M252.344,102h-1.02v-0.816h1.02V102z M288.657,68.544h-0.816v-1.836h0.816V68.544z"/>
	<path fill="#6E7171" d="M376.579,165.444c-0.407-0.138-1.156-0.172-2.243-0.103c-1.091,0.067-1.837,0.103-2.244,0.103
		c-0.274,0-1.056-1.09-2.347-3.265c-1.294-2.177-2.008-3.334-2.142-3.468c-0.953,0.542-1.498,1.087-1.632,1.632
		c-0.138,0.68,0.408,1.836,1.632,3.469c-0.274,0.949-0.274,1.902,0,2.855c-0.274,1.495-1.09,2.244-2.448,2.244
		c-0.408,0-0.714-0.07-0.918-0.204c-0.204-0.137-0.376-0.204-0.51-0.204c-0.274,0.271-0.479,0.612-0.612,1.021
		c0,0.271,0.067,0.475,0.204,0.611l-1.02-1.02c-0.953,0-1.498,0.408-1.633,1.224l-0.203,1.836c-0.408,0-0.953-0.137-1.633-0.407
		c-0.682-0.274-1.294-0.408-1.836-0.408c0.408,0.542,0.883,1.357,1.429,2.448l-0.204,1.632h-1.632
		c-0.683-1.77-1.77-4.421-3.265-7.956c-2.313,0.679-3.809,1.087-4.487,1.224c-1.906,0-2.789-3.468-2.652-10.404
		c0-0.952,0.066-4.487,0.204-10.607c-0.138,0.274-0.408,0.682-0.816,1.224c-1.361,0.545-3.13,1.361-5.304,2.448
		c-5.712,2.04-9.929,3.13-12.648,3.265l-5.304,0.203c-1.224,0-3.264-0.679-6.12-2.04c-0.545-0.271-1.224-0.679-2.04-1.224
		c-6.665-2.856-11.22-8.772-13.668-17.748c-1.906-7.478-2.177-15.638-0.815-24.48c0.134-0.816,0.306-2.107,0.51-3.876
		c0.204-1.766,0.373-3.194,0.51-4.284c0.271-1.632,2.923-9.314,7.956-23.052c1.903-5.03,4.01-8.431,6.324-10.2
		c0.134,1.09,0.408,2.518,0.815,4.284c0.134-0.134,1.225-1.495,3.265-4.08c1.632-2.311,2.923-3.468,3.876-3.468
		c0.542,0,1.153,0.137,1.836,0.408c0.134,0.274,0.271,0.612,0.408,1.02l-0.204,1.428c0.134,0.545,0.407,1.428,0.815,2.652
		c0.816,2.04,2.107,2.993,3.876,2.856c-1.09,0.137,0.338-0.475,4.284-1.836c0.134,0.545,0.134,1.498,0,2.856
		c-0.274,1.498-0.749,3.264-1.428,5.304c-0.138,0.408-0.138,0.886,0,1.428c-0.683,3.264-1.77,7.685-3.264,13.26
		c-0.408,1.361-0.546,2.585-0.408,3.672l0.204,0.612c-1.361,7.752-1.906,13.601-1.633,17.544c0.408,6.257,2.516,12.31,6.324,18.156
		l-0.204,0.408c0.816,0.137,1.767,0.545,2.856,1.224c0.134,0.274,0.338,0.408,0.612,0.408c0.541,0,3.397-1.562,8.567-4.692
		c0.408,0,0.746,0.204,1.021,0.612c-0.683,1.09-1.295,1.769-1.836,2.04c0.134,0.137,0.407,0.274,0.815,0.408
		c0,0.816,0.746,1.632,2.244,2.448c0.542-1.766,1.087-4.418,1.632-7.956c-0.273-0.679-0.408-1.087-0.408-1.224l0.816-1.02
		c0.95-9.247,4.351-22.099,10.2-38.556c1.766-4.896,4.555-11.762,8.364-20.604l1.02,1.02c-0.682,1.632-1.428,3.605-2.244,5.916
		l-0.612,3.06c-0.137,0.274,0.067,0.408,0.612,0.408c1.087,0,2.276-1.224,3.57-3.672c1.291-2.448,2.005-3.672,2.142-3.672
		c0.542,0,0.95,0.07,1.225,0.204l0.204,0.204l1.428-3.672c-0.138,0.953-0.138,2.04,0,3.264c0.815-0.408,1.632-1.766,2.448-4.08
		l2.04-0.816c1.357,1.361,1.97,2.11,1.836,2.244c0.541,0,0.78-0.067,0.714-0.204c-0.07-0.134,0.031-0.204,0.306-0.204
		c0.408,0,0.816,0.479,1.224,1.428c0.408,0.953,0.746,1.498,1.021,1.632c-0.137,0.408-0.683,1.294-1.632,2.652
		c-0.408,0.816-0.408,1.702,0,2.652c-0.138,0.137-0.07,0.341,0.204,0.612c0.815-0.271,1.97-1.087,3.468-2.448l-0.204,0.612
		c0.134,0.137,0.338,0.478,0.612,1.02c-0.408,1.09-0.749,2.314-1.021,3.672c-0.274,1.906-0.478,4.08-0.612,6.528l0.408,0.204
		c0.134-0.542,0.476-1.02,1.021-1.428c-0.274,0.953-2.519,9.658-6.732,26.112c-1.906,7.752-3.06,14.621-3.468,20.604
		c-0.137,1.498-0.683,4.625-1.632,9.384c-0.138,0.408,0,0.886,0.408,1.428l-0.204,1.428c-0.274,0.137-0.612,0.204-1.021,0.204
		s-0.749-0.134-1.02-0.408l-1.429,0.204C370.185,156.127,371.546,163.404,376.579,165.444z M337.615,81.6l-2.04,5.712
		c-1.498,4.762-2.381,7.685-2.651,8.772c-0.138,0.953-0.274,2.381-0.408,4.284c-0.545,2.177-1.361,3.742-2.448,4.692
		c-0.682-4.08-0.815-7.411-0.408-9.996c0.271-1.224,0.816-3.127,1.632-5.712c0.816-2.582,1.291-4.351,1.429-5.304
		c0.542-1.632,1.495-3.876,2.855-6.732c0.134,0.274,0.408,0.612,0.816,1.02c0.542-0.542,1.153-0.816,1.836-0.816L337.615,81.6z"/>
	<path fill="#6E7171" d="M396.772,131.988c-0.273,1.498-0.886,2.177-1.836,2.04c-0.273,0-1.294-0.95-3.06-2.856
		c0.134-0.816-0.408-1.766-1.632-2.856c-0.138-0.816-0.204-1.291-0.204-1.428c0.408,0,0.816,0.274,1.224,0.816l1.632-1.224
		c0.68-0.542,1.154-0.816,1.429-0.816C395.82,125.938,396.635,128.045,396.772,131.988z M394.121,30.396
		c0,0.274-0.103,0.612-0.307,1.02c-0.203,0.408-0.306,0.682-0.306,0.816c-0.682-0.134-1.361-0.134-2.04,0
		c-0.545-0.542-0.749-0.883-0.611-1.02c0-0.271,0.203-0.781,0.611-1.53c0.408-0.746,0.612-1.256,0.612-1.53
		c0.542,0,1.357,0.137,2.448,0.408L394.121,30.396z M497.957,64.872l-3.876,1.836c-0.137,0.545,0.338,1.157,1.428,1.836
		c0,0.274-0.274,0.682-0.815,1.224c-2.448,0.274-5.986,0.478-10.608,0.612c-0.816,0-1.565,0.274-2.244,0.816
		c1.087,0.274,2.244,0.545,3.468,0.816c1.225,0.137,2.448,0.204,3.672,0.204c-1.498,0.274-3.741,0.612-6.731,1.02
		c-1.361,0.545-3.334,1.09-5.916,1.632c0.134,0.274,0.338,0.341,0.612,0.204c2.311-0.271,3.602-0.408,3.876-0.408
		c0.949,0,4.214-0.134,9.792-0.408l0.815,0.408L490,75.684l-25.704,2.856c-9.384,0.953-17.885,1.565-25.5,1.836l-0.408,0.408
		c-0.137,0.137-1.564,4.15-4.284,12.036c-1.769,5.17-2.992,9.725-3.672,13.668c-2.04,13.33-1.157,24.005,2.652,32.028
		c7.07-4.214,10.404-6.324,9.996-6.324c0.542,0,1.428,0.714,2.652,2.142c1.224,1.428,2.106,2.212,2.651,2.346
		c0.271,0,0.408-0.067,0.408-0.204c0-0.134,0.134-0.134,0.408,0c0.271,0.137,0.679,0.545,1.224,1.224
		c0.816-0.679,5.167-2.99,13.056-6.936c-7.889,8.705-17.136,15.029-27.743,18.972c-0.546,0.273-0.816,0.545-0.816,0.816l0.408,0.611
		c2.719-0.134,9.518-3.398,20.399-9.792l-10.607,7.956c-6.803,4.896-11.29,7.14-13.464,6.732c-0.408,0-1.53-0.816-3.366-2.448
		s-2.824-2.652-2.958-3.06c-1.361,0.407-2.11,1.156-2.244,2.243l-2.448-0.407c-1.36-0.271-4.487-4.147-9.384-11.628
		c-1.906-2.99-2.855-8.906-2.855-17.748c0.134-6.391,0.679-12.648,1.632-18.768c0.271-1.766,2.04-9.247,5.304-22.44
		c-3.401,0.545-5.916,0.682-7.548,0.408c-0.953-0.134-2.519-0.679-4.692-1.632c-2.177-0.95-3.876-1.495-5.1-1.632l-5.508-0.816
		c-0.953,0-1.225,0-0.816,0c0-0.408,0.204-0.883,0.612-1.428c1.224-0.408,2.311-0.542,3.264-0.408
		c0.542,0.137,1.428,0.341,2.652,0.612c1.224,0.274,2.106,0.478,2.651,0.612l0.612-0.408c-0.274-0.408-1.157-1.02-2.652-1.836
		c0.68,0,1.837-0.067,3.469-0.204c-3.946-3.943-6.258-5.983-6.937-6.12c-0.408,0-1.702,0.137-3.876,0.408
		c0.134-0.408,0.476-0.542,1.021-0.408c0.134-0.134,0-0.408-0.408-0.816c1.087-1.087,2.174-2.174,3.264-3.264
		c2.856,0,4.352-0.475,4.488-1.428c0.271-1.224,0.066-1.836-0.612-1.836c-1.09-0.134-1.973-0.612-2.651-1.428
		c1.224-0.134,3.06-0.475,5.508-1.02l-0.612-0.816c0.816-0.408,2.107-1.087,3.876-2.04c0.271-0.408,0.204-0.612-0.204-0.612
		c0.816,0.137,1.291,0.408,1.428,0.816c0.95-0.271,1.563-1.087,1.837-2.448c0.949-0.408,2.311-0.746,4.079-1.02
		c2.582-0.271,6.458-0.746,11.629-1.428c0.541-1.087,2.174-5.846,4.896-14.28l0.408-2.856c0.134-0.542,0.746-1.903,1.836-4.08
		l0.204-2.04c0.408-1.087,1.153-2.786,2.244-5.1c0.134-0.542,0.407-1.358,0.815-2.448c1.087-1.224,1.836-2.378,2.244-3.468
		c1.632,1.09,3.468,2.381,5.508,3.876c0.816-0.679,1.97-1.632,3.469-2.856c0,0.545,0.541,2.11,1.632,4.692
		c0.542-1.224,1.428-3.264,2.651-6.12l1.021,0.408c0,1.09,0.475,2.789,1.428,5.1c0.271,1.906,0.408,3.946,0.408,6.12
		c0,3.401,0.134,4.966,0.408,4.692l-0.408,1.836h-0.612c-0.815,3.401-2.177,8.501-4.08,15.3c0.134,0.274,0.338,0.612,0.612,1.02
		c0.271,0,0.612-0.204,1.02-0.612c-0.137,0.545,0.067,0.886,0.612,1.02c0.95,0.137,2.515,0,4.692-0.408
		c1.902,0.137,4.963,0.204,9.18,0.204c5.304,0,8.364-0.067,9.18-0.204c-0.815,1.498-1.836,2.177-3.06,2.04l-3.061-0.408
		l-0.611,0.204c0.408,0.545,1.02,0.886,1.836,1.02c0.542,0,1.428-0.134,2.652-0.408c1.224-0.271,2.106-0.338,2.651-0.204
		c0.271,0,0.338,0.137,0.204,0.408c-0.137,0.274,0,0.408,0.408,0.408c-0.953-0.134,1.699-0.542,7.956-1.224c0.949,0,4.146,0,9.588,0
		c-0.408,0-1.326,0.306-2.754,0.918s-2.346,0.851-2.754,0.714c-2.993-0.408-5.646-0.204-7.956,0.612
		c0.408,0.545,0.815,0.816,1.224,0.816c6.391,1.09,8.977,1.361,7.752,0.816c0.408,0.545,1.495,1.973,3.265,4.284
		c0,0.408,0.066,0.816,0.203,1.224c1.087,0.545,1.429,0.75,1.021,0.612c0.95,0.137,2.855,0.137,5.712,0l0.408,0.408L497.957,64.872z
		 M394.733,74.868l-2.856-0.408c0.408-0.134,0.816-0.338,1.224-0.612C393.642,74.53,394.187,74.868,394.733,74.868z M432.472,16.932
		c-0.815,0.545-1.294,0.816-1.428,0.816l-2.448-0.408c-0.137-0.134-0.306-0.408-0.51-0.816c-0.204-0.408-0.376-0.679-0.51-0.816
		c-0.816,0.137-1.498,0.647-2.04,1.53c-0.545,0.886-0.683,1.6-0.408,2.142c0.95,3.13,0.746,5.304-0.612,6.528
		c-1.224,0.816-2.993,1.973-5.304,3.468c-4.217,0.274-6.19,0.479-5.916,0.612c-0.816-0.134-1.428-0.644-1.836-1.53
		c-0.408-0.883-0.408-1.734,0-2.55c-0.408-0.542-0.953-1.428-1.632-2.652c-0.138-1.358-0.341-3.264-0.612-5.712
		c-0.953,0.816-1.702,1.157-2.244,1.02c-3.4-0.542-4.829-2.311-4.284-5.304c0.271-1.495,1.225-2.923,2.856-4.284
		c1.632-1.358,3.194-1.903,4.692-1.632c0.271,0,0.611,0.137,1.02,0.408c0.408,0.274,0.746,0.479,1.021,0.612
		c0.271,0,1.153-0.306,2.651-0.918c1.495-0.612,2.378-0.848,2.652-0.714c1.087,0.137,3.06,1.294,5.916,3.468
		c0.542,0.816,1.562,2.04,3.06,3.672c0.408-0.816,1.087-1.766,2.04-2.856c0.816-0.679,1.495-0.95,2.04-0.816
		c0.95,0.137,1.766,1.02,2.448,2.652L432.472,16.932z M413.296,35.496l-3.672-1.428l0.204-0.408l3.468,1.224V35.496z
		 M416.357,44.676c-0.274,1.361-1.021,1.906-2.244,1.632c-2.178-0.271-3.605-1.358-4.284-3.264c0.679-1.495,1.495-2.174,2.448-2.04
		C415.266,41.412,416.627,42.636,416.357,44.676z M424.72,21.216l-0.408-0.612l-0.407,0.204l0.407,0.612L424.72,21.216z
		 M431.453,25.5l-7.548,22.236l6.12-24.48C430.295,23.393,430.77,24.142,431.453,25.5z M435.737,120.156
		c-0.683,0-1.157-0.338-1.429-1.02c-0.407-1.495-0.478-3.06-0.204-4.692c-0.137,1.09,1.087-3.672,3.673-14.28
		c-0.408,1.906-0.715,5.135-0.918,9.69C436.655,114.412,436.279,117.845,435.737,120.156z M451.241,46.104l-0.816,3.264h-0.815
		l1.02-3.468L451.241,46.104z M453.485,21.216h-0.612l0.204-0.816h0.611L453.485,21.216z M465.928,22.032
		c-0.137,1.361-1.224,2.518-3.264,3.468c-0.408-0.542-0.612-0.95-0.612-1.224c0.134-0.542,0.645-1.291,1.53-2.244
		c0.883-0.95,1.597-1.495,2.142-1.632C465.996,20.808,466.062,21.353,465.928,22.032z M491.428,22.236
		c-1.224,0.816-2.177,1.157-2.855,1.02l-0.408-0.408l0.204-1.224c0.271-0.271,1.224-0.746,2.855-1.428l0.612,0.408L491.428,22.236z"
		/>
</g>
</svg>
