<?xml version="1.0" encoding="utf-8"?>
<!-- Generator: Adobe Illustrator 16.0.0, SVG Export Plug-In . SVG Version: 6.00 Build 0)  -->
<!DOCTYPE svg PUBLIC "-//W3C//DTD SVG 1.1//EN" "http://www.w3.org/Graphics/SVG/1.1/DTD/svg11.dtd">
<svg version="1.1" id="Layer_1" xmlns="http://www.w3.org/2000/svg" xmlns:xlink="http://www.w3.org/1999/xlink" x="0px" y="0px"
	 width="1175.495px" height="313.961px" viewBox="0 0 1175.495 313.961" enable-background="new 0 0 1175.495 313.961"
	 xml:space="preserve">
<g>
	<path fill="#FEFEFE" d="M188.27,83.146c0-1.56-1.9,6.59-5.695,24.455c-0.225,0.225-0.785,0.895-1.675,2.01l0.335,0.67
		c-0.45,0.45-0.895,1.565-1.34,3.35c-0.45,0.895-1.34,1.79-2.68,2.68l-9.38,14.07c-2.46,3.575-3.685,6.03-3.685,7.37
		c-2.46,2.01-6.145,4.915-11.055,8.71c-13.4,8.04-26.02,15.19-37.855,21.44c-6.7,3.35-12.285,4.69-16.75,4.02
		c-0.45,0-0.728-0.167-0.837-0.502c-0.115-0.335-0.393-0.502-0.837-0.502c-0.895-0.22-2.57,0-5.025,0.67
		c-2.46,0.67-4.245,1.005-5.36,1.005c0.22-0.89,0.335-0.78,0.335,0.335L85.76,183.98c-0.895,7.37-2.125,12.563-3.685,15.578
		c-1.565,3.015-4.245,10.667-8.04,22.948c0.22,0.895,0.22,2.01,0,3.35c-5.36,12.51-7.93,18.315-7.705,17.42
		c-0.45,4.245-0.225,7.37,0.67,9.38c0,0.895,0.22,1.455,0.67,1.675c-0.45,0.225-0.67,0.56-0.67,1.005
		c-0.67,1.12-0.56,2.68,0.335,4.69c-0.225,0.225-0.335,0.67-0.335,1.34c0.445,0.895,1.005,2.125,1.675,3.686
		c0.22,0.449,0.11,1.229-0.335,2.344c0.67,0.67,1.56,1.225,2.68,1.676c0.67-0.225,1.005-0.67,1.005-1.34
		c0-1.561-0.67-5.58-2.01-12.061c-0.225-0.22-0.67-0.89-1.34-2.01c0-0.445,0.555-0.89,1.675-1.34l-0.335-0.67l-1.005-1.005
		c-0.225,0.225-0.335,0.45-0.335,0.67c0.445-4.69,2.345-10.83,5.695-18.425c0-1.56-0.67,3.35-2.01,14.74
		c-0.67,8.265,0,15.19,2.01,20.77c0.445-0.451,1.56-1.791,3.35-4.02c0.445,2.68,0.67,4.354,0.67,5.023l-1.005,10.387
		c-2.01,0.67-3.575,0.889-4.69,0.67c-0.67,0-1.23-0.115-1.675-0.336c-1.565-2.01-2.46-3.686-2.68-5.025l1.005-5.025l-1.675-3.35
		c-0.225,0.445-0.45,1.115-0.67,2.01l-1.005,0.336c-1.121,0.445-1.121,0.779,0,1.004c-0.45,0-0.785-0.334-1.005-1.004
		c-1.12,0.891-1.675,1.676-1.675,2.346c-0.225,1.113,0.052,3.459,0.837,7.033c0.78,3.57,1.393,5.361,1.843,5.361
		c0.445,0,0.67-0.115,0.67-0.336c0-0.225,0.22-0.225,0.67,0c1.56,0,2.12,1.895,1.675,5.695c0,1.115,0.167,2.957,0.502,5.527
		c0.335,2.564,0.388,4.408,0.167,5.527c-0.225,1.34-1.79,2.23-4.69,2.68c-1.79-0.225-2.68-1.34-2.68-3.35
		c0.22-8.264,0.11-14.186-0.335-17.754c-0.225,0-0.67-0.451-1.34-1.34c-0.67,1.113-1.79,2.789-3.35,5.023
		c0.445-0.225,0.67-0.895,0.67-2.01l-1.34-1.34c-0.67-0.67-1.565-1.789-2.68-3.35c-0.225,0.221-0.45,0.555-0.67,1.006
		c0.22,0.219,0.11,1.113-0.335,2.68c0-0.227,0-0.561,0-1.006c-0.45,2.01-2.01,4.801-4.69,8.375l-2.345-0.334
		c-0.45,0-0.67-0.451-0.67-1.34c0.22-0.451,0.78-1.342,1.675-2.682c0.89-1.34,1.34-2.234,1.34-2.68
		c0.22-1.789,0.11-3.465-0.335-5.025c-1.34,0.891-1.9,1.342-1.675,1.342c-0.45,0-0.67-0.115-0.67-0.336h-0.335
		c-0.225,0.221-0.56,0.891-1.005,2.01h-2.01c-0.67-0.225-2.345-1.9-5.025-5.025c-0.45,0-0.728,0.168-0.838,0.504
		c-0.115,0.334-0.393,0.387-0.837,0.166c-2.68-0.225-4.245-1.455-4.69-3.684c-0.225-0.896-0.335-3.801-0.335-8.711
		c-0.225-3.57-1.12-5.915-2.68-7.035l5.36-43.215c0.445,0.225,1.005,0.56,1.675,1.005l0.335-0.335l0.335-1.34l-2.68-4.02h1.34
		c0-1.115,0.22-2.68,0.67-4.69c0,0.895,0.11,1.565,0.335,2.01c1.115-0.89,2.12-4.465,3.015-10.72c-0.225,0.225-0.785,0.225-1.675,0
		l0.335-3.685h2.01c1.34,0.225,2.23-1.45,2.68-5.025l0.335-2.68c-0.225,0-0.56-0.22-1.005-0.67c-0.225,0-0.335,0.115-0.335,0.335
		c0,0.225,0,0.56,0,1.005v-0.67H39.53c-0.45,0-0.67,0.167-0.67,0.503c0,0.335-0.225,0.502-0.67,0.502
		c-0.225,0-0.283-0.11-0.167-0.335c0.11-0.22-0.058-0.335-0.502-0.335l-1.34-0.335c-0.67-0.22-1.23-0.335-1.675-0.335
		c-1.565-0.22-3.015-0.11-4.355,0.335c-9.16-0.445-14.295-1.115-15.41-2.01c1.34-0.67,5.47-1.115,12.395-1.34
		c0.22-0.89,0.67-2.12,1.34-3.685c0-0.22,0.837-0.723,2.512-1.508c1.675-0.78,2.513-1.617,2.513-2.512
		c1.34,0.895,2.455,1.12,3.35,0.67c-0.45-0.89-1.791-1.45-4.02-1.675c-1.12-0.22-1.675,0.225-1.675,1.34
		c0.22,0.45,0.22,0.785,0,1.005l-3.015-0.335c0-0.22,0.11-0.555,0.335-1.005v-1.005c-0.45-0.67-1.005-1.005-1.675-1.005
		c-0.45,0-0.785,0.335-1.005,1.005c-0.45-1.56-1.12-3.57-2.01-6.03c0.89-0.67,2.345-1.895,4.355-3.685
		c-0.225-0.22-0.67-0.335-1.34-0.335c-0.45,0-0.895,0.115-1.34,0.335c-0.45,0.225-0.895,0.335-1.34,0.335
		c-4.02,0.45-10.05,1.12-18.09,2.01l-1.005,0.67c-0.67,0.45-1.225,0.67-1.675,0.67l-2.68-0.335L0,165.221l0.335-2.01
		c6.7-2.9,15.52-4.575,26.465-5.025l0.335-0.67v-1.005c-0.225-0.22-1.23-0.445-3.015-0.67c-0.225,0-0.728,0.167-1.508,0.502
		c-0.785,0.335-1.288,0.393-1.507,0.167c-1.12,0-2.795,0-5.025,0H13.4l-1.005-1.675c0.895-1.785,4.072-3.235,9.547-4.355
		c5.47-1.115,8.652-2.12,9.547-3.015c4.69-0.67,9.6-1.34,14.74-2.01c0.67-0.67,1.005-1.115,1.005-1.34
		c0-0.445-0.335-0.67-1.005-0.67c0.67-0.445,1.56-2.01,2.68-4.69c-0.225,0.895-0.225,2.235,0,4.02c0.445,0.225,0.89,0,1.34-0.67
		c1.115-2.68,1.785-5.135,2.01-7.37c0.22-1.56,0.22-2.565,0-3.015c-1.34,0.895-2.125,2.125-2.345,3.685
		c-0.225,0-0.67-0.335-1.34-1.005c1.56-2.229,2.68-6.25,3.35-12.06c0-1.115,0.387-2.565,1.172-4.355
		c0.78-1.785,1.283-2.9,1.508-3.35c-0.225-0.445-0.895-1.34-2.01-2.68c1.115-0.67,1.785-1.56,2.01-2.68
		c1.785-5.36,3.35-10.27,4.69-14.74l1.34-3.015l0.335-2.345c-0.45,0-1.172,0.115-2.177,0.335c-1.005,0.225-1.732,0.335-2.178,0.335
		l-7.37-0.67c-1.121-0.67-1.34-1.895-0.67-3.685c0.22-0.67,0.555-1.675,1.005-3.015c-0.45-0.89-0.785-1.34-1.005-1.34
		c-0.895,0-2.067,0.225-3.517,0.67c-1.456,0.45-2.403,0.56-2.848,0.335c-2.235-0.22-4.58-1.005-7.035-2.345
		c-2.905-1.56-4.245-3.35-4.02-5.36c-0.225,0.895,1.34-1.34,4.69-6.7c0.67,0,1.56-0.11,2.68-0.335c0.22-0.445-0.225-1.115-1.34-2.01
		l-2.01,1.675c0-0.22,0-0.67,0-1.34h0.67c0.445,0,0.67-0.22,0.67-0.67l-1.34-1.675c-0.67-1.115-0.895-2.455-0.67-4.02
		c1.56,0,2.345,0.115,2.345,0.335c-0.225-0.445,0.11-0.67,1.005-0.67c0.89,0,1.45-0.335,1.675-1.005
		c-0.67,0.225-2.235-0.22-4.69-1.34c-0.895,0.895-2.57,1.9-5.025,3.015c-1.79-1.34-2.235-1.895-1.34-1.675
		c1.115,0-1.005,0.335-6.365,1.005c-0.895-1.34-1.34-1.895-1.34-1.675c3.125-3.125,5.805-4.575,8.04-4.355
		c-0.67-0.22,0.78,0.115,4.355,1.005l2.01,2.345c0.445-0.445,1.005-0.89,1.675-1.34l0.67-5.695c-0.225-0.22-0.785-0.445-1.675-0.67
		h2.01c0.22-0.22,0.22-0.67,0-1.34c0.67-0.445,1.005-0.89,1.005-1.34c0-0.445-0.335-0.89-1.005-1.34
		c0.67-0.22,1.225-0.335,1.675-0.335c-0.67,0,0.445,0.785,3.35,2.345c0,0.225-0.45,0.67-1.34,1.34c0.67,1.12,1.45,1.675,2.345,1.675
		c-0.225,0.45-0.115,1.12,0.335,2.01c0.67-0.22,1.56-1.005,2.68-2.345l0.67-6.03l4.02,0.67c0.445,0,1.005,0.115,1.675,0.335
		l0.67,0.335c0.67-0.22,0.89-0.78,0.67-1.675l2.345-2.68c0.22-0.67,0.11-1.005-0.335-1.005c0.67-1.56,1.005-2.9,1.005-4.02
		c2.455-0.445,5.58-1.675,9.38-3.685c2.9-2.23,7.37-4.13,13.4-5.695c0-0.67-1.23-1.45-3.685-2.345c0.67,0.225,1.785,0.225,3.35,0
		c0.67-0.22,1.225-0.555,1.675-1.005c0.89,0,2.12,0.335,3.685,1.005c-1.12-0.445-2.795,0.115-5.025,1.675l0.67,0.67h1.005
		c1.56,0.225,3.125-0.335,4.69-1.675l0.335-1.34c1.115,1.565,1.785,2.345,2.01,2.345c0.89,0.225,2.23,0.225,4.02,0
		c1.785-0.22,3.183-0.277,4.188-0.167c1.005,0.115,2.455,0,4.355-0.335c1.895-0.335,3.292-0.502,4.188-0.502
		c0.445,0,1.005,0.225,1.675,0.67c0.67,0.45,1.225,0.67,1.675,0.67c0.67,0.225,1.785,0.225,3.35,0l3.685,0.67
		c1.115,0,2.847,0,5.192,0c2.345,0,4.072,0.115,5.192,0.335c2.9,0.225,8.04,1.397,15.41,3.518c7.37,2.125,11.61,3.852,12.73,5.192
		c-1.12-0.67-2.57-1.45-4.355-2.345c-0.895,0.67-1.34,1.23-1.34,1.675c4.69,1.565,7.37,2.68,8.04,3.35
		c2.9,1.565,5.805,4.245,8.71,8.04l5.695-2.345c1.34,0.225,3.235,1.565,5.695,4.02c5.58,5.81,8.82,13.515,9.715,23.115
		C187.82,78.346,188.27,82.476,188.27,83.146z M17.085,148.806l-0.335-0.67l-1.005,1.34l0.67,0.335L17.085,148.806z M21.775,147.801
		c-1.565,0.225-2.46,0.335-2.68,0.335c0.22,0.67,0.555,1.12,1.005,1.34c1.34,0,2.01-0.22,2.01-0.67
		C22.33,148.586,22.22,148.251,21.775,147.801z M27.805,13.131c-0.225,2.01-1.34,2.905-3.35,2.68c-1.565-0.22-2.795-0.89-3.685-2.01
		v-2.345l4.355-1.675C27.135,10.006,28.025,11.121,27.805,13.131z M29.48,46.631c-2.46,3.575-4.135,5.25-5.025,5.025
		c-2.46-0.22-3.575-1.34-3.35-3.35c0-0.67,0.67-1.45,2.01-2.345c1.34-0.89,2.345-1.225,3.015-1.005c0.445,0,1.005,0.283,1.675,0.837
		C28.475,46.353,29.03,46.631,29.48,46.631z M30.485,227.531H29.48l-1.005,2.68h1.005L30.485,227.531z M31.155,144.786h-1.34v-0.67
		h1.34V144.786z M34.17,144.116c-0.225,0-0.56,0.058-1.005,0.167c-0.45,0.115-0.785,0.167-1.005,0.167
		c0.22,0.225,0.67,0.56,1.34,1.005C33.72,145.236,33.945,144.786,34.17,144.116z M33.165,62.375h-0.67v-1.675h0.67V62.375z
		 M37.855,42.946l-1.675,1.34l-3.015-0.335c1.115-0.89,2.229-1.56,3.35-2.01C35.845,42.611,36.29,42.946,37.855,42.946z
		 M36.85,197.045c-0.225-0.89-0.67,0.45-1.34,4.02c-0.45-1.56-0.895-2.12-1.34-1.675C34.84,198.721,35.73,197.941,36.85,197.045z
		 M34.84,218.821h-0.67v-2.01h0.67V218.821z M37.855,144.451l-2.01-0.335v-0.67l2.01,0.335V144.451z M51.255,183.98
		c0,0.895-0.225,2.293-0.67,4.188c-0.45,1.9-0.785,3.298-1.005,4.188c-0.45-2.229-0.335-4.24,0.335-6.03
		c0-0.22-0.225-0.445-0.67-0.67c-1.565,8.265-2.235,13.065-2.01,14.405c0.445-0.22,0.67-0.555,0.67-1.005
		c0,0.895-0.56,2.125-1.675,3.685c0,0.67,0.335,1.005,1.005,1.005c-0.895,4.47-2.235,10.5-4.02,18.09
		c-0.225,1.791-0.67,4.69-1.34,8.71c0-0.22-0.225-0.78-0.67-1.675c0,1.12,0,2.345,0,3.685c0.22,1.79-0.115,3.8-1.005,6.03h-1.675
		c0.445-1.56,0.22-2.79-0.67-3.685c0.445,0,0.78,0.225,1.005,0.67c0.22-0.445,0.445-1.56,0.67-3.35l-1.675,1.005l2.01-4.02
		c0-1.115-0.335-2.455-1.005-4.02c0-0.445,0.22-1.005,0.67-1.675c0.22-0.89,0.335-2.345,0.335-4.355c0.22,0,0.11-0.22-0.335-0.67
		c-0.225,0.67-0.67,1.455-1.34,2.345l1.675-15.41c0.22,0,0.445-0.22,0.67-0.67c0-1.115,0.11-3.015,0.335-5.695
		c0.445-0.445,1.005-1.115,1.675-2.01c0.22-0.89,0-1.34-0.67-1.34l1.005-9.045c1.115-0.22,2.01-1.115,2.68-2.68
		C48.91,184.431,50.805,184.431,51.255,183.98z M39.53,242.605l0.335-3.35H38.86l-0.335,3.35H39.53z M39.865,244.616l-0.67-0.335
		l-0.67,1.34l0.335,0.335L39.865,244.616z M44.89,67.736l0.335-2.345c-0.896,0.45-2.235,0.895-4.02,1.34v2.01
		c1.115,0.67,2.01,1.12,2.68,1.34C44.33,69.636,44.665,68.856,44.89,67.736z M43.215,220.161H42.21l-1.005,2.01l1.005,0.335
		L43.215,220.161z M43.215,38.591l-0.335,2.01l-1.005-0.335l0.67-1.675H43.215z M43.215,217.815H42.21l0.335-1.34h1.005
		L43.215,217.815z M55.61,33.9c-1.34,0.896-3.575,2.345-6.7,4.355v2.01c0.67-0.22,1.225-0.335,1.675-0.335
		c0.445,0,0.67,0.225,0.67,0.67c-1.12,0-2.125-0.22-3.015-0.67c-0.45,0.45-1.12,1.565-2.01,3.35c-2.01-0.89-2.795-2.12-2.345-3.685
		l0.335-4.355c0,0.45,0.335,0.785,1.005,1.005c0.67,0,2.229-0.67,4.69-2.01c-0.225,0-0.45,0.225-0.67,0.67
		c-0.225,0.45,0,0.67,0.67,0.67c0.67-0.22,2.12-1.115,4.355-2.68C54.49,32.896,54.94,33.23,55.61,33.9z M46.565,72.091
		c0.445-0.67,0.67-1.34,0.67-2.01c0.22-0.89-0.115-1.895-1.005-3.015c-0.895,0-1.34,0.785-1.34,2.345
		c-0.225,0.45-0.115,1.005,0.335,1.675c0.445,0.67,0.67,1.12,0.67,1.34c0-1.785,0.22-3.125,0.67-4.02
		C47.01,69.301,47.01,70.531,46.565,72.091z M46.9,62.041l0.335-4.355c-1.34,0.895-2.125,1.9-2.345,3.015v1.675
		c0.22,0,0.555-0.11,1.005-0.335C46.34,61.821,46.675,61.821,46.9,62.041z M46.23,178.956l-0.67-0.67l-0.335,0.335l0.335,0.67
		L46.23,178.956z M62.645,10.451c0,1.565-1.34,2.737-4.02,3.518c-2.68,0.785-4.915,1.063-6.7,0.837
		c-4.47-0.445-6.48-3.125-6.03-8.04c0.445-3.57,1.895-5.135,4.355-4.69c0.445,0,0.67,0.115,0.67,0.335h1.005
		c0.22,0,0.837-0.445,1.843-1.34c1.005-0.89,2.062-1.225,3.182-1.005c2.23,0.225,3.795,1.456,4.69,3.685
		c-0.225,0.45-0.335,1.12-0.335,2.01C62.195,9.561,62.645,11.121,62.645,10.451z M49.245,183.98v-1.005l-2.68-0.335v1.005
		L49.245,183.98z M48.24,135.071l0.335-1.34H47.57l-0.335,1.34H48.24z M49.58,137.75l-1.005-0.335l0.335-1.34l1.005,0.335
		L49.58,137.75z M49.245,194.031h-0.67v-2.01h0.67V194.031z M53.265,131.051v-3.015c-1.565,2.01-2.235,2.905-2.01,2.68
		L53.265,131.051z M54.27,41.94c-0.45,0.225-0.67,0.785-0.67,1.675c-1.34-1.56-2.125-2.23-2.345-2.01L54.27,41.94z M62.645,121.67
		c-0.225,0-0.785,0.335-1.675,1.005l0.67-6.365c-0.45,1.565-1.23,3.35-2.345,5.36c0-0.22,0-0.78,0-1.675
		c-0.67,3.13-2.01,8.825-4.02,17.085c-0.45,1.12-1.23,3.575-2.345,7.37c0.22-0.22,0.78-0.445,1.675-0.67v-1.005
		c-0.225-0.445-0.335-0.78-0.335-1.005l2.68,0.335l1.34-1.005l0.335-3.015c-0.225,0-0.56,0.115-1.005,0.335l-0.67,0.67
		c-0.67-0.67-0.895-1.225-0.67-1.675l-0.335,0.335c0,0.225,0.22,0.335,0.67,0.335c0.445,0,0.613-0.167,0.502-0.502
		c-0.115-0.335,0.053-0.502,0.503-0.502l1.675,0.67l0.67-8.375C60.185,126.921,61.08,124.351,62.645,121.67z M55.275,121.67
		L55.61,121c-1.12-0.445-1.675-0.555-1.675-0.335C53.935,121.335,54.38,121.67,55.275,121.67z M56.28,117.65l-1.675,1.34v-0.67
		l1.34-1.34L56.28,117.65z M56.95,9.781l0.335-1.005L54.94,7.771v1.005L56.95,9.781z M59.965,280.461
		c-0.67-1.791-1.455-3.131-2.345-4.021l0.335-3.014c0.445,0.67,1.225,1.004,2.345,1.004c-0.225,1.785-0.335,3.234-0.335,4.355
		V280.461z M59.965,104.25c0-1.115-0.225-1.675-0.67-1.675c-0.225,0-0.67,0.225-1.34,0.67
		C58.625,103.916,59.295,104.25,59.965,104.25z M61.305,138.42l-0.67,2.345h-0.67l0.335-2.345H61.305z M66.665,264.715
		c0.445,0,0.67,0.226,0.67,0.67c-0.225,0.67-0.56,1.34-1.005,2.01c0.22-0.895,0.22-1.34,0-1.34c-0.225,0-0.56,0.115-1.005,0.336
		C65.545,265.276,65.995,264.715,66.665,264.715z M78.725,197.045c-0.45-0.67-1.005-1.005-1.675-1.005l0.67-6.7
		c0.22-2.455,0.335-4.355,0.335-5.695c0.445-1.115,0.555-1.115,0.335,0c-0.896,0.895-1.565,2.905-2.01,6.03l-3.35,16.415
		c-1.12,2.68-1.675,4.69-1.675,6.03c0.22,0,0.445,0.115,0.67,0.335c-0.45,0.67-2.01,6.145-4.69,16.415
		c-0.225,0.45-0.45,0.67-0.67,0.67c0,0.45,0.22,1.34,0.67,2.68c0.67-2.01,1.895-5.025,3.685-9.045l-1.005,0.335l-0.67-0.67
		c1.56-0.445,2.455-1.225,2.68-2.345c0-0.445-0.225-1.005-0.67-1.675c-0.45,0,0.335-0.78,2.345-2.345
		c-0.45,0-1.005-0.335-1.675-1.005c0.89-0.67,1.34-1.225,1.34-1.675c-0.225,0-0.56-0.11-1.005-0.335
		c1.56-0.22,2.345-1.225,2.345-3.015c-0.225,0.225-0.56,0.225-1.005,0c-0.225,0-0.335-0.11-0.335-0.335
		c0-0.445,0.22-1.115,0.67-2.01c0.445-0.89,0.67-1.56,0.67-2.01h2.345l1.005-7.37l-2.01,1.34c0-0.67,0.445-1.225,1.34-1.675
		c-1.12,0-1.675-0.335-1.675-1.005C76.38,196.936,77.385,196.826,78.725,197.045z M75.71,22.176l-2.01,0.335v-0.67l1.675-0.335
		L75.71,22.176z M75.71,204.081l-0.67-0.335l-0.67,1.005l0.67,0.67L75.71,204.081z M77.385,201.4l-1.005,1.34l-0.335-0.335
		l0.67-1.34L77.385,201.4z M79.06,181.971l-0.67-0.335l-0.67,1.675l0.335,0.335L79.06,181.971z M84.085,183.646l1.005-10.05
		l-2.345-0.335l-1.34,1.005l-2.345-0.335v2.345c1.115-0.22,1.895-0.78,2.345-1.675c0.445,1.12,0.555,2.01,0.335,2.68
		c0,0.45-0.225,0.785-0.67,1.005c0,3.35-0.785,6.815-2.345,10.385c0,1.34,0.22,3.015,0.67,5.025
		C79.84,191.241,81.405,187.891,84.085,183.646z M140.03,145.791c-0.895,1.34-3.743,3.465-8.542,6.365
		c-4.805,2.905-7.652,5.475-8.542,7.705c-0.895-0.22-1.565-0.22-2.01,0c-0.225,1.12-1.34,2.01-3.35,2.68l-5.025,1.675l-18.76,5.025
		c0-0.67-0.45-1.45-1.34-2.345c-1.565,1.565-2.905,2.345-4.02,2.345c-2.235,0-3.575,0.115-4.02,0.335
		c0.67,1.12,1.115,1.565,1.34,1.34l-1.675,0.335l-2.01-0.335v-3.685c0.445-0.22,8.26-2.229,23.45-6.03c0.445-0.22,0.445-0.67,0-1.34
		c8.485-1.34,17.53-5.025,27.135-11.055c-0.225-0.445-0.115-0.89,0.335-1.34c0.22,0,0.67-0.22,1.34-0.67
		c-0.895-0.445-2.01-0.78-3.35-1.005c-0.45,0.225-1.455,0.56-3.015,1.005c0.22,0.225,0.89,0.45,2.01,0.67
		c-0.225,1.34-0.895,1.9-2.01,1.675c-0.45,0-0.618-0.11-0.502-0.335c0.11-0.22-0.058-0.335-0.502-0.335
		c-0.895,0-4.355,0.953-10.385,2.848c-6.03,1.9-9.94,2.737-11.725,2.512c2.01-0.445,3.905-0.89,5.695-1.34
		c1.56-1.34,3.46-2.345,5.695-3.015c1.115-0.22,2.455-0.445,4.02-0.67c2.899-1.56,7.705-4.02,14.405-7.37
		c0.67,0,1.115,0.67,1.34,2.01c1.115-0.67,2.23-0.67,3.35,0l-2.01,1.34l-4.02-0.335l-1.005,1.005c0.67,0,1.56-0.11,2.68-0.335
		L140.03,145.791z M88.105,158.855l-0.335-0.67l-2.01,1.005l0.335,0.67L88.105,158.855z M150.415,86.496
		c-0.45-1.115-0.895-3.235-1.34-6.365c-0.45-1.785-3.13-5.695-8.04-11.725c-1.12,0-3.13-0.89-6.03-2.68
		c0.22,0.45-0.45,0.895-2.01,1.34c0.22-0.22-0.335-0.445-1.675-0.67c-0.225-0.22-0.45,0.335-0.67,1.675
		c0.22,0.45,0.555,0.67,1.005,0.67c1.34-0.22,3.235,1.005,5.695,3.685c-1.12-0.22-3.24-0.78-6.365-1.675
		c-1.34-1.56-2.345-2.345-3.015-2.345c-0.225,0-0.45,0.115-0.67,0.335c0.89,0.45,1.675,1.23,2.345,2.345
		c-1.34,0-2.795-0.445-4.355-1.34c-1.565-0.89-2.57-1.34-3.015-1.34c-0.45,0-1.34,0.115-2.68,0.335l-2.68,1.005
		c-0.67,0.225-1.455,0.67-2.345,1.34c-1.565-0.22-3.685-0.335-6.365-0.335c-0.45,0.895-2.235,2.235-5.36,4.02l-1.005,7.37
		c-0.67,3.13-2.01,7.595-4.02,13.4c0.22,0.225,0.555,0.225,1.005,0c0.67-0.22,1.115-0.22,1.34,0c-0.225,0.67-0.785,2.01-1.675,4.02
		c-0.225-0.445-0.335-0.89-0.335-1.34c0,0.225-0.283,0.67-0.837,1.34c-0.56,0.67-0.837,1.23-0.837,1.675l-0.335,1.005l0.335,0.67
		h0.335c0.22-0.22,0.555-0.335,1.005-0.335c0.22,0,0.335,0.335,0.335,1.005c-1.79,0.45-2.795,2.01-3.015,4.69
		c0-0.22,0.11-0.335,0.335-0.335v0.335c-0.896,3.13-1.34,4.135-1.34,3.015c0.22,0,0.555,0.115,1.005,0.335l-1.34,0.67
		c-2.235,10.72-3.575,18.54-4.02,23.45c0.22,0,0.335,0.115,0.335,0.335c-0.45,0.225-0.45,0.45,0,0.67
		c0.67,0.45,1.005,0.785,1.005,1.005l-1.34,1.005l3.35,0.335c8.26-3.795,20.435-9.825,36.515-18.09
		c0.445-0.445,1.34-1.45,2.68-3.015c-0.895,0.225-2.125,0.67-3.685,1.34l-10.385,5.025c-0.67-0.22-0.895-0.335-0.67-0.335
		l1.34-1.005c0.22,0.225,0.78,0.45,1.675,0.67c0-0.22-0.335-0.78-1.005-1.675c0.445-0.22,1.005-0.22,1.675,0
		c-0.895-1.34-1.34-1.895-1.34-1.675c3.795-1.56,9.715-5.58,17.755-12.06c3.125-3.125,6.365-8.04,9.715-14.74
		C147.845,91.746,148.85,89.401,150.415,86.496z M113.565,161.871l-0.335-0.335c-0.45-0.22-0.895-0.445-1.34-0.67
		c2.899,0.45-2.68,2.01-16.75,4.69c-1.121,0.67-1.675,1.23-1.675,1.675c1.115-0.22,2.455-0.555,4.02-1.005
		c-0.67,0.225-0.225,0.335,1.34,0.335c-0.67,0-0.225-0.335,1.34-1.005C102.845,165.111,107.31,163.881,113.565,161.871z
		 M95.14,157.851l-0.67,0.335l-0.67-0.67l0.335-0.67L95.14,157.851z M104.855,154.5c-4.245,2.01-7.595,2.795-10.05,2.345
		c4.69-1.785,7.37-2.68,8.04-2.68L104.855,154.5z M99.16,100.23l-1.005-0.335l-0.335,1.34l0.335,0.335L99.16,100.23z
		 M116.915,125.69l-3.685-0.335c-0.895,1.12-3.465,2.68-7.705,4.69c-1.79,2.235-3.8,3.24-6.03,3.015l2.01,0.335l1.005-1.005
		C107.42,130.381,112.225,128.151,116.915,125.69z M102.845,88.506c-0.45,2.01-1.34,3.91-2.68,5.695c0-0.67,0.22-1.728,0.67-3.183
		c0.445-1.45,0.78-2.512,1.005-3.183L102.845,88.506z M121.605,157.851l-2.345,1.005v-0.67l2.345-1.34V157.851z M130.65,65.391
		c-1.79-0.22-3.24-0.555-4.355-1.005l3.35,2.01C130.315,66.621,130.65,66.286,130.65,65.391z M142.71,142.105
		c0.445,0.225-0.56,0.225-3.015,0c-0.45,0-0.895-0.445-1.34-1.34l-1.005,1.005c-0.45,0-1.12-0.555-2.01-1.675l3.35-1.34
		c0.445,0.225,1.115,0.45,2.01,0.67c0.89,0.225,1.56,0.45,2.01,0.67V142.105z M141.705,73.431l-1.675-0.67v0.67l1.34,0.67
		L141.705,73.431z M175.205,97.551c-1.12,3.35-2.795,7.93-5.025,13.735c0,0.895-0.785,2.235-2.345,4.02l-2.345,2.68
		c-0.225,0.67-0.895,1.79-2.01,3.35l0.335,1.675c-0.225,1.79-1.34,3.575-3.35,5.36c-0.225,0-0.67-0.335-1.34-1.005l-1.34-0.335
		c-0.225,0.45-0.67,1.005-1.34,1.675c0,0.225,0.22,0.67,0.67,1.34c-0.225,0.45-1.12,1.456-2.68,3.015v-0.67
		c-0.225-0.22-0.56-0.335-1.005-0.335c-1.12-0.22-2.235,0.115-3.35,1.005c0.67,0.67,1.675,1.12,3.015,1.34
		c-2.46,2.905-5.695,5.476-9.715,7.705v-2.01c0.67-0.22,1.56-0.555,2.68-1.005l-3.015-0.335c5.36-4.69,10.605-10.16,15.745-16.415
		c0.22-0.67,0.89-1.895,2.01-3.685l3.35-3.685l0.335-2.345c1.785-2.68,4.355-6.81,7.705-12.395c0-1.34,0.11-2.79,0.335-4.355
		c0.445-1.115,1.225-1.56,2.345-1.34L175.205,97.551z"/>
	<path fill="#FEFEFE" d="M323.606,164.216c0,4.02-1.675,9.94-5.025,17.755c-1.34,3.8-3.24,9.83-5.695,18.09
		c-2.68,2.905-6.48,7.82-11.39,14.74l1.675-3.35c1.34-2.455,1.785-3.905,1.34-4.355c-1.791,2.46-4.245,6.48-7.37,12.06
		c-1.34,1.12-3.35,3.24-6.03,6.365c-1.34,2.46-3.24,6.03-5.695,10.72c-5.81,8.265-12.285,14.965-19.43,20.1
		c-12.285,9.16-20.435,13.734-24.455,13.734c-0.67,0-1.675-0.225-3.015-0.67c-1.34-0.449-2.235-0.67-2.68-0.67
		c-1.79,0-4.303,0.389-7.538,1.174c-3.24,0.779-5.752,1.172-7.537,1.172c-6.7,0-13.851-3.574-21.44-10.72l-6.7-1.34
		c-0.225,0.67-0.335,1.566-0.335,2.68c0,1.12,0.11,2.46,0.335,4.021c-2.235-2.9-5.25-6.701-9.045-11.391
		c-0.225-1.115-0.785-3.125-1.675-6.03c-0.67-0.445-1.34-0.89-2.01-1.34c-0.45-2.9-1.12-7.37-2.01-13.4
		c1.115-1.34,1.675-2.345,1.675-3.015c-2.235-5.135-3.685-9.49-4.355-13.065c0.67-0.67,0.67-6.7,0-18.09
		c2.01-16.3,6.14-32.38,12.395-48.24c2.455-6.919,7.255-14.18,14.405-21.775c7.59-8.93,14.405-14.07,20.435-15.41
		c0.89,0,5.135-1.785,12.73-5.36c-15.41,6.255-27.695,15.97-36.85,29.145c-0.225,0.225,0,0.67,0.67,1.34l1.675-1.34
		c-2.905,3.13-5.25,6.925-7.035,11.39l1.34,0.67c6.92-9.6,18.2-19.765,33.835-30.485c-0.67,0-2.57,0.56-5.695,1.675
		c14.29-8.485,25.345-12.615,33.165-12.395c-0.225,0-0.67,0.335-1.34,1.005c0.67,0.45,1.45,0.67,2.345,0.67
		c1.115,0,2.79-0.22,5.025-0.67c2.229-0.445,3.905-0.67,5.025-0.67c0.67,0,2.177,0.785,4.522,2.345
		c2.345,1.565,3.737,2.345,4.188,2.345c0.89,0,1.282-0.168,1.172-0.503c-0.115-0.335,0.052-0.502,0.502-0.502
		c0.67,0.225,1.618,0.953,2.848,2.178c1.225,1.23,4.522,4.857,9.882,10.887c0.89,2.01,3.125,4.69,6.7,8.04l1.34-1.34
		c-1.565-0.67-2.177-1.56-1.842-2.68c0.335-1.115,0.052-2.01-0.837-2.68c3.57,0,6.25,0.785,8.04,2.345
		c1.34-1.56,2.01-2.565,2.01-3.015c0.89,2.46,2.68,5.025,5.36,7.705c1.56,1.791,3.905,7.485,7.035,17.085
		c0,0.896,0.11,2.345,0.335,4.355c0.445,0.895,1.45,1.79,3.015,2.68C322.937,160.196,323.606,162.206,323.606,164.216z
		 M209.707,128.706l-4.355,4.69l-0.335-1.005l4.02-4.02L209.707,128.706z M215.066,125.355l-4.355,3.35l-0.335-1.34l4.02-3.015
		L215.066,125.355z M268.332,157.516c-2.235-3.35-3.575-5.915-4.02-7.705c-2.905,2.01-7.595,5.81-14.07,11.39
		c0.22-1.34,1.115-3.015,2.68-5.025c-10.275,12.73-17.755,26.915-22.445,42.545c-0.895-1.34-1.455-2.01-1.675-2.01
		c-1.565,0-3.073,2.68-4.523,8.04c-1.455,5.36-2.177,9.16-2.177,11.39c0,4.47,1.005,10.275,3.015,17.42
		c8.93-2.455,17.53-9.045,25.795-19.765c8.26-10.72,12.28-20.435,12.06-29.145c0.89,0.45,1.56-0.22,2.01-2.01l1.005-2.345
		c-1.79-0.67-3.685-1.45-5.695-2.345c0.22-1.115,0.335-2.01,0.335-2.68c0-2.229-3.575-4.24-10.72-6.03l8.375-0.335
		c1.115,0.45,2.68,1.455,4.69,3.015c0.22-0.67,0.555-1.45,1.005-2.345c-1.34,0-2.125-0.11-2.345-0.335
		c1.115-1.115,1.56-2.01,1.34-2.68c-0.895-0.67-2.125-1.56-3.685-2.68c3.35-1.115,5.58-2.565,6.7-4.355
		c-0.67-0.89-1.565-1.895-2.68-3.015c0.67,0,1.56,0.167,2.68,0.502C267.102,157.348,267.881,157.516,268.332,157.516z
		 M238.517,108.605h-2.01v-1.34h2.01V108.605z M252.921,108.94c-2.46,0.67-7.485,2.345-15.075,5.025h3.015
		C242.202,114.191,246.222,112.516,252.921,108.94z M242.872,106.931h-2.01v-1.34h2.01V106.931z M257.611,178.956h-1.675v-1.34
		h1.675V178.956z M317.242,124.016h-1.34V121h1.34V124.016z"/>
	<path fill="#FEFEFE" d="M317.574,86.831c3.125-1.34,5.58-2.345,7.37-3.015c0.22,2.68,0.335,4.47,0.335,5.36
		c-4.47,1.79-6.365,2.68-5.695,2.68c-0.225,0-0.785-0.335-1.675-1.005L317.574,86.831z M326.284,168.571l0.335-1.34l-0.335-3.35
		c2.455-5.805,4.69-8.82,6.7-9.045c1.56,0,3.015,1.005,4.355,3.015c0.445,1.34,1.115,2.57,2.01,3.685
		c0.445-0.22,1.115-0.335,2.01-0.335c2.229,0,3.46,1.675,3.685,5.025c0.22,6.48-1.565,9.715-5.36,9.715
		c-0.225,0-0.335-0.11-0.335-0.335l-0.67,0.335c-1.12,0-2.57,0.67-4.355,2.01c-5.81-4.24-8.71-6.81-8.71-7.705
		C325.614,169.801,325.833,169.241,326.284,168.571z M333.319,240.596l-3.685,12.395l0.67,0.335l4.02-12.73H333.319z
		 M461.289,132.391c-0.67-2.68-0.67-4.24,0-4.69c-1.79-6.475-3.13-11.39-4.02-14.74c-3.13-2.455-5.14-3.795-6.03-4.02
		c-0.67,1.565-1.005,2.795-1.005,3.685h-0.67c-1.79-2.9-3.24-4.24-4.355-4.02l-4.02,2.345c-0.45-0.67-0.785-1.115-1.005-1.34
		c-4.47-2.68-7.37-3.905-8.71-3.685c-1.34,0-5.36,3.24-12.06,9.715c-1.12,0-2.01-0.445-2.68-1.34c0,1.12-0.225,1.9-0.67,2.345
		l-2.01,0.335c-0.45,0-0.618-0.167-0.502-0.502c0.11-0.335-0.058-0.502-0.502-0.502c-1.12,0-2.235,1.23-3.35,3.685v3.015
		c0,1.12-0.225,2.01-0.67,2.68c2.01-2.9,3.46-5.025,4.355-6.365l0.335,0.67c-8.265,14.52-14.965,25.575-20.1,33.165
		c-0.225-2.9-0.225-6.92,0-12.06c-0.225-0.22-0.335-0.445-0.335-0.67c0.67-6.03,0.67-11.055,0-15.075
		c-0.225,0-0.393,0.115-0.502,0.335c-0.115,0.225-0.393,0.335-0.837,0.335c-0.895,0-1.23-1.34-1.005-4.02l0.67-4.02
		c-4.915-5.36-8.6-7.37-11.055-6.03c4.465,2.235,6.585,4.02,6.365,5.36c1.785,0.45,2.79,1.9,3.015,4.355
		c0,0.895-0.115,1.565-0.335,2.01c-2.235-4.465-4.58-7.035-7.035-7.705c0,0.225,0.11,0.56,0.335,1.005
		c0.22,0.45,0.335,0.785,0.335,1.005l1.005-0.335c1.115,0,2.345,1.12,3.685,3.35l-2.68,1.34c-4.69-5.135-7.485-7.815-8.375-8.04
		c0.445-0.67,0.67-1.45,0.67-2.345c-3.8,2.46-7.37,4.02-10.72,4.69c-2.46,1.12-4.245,1.9-5.36,2.345
		c-0.225,0.895-0.335,1.675-0.335,2.345c-0.895,1.791-2.125,3.13-3.685,4.02c-2.01-0.67-3.575-1.115-4.69-1.34
		c0-0.22-0.335-0.11-1.005,0.335c0.445,0,0.67,0.225,0.67,0.67c-1.12,3.13-1.79,4.915-2.01,5.36c0.22-0.22,0.722-0.445,1.507-0.67
		c0.78-0.22,1.283-0.445,1.507-0.67c0.22,0.225,0.22,0.45,0,0.67c-2.46,3.13-3.685,5.025-3.685,5.695
		c-1.791,0.895-3.13,1.79-4.02,2.68l1.34-1.005c0.67,0.67,1.115,1.23,1.34,1.675c-0.225,0.45-0.225,1.005,0,1.675
		c0.89-2.455,1.56-3.905,2.01-4.355c0.445,0.895,0.335,1.675-0.335,2.345c1.115-0.22,1.56,0.785,1.34,3.015
		c1.56,6.925,2.455,10.835,2.68,11.725c0.22,1.34-0.225,4.47-1.34,9.38c0.22-0.22,0.67,0.225,1.34,1.34
		c-1.791,9.831-3.015,16.415-3.685,19.765c-2.905,15.635-5.025,25.46-6.365,29.48c-2.46,6.925-3.685,12.395-3.685,16.415
		c0,0.225-0.167,0.785-0.502,1.675c-0.335,0.895-0.502,1.565-0.502,2.01c0,0.895,0.22,1.34,0.67,1.34l9.38-29.145l-9.045,34.84
		c1.56-5.36,2.79-9.155,3.685-11.39c0,0.45-1.23,5.25-3.685,14.405c0-0.445,0.445-0.78,1.34-1.005l-4.02,10.05
		c-0.225-1.34,0.052-3.125,0.837-5.36c0.78-2.229,1.057-3.57,0.837-4.02c-1.565,5.585-2.46,8.825-2.68,9.715
		c0-0.22,0.11-0.445,0.335-0.67c0.22,1.34-1.121,6.815-4.02,16.415l-0.67-1.004c0.22,3.57-0.115,5.914-1.005,7.035
		c1.115-1.791,2.01-3.131,2.68-4.021c0.22,0.672,0.335,1.115,0.335,1.342c-0.225-1.791,0.445-4.137,2.01-7.035l0.67,1.004
		c0-0.219,0.11-0.555,0.335-1.004c0.22,1.34,0.052,2.898-0.502,4.689c-0.561,1.785-0.838,3.016-0.838,3.686
		c0.89-2.461,1.56-4.137,2.01-5.025c0.67,0.67,1.005,1.115,1.005,1.34c-1.12,2.9-1.675,5.025-1.675,6.365
		c2.68-5.361,4.13-8.266,4.355-8.711c13.62-35.955,20.435-54.044,20.435-54.27c4.24-13.62,7.815-26.35,10.72-38.19
		c1.56,1.565,2.345,2.125,2.345,1.675c-7.82,29.48-11.84,44.555-12.06,45.225c-5.36,20.1-11.17,36.18-17.42,48.239
		c0.67-0.449,1.005-0.334,1.005,0.336v2.01c0.89-2.904,2.12-5.359,3.685-7.369c0.445,0.225,0.555,0.449,0.335,0.67
		c-1.565,4.689-2.905,7.59-4.02,8.709c-3.13,6.25-5.14,11.166-6.03,14.74c1.34-2.68,2.345-4.58,3.015-5.695
		c0.22,0,0.22,0.221,0,0.67c0,0.221,0.22,0.336,0.67,0.336c0.445-0.225,2.455-4.246,6.03-12.061c5.58-12.06,8.485-18.31,8.71-18.76
		c0.22,0.225,0.335,0.67,0.335,1.34c0.22,1.565-2.345,8.155-7.705,19.766c1.34-1.791,2.565-3.35,3.685-4.691
		c0.22-0.67,0.445-0.895,0.67-0.67c0.67-0.449,1.225-0.449,1.675,0c-2.01,5.135-3.35,9.156-4.02,12.061
		c2.455-4.244,5.135-9.939,8.04-17.085l-1.005,1.005c0-0.67,0.67-2.455,2.01-5.36c0.445,0.45,0.67,0.786,0.67,1.005
		c0.445-3.57,1.005-6.14,1.675-7.705c0.67,0.67,0.78,1.23,0.335,1.675c5.135-9.825,7.705-17.195,7.705-22.11
		c2.23-3.57,3.35-6.25,3.35-8.04c0-0.67-0.335-1.225-1.005-1.675c0.89-0.67,1.45-1.115,1.675-1.34c0.22-2.01,0.67-3.235,1.34-3.685
		l-0.335-2.345c-0.45-0.89-0.335-1.895,0.335-3.015l1.005,0.67c0.89-2.455,1.56-4.24,2.01-5.36c-0.895,1.12-1.675,1.79-2.345,2.01
		c0-2.68,0.67-4.355,2.01-5.025c0.445,0.67,0.67,1.34,0.67,2.01c4.24-15.41,7.48-23.895,9.715-25.46l1.005,1.005
		c0.445-0.445,1.225-0.67,2.345-0.67c0.22-1.785,0.78-3.57,1.675-5.36c0.445,0.225,0.555,0.45,0.335,0.67
		c-0.45,2.68-1.12,5.025-2.01,7.035c-0.45-0.445-0.56-0.67-0.335-0.67c0.67,0.67,1.005,1.34,1.005,2.01
		c0,0.67-0.393,1.958-1.173,3.852c-0.785,1.9-0.953,3.298-0.502,4.188c2.23-4.465,3.57-6.919,4.02-7.37l0.67,0.67
		c-0.225,2.68-0.335,4.69-0.335,6.03c2.01-4.24,3.57-6.92,4.69-8.04l0.67,0.67c-0.45,1.34-0.56,2.905-0.335,4.69
		c1.56-2.01,2.68-3.685,3.35-5.025c1.115,1.565,2.23,2.345,3.35,2.345c0.89-1.56,1.45-2.79,1.675-3.685
		c0.445,0.45,0.555,1.9,0.335,4.355c3.35-6.475,5.36-10.27,6.03-11.39c0.22,0.225,0.445,0.785,0.67,1.675
		c2.9-5.135,4.575-8.15,5.025-9.045c0.22,0.45,0.335,1.675,0.335,3.685l1.005-1.005c0.445,0.45,0.89,0.67,1.34,0.67
		c0.445,0,2.565-3.125,6.365-9.38c3.795-6.25,5.915-9.38,6.365-9.38h1.34h0.67l0.67-2.68c0-1.785,0.555-2.68,1.675-2.68
		c0.67,0,2.01,0.393,4.02,1.172c2.01,0.785,3.35,1.172,4.02,1.172c0.445,0,1.005-0.445,1.675-1.34
		c-0.225-1.34-0.115-2.12,0.335-2.345c1.34,1.791,2.01,3.24,2.01,4.355c0.22-2.68,0.555-4.69,1.005-6.03
		c0.67,1.565,1.115,2.795,1.34,3.685l-1.005,1.34h2.68c-0.225-4.69-0.115-7.59,0.335-8.71c1.34-2.455,2.12-3.905,2.345-4.355
		C461.624,134.4,461.289,132.841,461.289,132.391z M332.313,278.45l-0.67,2.012l0.67,0.334l0.67-2.346H332.313z M335.664,273.09
		l-0.67,1.676h0.67l0.67-1.34L335.664,273.09z M339.349,267.061l-0.67-0.336l3.685-12.395h0.67L339.349,267.061z M340.688,291.18
		l-1.34,2.68l1.005,0.336l1.005-2.68L340.688,291.18z M341.359,116.98c2.455-2.01,4.465-3.015,6.03-3.015
		c2.01-0.22,3.125,1.12,3.35,4.02c0.22,4.02-0.895,6.145-3.35,6.365c0.89,0-1.12-1.225-6.03-3.685V116.98z M343.704,288.836
		l-2.345,5.359h1.34l2.01-5.359H343.704z M343.369,252.991v-1.34h1.005v1.34H343.369z M345.043,228.536h-1.005l0.67-3.35h1.005
		L345.043,228.536z M346.049,225.186h-0.67l1.34-8.375h1.005L346.049,225.186z M347.389,281.465l-1.34,1.34l0.67,0.67l1.34-1.34
		L347.389,281.465z M347.724,131.721h-1.005v1.675h1.005V131.721z M349.734,123.681c-0.896,0.895-1.675,2.235-2.345,4.02
		c0.445-1.56,1.225-2.565,2.345-3.015l1.34,0.67C350.404,124.466,349.954,123.906,349.734,123.681z M351.074,144.116l-1.34,2.01
		l1.005,0.67l1.005-2.345L351.074,144.116z M351.409,170.581h-1.005v1.675h1.005V170.581z M351.074,136.411v-1.675h1.005v1.675
		H351.074z M352.749,164.216h-1.005l0.335,1.675h1.005L352.749,164.216z M354.089,132.056l-0.67-0.335l0.67-1.34l0.67,0.335
		L354.089,132.056z M353.754,128.706c0.67-2.01,1.56-3.235,2.68-3.685l0.335,3.015C356.099,127.591,355.094,127.816,353.754,128.706
		z M354.424,135.406l-0.67-0.335l0.67-1.34h0.335L354.424,135.406z M355.094,216.476l-0.67-0.335l0.67-1.675l1.005,0.335
		L355.094,216.476z M361.124,232.891l-0.67-0.335l0.67-3.35h1.005L361.124,232.891z M365.144,123.346
		c-0.225-2.23,1.675-3.46,5.695-3.685c1.56,0,2.9,0.785,4.02,2.345L365.144,123.346z M366.149,250.311v-1.34l1.005-0.335v1.34
		L366.149,250.311z M367.824,247.966l-0.67-0.335l1.675-5.025h0.67L367.824,247.966z M370.504,237.916v-1.34h1.005v1.34H370.504z
		 M371.174,236.241l-0.335-1.34h1.005l0.335,1.34H371.174z M371.844,233.561v-2.01l1.005-0.335v2.01L371.844,233.561z
		 M372.849,230.545l-0.335-2.01h1.005l0.335,2.01H372.849z M373.519,111.621c0-0.67,0.723-1.45,2.178-2.345
		c1.45-0.89,2.512-1.34,3.183-1.34c0.445,0,0.837,0.167,1.172,0.502s0.612,0.502,0.837,0.502c0.89-1.56,2.565-2.345,5.025-2.345
		c5.36-0.22,8.15,1.79,8.375,6.03c0.22,0.895,0,3.13-0.67,6.7L373.519,111.621z M374.524,170.916h-1.005l0.335-4.355h1.005
		L374.524,170.916z M373.854,226.861v-1.675h0.67v1.675H373.854z M375.529,171.25h-1.005l0.67-4.69h1.005L375.529,171.25z
		 M381.559,204.081l-0.67-0.335l0.335-1.34l1.005,0.335L381.559,204.081z M382.229,201.736h-0.67l0.67-3.015h1.005L382.229,201.736z
		 M383.234,195.706l-0.67-0.335l1.005-2.345h1.005L383.234,195.706z M384.909,192.69l-0.67,0.335v-3.015l1.005-0.335L384.909,192.69
		z M385.579,145.121l-1.005-0.335l0.67-1.675h1.005L385.579,145.121z M385.579,150.48v-2.01h1.005v2.01H385.579z M386.918,147.131
		h-0.67v-3.685h1.005L386.918,147.131z M390.604,182.976l-0.67,3.015l0.67,0.335l1.005-3.015L390.604,182.976z M395.629,138.42
		h-1.005l0.335,1.34h1.005L395.629,138.42z M407.688,126.696l-0.67,1.675l0.67,0.335l0.67-2.01H407.688z M425.109,172.591
		l-2.01,1.675l0.67,0.67l2.01-2.01L425.109,172.591z M430.134,165.891l-0.67-0.335l0.67-1.34h0.67L430.134,165.891z
		 M432.813,101.571c-0.67,0.895-1.455,1.34-2.345,1.34c2.9-0.22,4.355,0.56,4.355,2.345
		C434.824,103.246,434.154,102.021,432.813,101.571z M450.904,154.5c0-0.67-0.225-1.115-0.67-1.34c0,1.79-0.225,2.795-0.67,3.015
		h1.005C450.789,155.506,450.904,154.951,450.904,154.5z M452.914,137.416l-0.67-3.35h1.005l0.67,3.015L452.914,137.416z
		 M456.264,139.091c0.89,3.35,1.45,5.25,1.675,5.695c-2.01-3.35-3.13-5.245-3.35-5.695c0-0.445,0.11-1.005,0.335-1.675
		c0.22-0.67,0.335-1.115,0.335-1.34c0.89,0.67,1.56,1.005,2.01,1.005C457.269,137.306,456.934,137.976,456.264,139.091z
		 M461.958,146.795h-0.67v2.01h0.67V146.795z"/>
	<path fill="#FEFEFE" d="M463.63,228.201c-0.45,2.46-1.455,3.575-3.015,3.35c-0.45,0-2.125-1.56-5.025-4.69
		c0.22-1.34-0.67-2.9-2.68-4.69c-0.225-1.34-0.335-2.12-0.335-2.345c0.67,0,1.34,0.45,2.01,1.34l2.68-2.01
		c1.115-0.89,1.895-1.34,2.345-1.34C462.065,218.266,463.405,221.726,463.63,228.201z M459.275,61.371
		c0,0.45-0.167,1.005-0.502,1.675c-0.335,0.67-0.502,1.121-0.502,1.34c-1.12-0.22-2.235-0.22-3.35,0
		c-0.895-0.89-1.23-1.45-1.005-1.675c0-0.445,0.335-1.282,1.005-2.512c0.67-1.225,1.005-2.063,1.005-2.513
		c0.89,0,2.23,0.225,4.02,0.67L459.275,61.371z M629.79,117.986L623.425,121c-0.225,0.895,0.555,1.9,2.346,3.015
		c0,0.45-0.451,1.12-1.34,2.01c-4.021,0.45-9.83,0.785-17.42,1.005c-1.34,0-2.57,0.45-3.686,1.34c1.785,0.45,3.686,0.895,5.695,1.34
		c2.01,0.225,4.02,0.335,6.029,0.335c-2.461,0.45-6.145,1.005-11.055,1.675c-2.234,0.895-5.475,1.79-9.715,2.68
		c0.22,0.45,0.555,0.561,1.005,0.335c3.795-0.445,5.916-0.67,6.365-0.67c1.561,0,6.92-0.22,16.08-0.67l1.34,0.67l-2.344,1.675
		l-42.21,4.69c-15.41,1.565-29.37,2.57-41.875,3.015l-0.67,0.67c-0.225,0.225-2.57,6.815-7.035,19.765
		c-2.905,8.49-4.915,15.97-6.03,22.445c-3.35,21.89-1.9,39.42,4.355,52.595c11.61-6.919,17.085-10.385,16.415-10.385
		c0.89,0,2.345,1.172,4.355,3.518c2.01,2.345,3.46,3.632,4.355,3.853c0.445,0,0.67-0.11,0.67-0.335c0-0.22,0.22-0.22,0.67,0
		c0.445,0.225,1.115,0.895,2.01,2.01c1.34-1.115,8.485-4.91,21.44-11.39c-12.955,14.295-28.14,24.68-45.56,31.155
		c-0.896,0.45-1.34,0.895-1.34,1.34l0.67,1.005c4.465-0.22,15.63-5.58,33.5-16.08l-17.42,13.065
		c-11.17,8.04-18.54,11.725-22.11,11.055c-0.67,0-2.513-1.34-5.527-4.021c-3.015-2.68-4.638-4.355-4.858-5.025
		c-2.235,0.67-3.465,1.901-3.685,3.685l-4.02-0.67c-2.235-0.444-7.37-6.81-15.41-19.095c-3.13-4.91-4.69-14.625-4.69-29.145
		c0.22-10.495,1.115-20.77,2.68-30.82c0.445-2.9,3.35-15.185,8.71-36.85c-5.585,0.895-9.715,1.12-12.395,0.67
		c-1.565-0.22-4.135-1.115-7.705-2.68c-3.575-1.56-6.365-2.455-8.375-2.68l-9.045-1.34c-1.565,0-2.01,0-1.34,0
		c0-0.67,0.335-1.45,1.005-2.345c2.01-0.67,3.795-0.89,5.36-0.67c0.89,0.225,2.345,0.56,4.355,1.005
		c2.01,0.45,3.46,0.785,4.355,1.005l1.005-0.67c-0.45-0.67-1.9-1.675-4.355-3.015c1.115,0,3.015-0.11,5.695-0.335
		c-6.48-6.475-10.275-9.825-11.39-10.05c-0.67,0-2.795,0.225-6.365,0.67c0.22-0.67,0.78-0.89,1.675-0.67c0.22-0.22,0-0.67-0.67-1.34
		c1.785-1.785,3.57-3.57,5.36-5.36c4.69,0,7.145-0.78,7.37-2.345c0.445-2.01,0.11-3.015-1.005-3.015
		c-1.79-0.22-3.24-1.005-4.355-2.345c2.01-0.22,5.025-0.78,9.045-1.675l-1.005-1.34c1.34-0.67,3.46-1.785,6.365-3.35
		c0.445-0.67,0.335-1.005-0.335-1.005c1.34,0.225,2.12,0.67,2.345,1.34c1.56-0.445,2.565-1.785,3.015-4.02
		c1.56-0.67,3.795-1.225,6.7-1.675c4.24-0.445,10.605-1.225,19.095-2.345c0.89-1.785,3.57-9.6,8.04-23.45l0.67-4.69
		c0.22-0.89,1.225-3.125,3.015-6.7l0.335-3.35c0.67-1.785,1.895-4.575,3.685-8.375c0.22-0.89,0.67-2.229,1.34-4.02
		c1.785-2.01,3.015-3.905,3.685-5.695c2.68,1.79,5.695,3.91,9.045,6.365c1.34-1.115,3.235-2.68,5.695-4.69
		c0,0.895,0.89,3.465,2.68,7.705c0.89-2.01,2.345-5.36,4.355-10.05l1.675,0.67c0,1.79,0.78,4.58,2.345,8.375
		c0.445,3.13,0.67,6.48,0.67,10.05c0,5.585,0.22,8.155,0.67,7.705l-0.67,3.015h-1.005c-1.34,5.585-3.575,13.96-6.7,25.125
		c0.22,0.45,0.555,1.005,1.005,1.675c0.445,0,1.005-0.335,1.675-1.005c-0.225,0.895,0.11,1.455,1.005,1.675
		c1.56,0.225,4.13,0,7.705-0.67c3.125,0.225,8.15,0.335,15.075,0.335c8.71,0,13.735-0.11,15.075-0.335
		c-1.34,2.46-3.015,3.575-5.025,3.35l-5.025-0.67l-1.005,0.335c0.67,0.895,1.675,1.455,3.015,1.675c0.89,0,2.345-0.22,4.355-0.67
		c2.01-0.445,3.46-0.555,4.355-0.335c0.445,0,0.555,0.225,0.335,0.67c-0.225,0.45,0,0.67,0.67,0.67
		c-1.565-0.22,2.79-0.89,13.064-2.01c1.561,0,6.811,0,15.746,0c-0.67,0-2.178,0.502-4.523,1.507
		c-2.344,1.005-3.852,1.398-4.521,1.173c-4.916-0.67-9.27-0.335-13.065,1.005c0.67,0.895,1.34,1.34,2.01,1.34
		c10.495,1.79,14.741,2.235,12.729,1.34c0.67,0.895,2.455,3.24,5.361,7.035c0,0.67,0.109,1.34,0.334,2.01
		c1.785,0.895,2.346,1.23,1.676,1.005c1.561,0.225,4.689,0.225,9.379,0l0.67,0.67L629.79,117.986z M460.28,134.4l-4.69-0.67
		c0.67-0.22,1.34-0.555,2.01-1.005C458.49,133.846,459.385,134.4,460.28,134.4z M522.255,39.261c-1.34,0.895-2.125,1.34-2.345,1.34
		l-4.02-0.67c-0.225-0.22-0.502-0.67-0.837-1.34c-0.335-0.67-0.618-1.115-0.838-1.34c-1.34,0.225-2.46,1.063-3.35,2.513
		c-0.896,1.455-1.121,2.627-0.67,3.518c1.56,5.14,1.225,8.71-1.005,10.72c-2.01,1.34-4.915,3.24-8.71,5.695
		c-6.925,0.45-10.165,0.785-9.715,1.005c-1.34-0.22-2.345-1.058-3.015-2.513c-0.67-1.45-0.67-2.847,0-4.188
		c-0.67-0.89-1.565-2.345-2.68-4.355c-0.225-2.229-0.56-5.36-1.005-9.38c-1.565,1.34-2.795,1.9-3.685,1.675
		c-5.585-0.89-7.93-3.795-7.035-8.71c0.445-2.455,2.01-4.8,4.69-7.035c2.68-2.23,5.245-3.125,7.705-2.68
		c0.445,0,1.005,0.225,1.675,0.67c0.67,0.45,1.225,0.785,1.675,1.005c0.445,0,1.895-0.502,4.355-1.507
		c2.455-1.005,3.905-1.392,4.355-1.172c1.785,0.225,5.025,2.125,9.715,5.695c0.89,1.34,2.565,3.35,5.025,6.03
		c0.67-1.34,1.785-2.9,3.35-4.69c1.34-1.115,2.455-1.56,3.35-1.34c1.56,0.225,2.899,1.675,4.02,4.355L522.255,39.261z
		 M490.765,69.746l-6.03-2.345l0.335-0.67l5.695,2.01V69.746z M495.79,84.821c-0.45,2.235-1.675,3.13-3.685,2.68
		c-3.575-0.445-5.92-2.229-7.035-5.36c1.115-2.455,2.455-3.57,4.02-3.35C494,79.46,496.235,81.471,495.79,84.821z M509.525,46.295
		l-0.67-1.005l-0.67,0.335l0.67,1.005L509.525,46.295z M520.58,53.331l-12.395,36.515l10.05-40.2
		C518.68,49.871,519.46,51.101,520.58,53.331z M527.615,208.771c-1.121,0-1.9-0.555-2.345-1.675
		c-0.67-2.455-0.785-5.025-0.335-7.705c-0.225,1.79,1.785-6.03,6.03-23.45c-0.67,3.13-1.172,8.433-1.507,15.913
		C529.123,199.338,528.505,204.976,527.615,208.771z M553.075,87.166l-1.34,5.36h-1.34l1.675-5.695L553.075,87.166z M556.76,46.295
		h-1.005l0.335-1.34h1.005L556.76,46.295z M577.195,47.636c-0.225,2.235-2.01,4.135-5.36,5.695c-0.67-0.89-1.005-1.56-1.005-2.01
		c0.22-0.89,1.057-2.12,2.512-3.685c1.45-1.56,2.623-2.455,3.518-2.68C577.305,45.625,577.415,46.521,577.195,47.636z
		 M619.069,47.971c-2.01,1.34-3.574,1.9-4.689,1.675l-0.67-0.67l0.336-2.01c0.443-0.445,2.01-1.225,4.689-2.345l1.004,0.67
		L619.069,47.971z"/>
	<path fill="#FEFEFE" d="M571.833,211.786h-2.345v-1.34h2.345V211.786z M579.203,207.431l-3.015,1.005
		c-1.34,2.68-2.01,3.35-2.01,2.01c0-0.445,0.335-1.115,1.005-2.01c-1.115,0.45-2.9,0-5.36-1.34c0,0.45,0.56,0.67,1.675,0.67
		l6.7-2.01C578.868,206.651,579.203,207.211,579.203,207.431z M577.527,211.116l-3.35,2.01l-0.335-1.005l2.68-2.01L577.527,211.116z
		 M579.873,195.371l-3.685,3.685l-0.335-1.005l3.35-3.35L579.873,195.371z M795.278,163.545c-1.34,0-2.57,0.785-3.686,2.345
		c-0.895,1.34-0.895,2.68,0,4.02c-1.34,0.225-6.59,0.895-15.746,2.01c0,0.896,0.221,1.34,0.67,1.34h9.717
		c0,0.45,0.219,1.005,0.67,1.675c-4.246,0.225-8.375,0.335-12.396,0.335c-5.809,0.67-9.715,1.79-11.725,3.35
		c0.67,0.225,3.35,0.335,8.041,0.335c-1.34,0.225-3.352,0.785-6.031,1.675c-0.449,0.225-0.225,0.67,0.67,1.34
		c-1.119-0.445-2.125-0.335-3.014,0.335c2.68,0.225,6.584,0.56,11.725,1.005c-37.52,6.255-68.23,12.175-92.125,17.755
		c-1.791,1.34-5.25,3.35-10.385,6.03c-2.236,0.67-9.83,2.68-22.781,6.03v7.035c1.34,0,3.352,0.225,6.031,0.67h2.01
		c-5.586,0-8.375,1.34-8.375,4.02c-3.131,27.92-6.031,48.24-8.711,60.97c0.67-4.471,1.451-11.391,2.346-20.77l-1.006-1.006
		c-0.225,0-0.67,0.336-1.34,1.006c0.67,3.568-0.559,10.719-3.684,21.439c0.889-3.35,1.34-7.369,1.34-12.061
		c-0.227,0-0.451,0.111-0.67,0.336c-2.01,5.805-7.035,14.74-15.076,26.799c-0.449,0.221-1.119,0.67-2.01,1.34
		c-0.895,2.23-2.125,5.916-3.686,11.057c-2.234-2.236-3.129-3.801-2.68-4.691c2.01-6.924,0.221-13.064-5.359-18.424v-1.676
		l-1.006-1.34c-1.789,0.891-0.115,6.365,5.025,16.416c0-0.672-0.115-1.844-0.334-3.518c-0.227-1.676-0.336-2.848-0.336-3.518
		c0,1.113-2.346-2.682-7.035-11.391l-1.004-1.006c-0.67,1.561-1.791,3.57-3.351,6.031c-1.12-1.121-1.675-1.791-1.675-2.01
		c0-1.34,0.388-3.408,1.173-6.199c0.779-2.795,1.172-4.857,1.172-6.197c-0.67,1.34-1.79,4.24-3.35,8.711
		c-0.45-0.225-0.785-0.67-1.005-1.34c3.35-14.74,5.026-23.45,5.026-26.13v-1.675c-0.671-0.445-1.676-0.555-3.016-0.335l5.36-38.19
		c-0.67-0.89-1.23-1.34-1.674-1.34c-0.896,0.225-2.346,1.455-4.356,3.685l0.67-0.335c0.445-0.22,0.67-0.555,0.67-1.005
		c0.67-0.22,0.445-0.335-0.67-0.335c-0.895,0-3.465,1.23-7.705,3.685l-8.04,4.355c-0.45,0.225-0.785,0.335-1.005,0.335l-3.685-0.335
		c4.465,0.225,8.71-1.895,12.73-6.365c0.22,0.225-0.335,0.335-1.675,0.335c-0.45,0-0.56-0.22-0.335-0.67v-1.34
		c-2.68,2.68-4.69,4.02-6.03,4.02c-0.45,0-0.895-0.22-1.34-0.67l-1.005-0.67l1.005-0.67c0.22-0.445,0.555-0.67,1.005-0.67
		c0.89,0,1.34,0.115,1.34,0.335c0,0.225,0.11,0.335,0.335,0.335c1.115-2.01,1.675-3.235,1.675-3.685c0-0.89-1.005-2.565-3.015-5.025
		c0.445-1.34,1.005-3.235,1.675-5.695c0.22-0.445,0-0.67-0.67-0.67c-0.895,0-1.9,0.56-3.015,1.675c0.445-0.89,0.89-2.565,1.34-5.025
		h-4.02c4.24-3.125,9.825-7.255,16.75-12.395c2.899-0.67,6.365-2.68,10.384-6.03c-0.225-0.22-0.785-0.335-1.674-0.335
		c-2.906,0-6.648,1.397-11.223,4.188c-4.58,2.795-7.763,5.527-9.547,8.208c-0.225-0.445,0-1.005,0.67-1.675
		c-0.895-0.67-1.455-1.005-1.675-1.005c-0.67,0.225-1.005,0.785-1.005,1.675c0-1.785,0.445-3.46,1.34-5.025
		c-0.45,0.67-0.335,1.34,0.335,2.01c0.67-0.22,1.785-1.005,3.35-2.345c-0.895,0.895-1.005,1.565-0.335,2.01
		c3.125-5.135,10.385-8.82,21.774-11.055c0.67-0.67,1.34-1.56,2.01-2.68v-1.34c-0.225-0.445-0.785-0.67-1.674-0.67l-11.39,4.69
		c-0.226,0.45-0.226,0.785,0,1.005c-0.226-0.22-0.785-0.335-1.675-0.335c-1.34,0-4.806,1.675-10.385,5.025v-2.01
		c-0.45,0-1.34,0.67-2.68,2.01c1.785-1.785,4.02-4.13,6.7-7.035c2.01-0.89,2.9-1.34,2.68-1.34h1.005c0,0.45,0.22,0.67,0.669,0.67
		c0.891,0,6.365-1.675,16.416-5.025c0.445-1.56,0.445-3.015,0-4.355h-0.67c0-0.22,0.168-0.555,0.502-1.005
		c0.336-0.445,0.502-0.78,0.502-1.005c0.221-0.67,0.221-1.895,0-3.685c0.221-0.89,0.336-2.68,0.336-5.36l7.369-60.3
		c0-2.455,0.891-6.585,2.682-12.395c2.229-7.145,3.459-11.5,3.684-13.065c2.68-13.175,5.695-23.785,9.045-31.825
		c2.23-0.89,3.906-2.68,5.025-5.36l2.68-7.035c-0.225,0.67-0.334,1.34-0.334,2.01c0,0.45,0.109,0.785,0.334,1.005
		c2.23-4.465,6.92-9.265,14.07-14.405l-3.016,3.015c0.672,0.45,1.561,0.115,2.682-1.005c-4.246,5.14-6.146,8.375-5.695,9.715
		c0.219-0.89,1.004-2.12,2.344-3.685c12.061-6.7,18.646-10.05,19.766-10.05l1.34,1.34c1.34-2.455,5.916-3.685,13.736-3.685
		c3.123,0,6.248,1.005,9.379,3.015c2.68,2.68,4.02,4.135,4.02,4.355c0.67,0,1.006-0.167,1.006-0.502s0.219-0.502,0.67-0.502
		c0.445,0,0.891,0.45,1.34,1.34c0.445,0.895,0.891,1.34,1.34,1.34c6.92,0.45,12.506,2.345,16.75,5.695
		c1.785,1.34,3.686,3.13,5.695,5.36c3.795,2.68,6.92,4.02,9.379,4.02c-0.895,0,0-0.67,2.682-2.01
		c0.889,2.46,2.119,5.811,3.684,10.05c-0.895,0.225-3.014-0.11-6.365-1.005c-3.35-0.89-5.359-1.34-6.029-1.34
		s-1.674,1.005-3.016,3.015c-1.34,2.01-2.234,3.015-2.68,3.015c-0.895,0-4.521-1.953-10.887-5.863
		c-6.365-3.905-10.107-6.417-11.223-7.537c-0.895,0-1.34,0.335-1.34,1.005c0,0.225,0.219,0.56,0.67,1.005
		c-1.121-1.115-2.234-1.675-3.35-1.675l-2.01,1.005c-2.012,0.45-4.916,1.565-8.711,3.35c-6.926,7.82-12.73,22.67-17.42,44.555
		c-0.895,3.35-2.234,10.5-4.02,21.44c-0.67,0.67-1.34,1.791-2.01,3.35c-0.67,4.02-1.455,9.605-2.346,16.75
		c-0.895,1.34-1.9,3.35-3.016,6.03l-1.674,25.125c0.219,0,0.67,0.225,1.34,0.67c0.67,0.45,1.115,0.67,1.34,0.67
		c-1.121,0-2.234,0.785-3.35,2.345c1.115,0.67,3.014,0.785,5.695,0.335c1.34-0.22,3.234-0.445,5.693-0.67
		c-2.68,0.67-6.699,2.235-12.059,4.69c0,0.45,0.219,0.67,0.67,0.67l44.555-7.705c2.23,0.225,5.914,0.56,11.055,1.005
		c-7.369,0.895-19.766,3.465-37.186,7.705c2.9,1.12,4.691,1.675,5.361,1.675l66.33-7.37l-45.227,7.37l-1.34,1.005
		c0.221,0.225,1.34,0.335,3.352,0.335l53.934-8.71C776.292,160.196,789.468,161.316,795.278,163.545z M582.218,213.795
		c-1.34,1.565-2.01,2.46-2.01,2.68c0-0.22-0.115-0.67-0.335-1.34l-0.335-1.34l0.67,1.34
		C580.877,214.246,581.547,213.795,582.218,213.795z M587.243,217.48l-0.67-1.005l-1.34,1.005v0.67L587.243,217.48z
		 M600.642,228.871c-1.12-0.445-2.569,0.167-4.354,1.842c-1.79,1.675-3.13,2.513-4.021,2.513c2.455-1.115,5.471-2.565,9.046-4.355
		H600.642z M608.683,262.371v-6.7c-0.451,0-1.006-0.335-1.676-1.005c-0.225,0.67-0.67,1.565-1.34,2.68
		c-0.67,6.254-1.455,14.514-2.344,24.79C606.892,269.85,608.683,263.266,608.683,262.371z M607.007,183.311v-1.005h-2.01v1.005
		H607.007z M612.032,306.926h-1.34v-1.676h1.34V306.926z M613.038,122.676h-1.006v-2.345h1.006V122.676z M638.163,54v-2.68h-0.67V54
		H638.163z M646.202,19.831l-4.355,5.36l-0.67-1.005l4.355-4.69L646.202,19.831z M642.183,47.636v-2.68h-1.006v2.68H642.183z
		 M644.192,40.266h-0.67l-1.676,4.355l0.67,0.335L644.192,40.266z M645.198,40.266v-1.675h-1.34v1.675H645.198z M648.548,29.881
		h-0.67l-3.686,8.04l1.34,0.335L648.548,29.881z M678.028,31.891h-0.67l-2.682,5.695l0.67,0.335L678.028,31.891z M692.097,16.815
		c-0.67,0-1.674-0.22-3.014-0.67c-1.34-0.445-2.461-0.67-3.35-0.67c-2.236,0-4.246,0.67-6.031,2.01
		C682.382,17.486,686.513,17.266,692.097,16.815z M716.218,158.186h-4.355v-1.005h4.355V158.186z M722.583,157.516h-4.691v-1.34
		h4.691V157.516z M727.608,156.511h-4.355v-1.005h4.355V156.511z M733.638,156.176h-5.025v-1.005h5.025V156.176z M735.647,32.561
		l-0.334,1.005l-2.012-1.005v-0.67L735.647,32.561z M739.333,155.506h-3.686v-1.34h3.686V155.506z M763.788,214.466h-2.346v-1.005
		h2.346V214.466z"/>
	<path fill="#FEFEFE" d="M854.905,164.216c0,4.02-1.674,9.94-5.025,17.755c-1.34,3.8-3.238,9.83-5.693,18.09
		c-2.682,2.905-6.48,7.82-11.391,14.74l1.676-3.35c1.34-2.455,1.783-3.905,1.34-4.355c-1.791,2.46-4.246,6.48-7.371,12.06
		c-1.34,1.12-3.35,3.24-6.029,6.365c-1.34,2.46-3.24,6.03-5.695,10.72c-5.811,8.265-12.285,14.965-19.43,20.1
		c-12.285,9.16-20.436,13.734-24.455,13.734c-0.67,0-1.676-0.225-3.016-0.67c-1.34-0.449-2.234-0.67-2.68-0.67
		c-1.791,0-4.303,0.389-7.537,1.174c-3.24,0.779-5.752,1.172-7.537,1.172c-6.701,0-13.852-3.574-21.441-10.72l-6.699-1.34
		c-0.225,0.67-0.336,1.566-0.336,2.68c0,1.12,0.111,2.46,0.336,4.021c-2.234-2.9-5.25-6.701-9.045-11.391
		c-0.225-1.115-0.785-3.125-1.676-6.03c-0.67-0.445-1.34-0.89-2.01-1.34c-0.449-2.9-1.119-7.37-2.01-13.4
		c1.115-1.34,1.676-2.345,1.676-3.015c-2.236-5.135-3.686-9.49-4.355-13.065c0.67-0.67,0.67-6.7,0-18.09
		c2.01-16.3,6.141-32.38,12.395-48.24c2.455-6.919,7.256-14.18,14.406-21.775c7.59-8.93,14.404-14.07,20.434-15.41
		c0.891,0,5.135-1.785,12.73-5.36c-15.41,6.255-27.695,15.97-36.85,29.145c-0.225,0.225,0,0.67,0.67,1.34l1.674-1.34
		c-2.904,3.13-5.25,6.925-7.033,11.39l1.34,0.67c6.92-9.6,18.199-19.765,33.834-30.485c-0.67,0-2.57,0.56-5.695,1.675
		c14.291-8.485,25.346-12.615,33.166-12.395c-0.225,0-0.67,0.335-1.34,1.005c0.67,0.45,1.449,0.67,2.344,0.67
		c1.115,0,2.791-0.22,5.025-0.67c2.23-0.445,3.904-0.67,5.025-0.67c0.67,0,2.178,0.785,4.521,2.345
		c2.346,1.565,3.738,2.345,4.188,2.345c0.891,0,1.283-0.168,1.174-0.503c-0.115-0.335,0.053-0.502,0.502-0.502
		c0.67,0.225,1.617,0.953,2.848,2.178c1.225,1.23,4.521,4.857,9.883,10.887c0.889,2.01,3.125,4.69,6.699,8.04l1.34-1.34
		c-1.564-0.67-2.178-1.56-1.842-2.68c0.334-1.115,0.053-2.01-0.838-2.68c3.57,0,6.25,0.785,8.041,2.345
		c1.34-1.56,2.01-2.565,2.01-3.015c0.889,2.46,2.68,5.025,5.359,7.705c1.561,1.791,3.904,7.485,7.035,17.085
		c0,0.896,0.109,2.345,0.334,4.355c0.445,0.895,1.451,1.79,3.016,2.68C854.235,160.196,854.905,162.206,854.905,164.216z
		 M741.005,128.706l-4.354,4.69l-0.336-1.005l4.02-4.02L741.005,128.706z M746.366,125.355l-4.355,3.35l-0.334-1.34l4.02-3.015
		L746.366,125.355z M799.63,157.516c-2.234-3.35-3.574-5.915-4.02-7.705c-2.904,2.01-7.594,5.81-14.07,11.39
		c0.221-1.34,1.115-3.015,2.682-5.025c-10.275,12.73-17.756,26.915-22.445,42.545c-0.896-1.34-1.455-2.01-1.676-2.01
		c-1.564,0-3.072,2.68-4.521,8.04c-1.455,5.36-2.178,9.16-2.178,11.39c0,4.47,1.004,10.275,3.014,17.42
		c8.93-2.455,17.531-9.045,25.795-19.765c8.26-10.72,12.281-20.435,12.061-29.145c0.891,0.45,1.561-0.22,2.01-2.01l1.006-2.345
		c-1.791-0.67-3.686-1.45-5.695-2.345c0.221-1.115,0.336-2.01,0.336-2.68c0-2.229-3.576-4.24-10.721-6.03l8.375-0.335
		c1.115,0.45,2.68,1.455,4.689,3.015c0.221-0.67,0.555-1.45,1.006-2.345c-1.34,0-2.125-0.11-2.346-0.335
		c1.115-1.115,1.561-2.01,1.34-2.68c-0.895-0.67-2.125-1.56-3.686-2.68c3.352-1.115,5.58-2.565,6.701-4.355
		c-0.67-0.89-1.564-1.895-2.68-3.015c0.67,0,1.559,0.167,2.68,0.502C798.401,157.348,799.181,157.516,799.63,157.516z
		 M769.815,108.605h-2.01v-1.34h2.01V108.605z M784.222,108.94c-2.461,0.67-7.486,2.345-15.076,5.025h3.016
		C773.501,114.191,777.521,112.516,784.222,108.94z M774.171,106.931h-2.01v-1.34h2.01V106.931z M788.911,178.956h-1.676v-1.34
		h1.676V178.956z M848.54,124.016h-1.34V121h1.34V124.016z"/>
	<path fill="#FEFEFE" d="M927.933,225.855c-1.121,0.895-5.25,3.24-12.395,7.035c0.445,0.895,0.779,1.34,1.004,1.34
		c0.891,0,1.676-0.335,2.346-1.005c-0.225,0.67-0.336,1.12-0.336,1.34c-0.449,0.225-0.225,0.335,0.67,0.335
		c0.67,0,1.115-0.335,1.342-1.005c0.67,1.34,0.889,2.795,0.67,4.355c-0.227,1.565-0.561,2.57-1.006,3.015
		c-3.801,1.34-8.154,4.135-13.064,8.375c-0.227,0-0.67-0.22-1.34-0.67c-0.67-0.445-1.23-0.67-1.676-0.67
		c-1.119-0.22-3.016,0.56-5.695,2.345l-0.334,2.01c-1.566,0.67-2.906,1.455-4.021,2.345c-0.449,0.225-0.225,0.335,0.67,0.335
		c0.891,0.225,2.346-0.11,4.355-1.005c-1.34,0.45-3.129,1.005-5.359,1.675c-0.67,0.895-1.564,2.01-2.68,3.35
		c-1.34-0.22-3.35-0.22-6.031,0c-2.459,1.34-4.805,2.46-7.035,3.35c-2.904,1.79-4.805,3.686-5.693,5.695
		c0.219-1.121-0.115-2.346-1.006-3.686c-1.564,1.121-2.346,2.346-2.346,3.686c-0.225,1.115-0.115,2.01,0.336,2.68l-1.34-1.676
		c-1.121,1.115-2.68,3.016-4.689,5.695c-0.227-0.449-0.67-1.119-1.34-2.01c-2.012,0-3.131,1.006-3.352,3.016
		c-0.225,2.01-0.334,3.686-0.334,5.025v1.004h-2.346c0-0.67,0.221-1.34,0.67-2.01v-2.346c0.221-0.67,0.109-1.674-0.334-3.014
		l-5.361,4.355c-2.898-0.227-5.023-1.791-6.365-4.691l-2.01,1.676c0-1.121-0.334-2.125-1.004-3.016
		c-0.221,0.221-0.445,0.555-0.67,1.006c-0.221,0.445-0.445,0.779-0.67,1.004c0-0.895,0.559-2.459,1.674-4.689l-1.004-0.67
		c-0.67,0.891-1.451,1.895-2.346,3.016c0-0.67,0.336-2.346,1.006-5.025c0.225-2.68-0.445-4.021-2.01-4.021
		c-0.67-0.22-1.896,0-3.686,0.671c0,0.67,0.115,1.229,0.334,1.674l1.676-1.004c0.67,0,0.115,0.785-1.676,2.344
		c0-1.34-0.555-2.564-1.674-3.685c0-0.22-0.221-0.11-0.67,0.335c0,1.121,0,2.791,0,5.025c-0.221-1.34-0.221-2.9,0-4.689
		c-0.221-0.221-0.781-0.336-1.676-0.336c-0.445,0-0.779,0.168-1.004,0.503c-0.221,0.335-0.445,0.503-0.67,0.503
		c0.449-0.221,0.727-0.556,0.836-1.006c0.115-0.445,0.283-0.779,0.504-1.005c-0.891-1.114-1.896-2.229-3.016-3.35l3.016,2.01
		c0.449-0.444,0.225-1.226-0.67-2.345l6.699-8.71c-0.221-0.22-0.779-0.335-1.676-0.335c1.34,0-1.113,0.67-7.369,2.01
		c2.234-1.115,5.475-2.79,9.715-5.025c0-0.445,0-1.115,0-2.01c0.449-0.445,1.9-2.68,4.355-6.7c0.449-0.445,1.732-1.45,3.852-3.015
		c2.125-1.56,3.184-3.015,3.184-4.355c1.34-0.445,2.68-1.34,4.02-2.68c12.504-26.575,22.221-61.525,29.145-104.855l1.006-17.085
		c-3.576,21.22-5.586,33.5-6.031,36.85c-3.129,14.07-6.699,26.02-10.719,35.845c6.475-33.275,10.049-54.155,10.719-62.645l0.67,1.34
		c0.221-0.445,0.336-1.005,0.336-1.675c0.219-0.445,0.219-0.89,0-1.34c-1.34,1.12-2.01,1.34-2.01,0.67
		c0-0.22,0.168-0.722,0.502-1.507c0.336-0.78,0.502-1.508,0.502-2.178l2.01-52.26c0.221-7.145,1.561-13.175,4.021-18.09v-1.34
		c0.67-0.445,1.674-1.005,3.014-1.675c0.221-0.89,0.336-1.45,0.336-1.675h0.67c0.445,0,0.779,0,1.006,0c0,0.45,0.219,1.12,0.67,2.01
		l-2.682,55.61c0.67-2.455,1.785-11.5,3.352-27.135l-0.336-14.74c0.445-3.57,1.34-7.59,2.68-12.06
		c0.221,0.895,0.555,2.01,1.006,3.35c1.34-1.115,2.119-3.46,2.344-7.035c1.561,0.895,2.791,1.34,3.686,1.34
		c0.445-0.445,1.225-1.34,2.346-2.68v2.68c0.67,0.225,2.229,0.45,4.689,0.67c1.561,0.225,2.346,0,2.346-0.67
		c-0.227,1.12-0.115,2.125,0.334,3.015c0-1.115,0.555-2.565,1.676-4.355c1.115-1.785,2.119-2.565,3.016-2.345v2.01
		c-1.566,0.895-2.57,1.79-3.016,2.68l0.334,2.345c1.785-0.67,3.795-2.455,6.031-5.36l-0.67,5.36c0,2.235,1.449,3.465,4.354,3.685
		c-0.895,2.01-1.455,3.8-1.674,5.36c-0.225,2.68-0.115,10.166,0.334,22.445l-0.67,6.03c-0.225,2.235,0.221,3.685,1.34,4.355
		l-3.35,31.49c-2.234,22.56-9.379,54.385-21.439,95.475c0,0.45-0.451,1.675-1.34,3.685c-0.451,0.67-0.561,1.12-0.336,1.34
		c0.67-0.445,1.451-0.555,2.346-0.335c0.445,0.225,1.34,1.23,2.68,3.015h1.676c1.34-1.34,2.119-2.79,2.344-4.355
		c0,0.225,0.221,0.785,0.67,1.675c0.891,0,1.451-0.445,1.676-1.34c-0.67,1.34-2.57,3.015-5.695,5.025
		c2.01,0.45,3.57,0.67,4.689,0.67c5.361-2.01,8.486-3.015,9.381-3.015c0.67,0,1.449,0.502,2.346,1.508
		c0.889,1.005,1.449,1.507,1.674,1.507c0.445,0.225,0.891,0,1.34-0.67c0.445-0.67,0.891-0.89,1.34-0.67
		c2.455,0.225,5.695,1.455,9.715,3.685L927.933,225.855z M835.138,258.016l-0.67-0.67l-1.006,2.01l0.67,0.335L835.138,258.016z
		 M837.817,262.706c-0.67-2.455-0.891-4.465-0.67-6.03c-0.445,0.45-1.34,2.235-2.68,5.36
		C836.257,262.036,837.372,262.26,837.817,262.706z M836.478,272.756l-1.006-0.336l0.336-3.016l1.006,0.336L836.478,272.756z
		 M844.853,271.417l-1.34-0.336l-0.67,3.016h1.004L844.853,271.417z M845.858,232.556l-1.006,1.34l-0.67-0.335l1.006-1.34
		L845.858,232.556z M860.933,198.051c-0.67,2.68-2.795,7.37-6.365,14.07c-1.564,2.01-3.016,4.355-4.355,7.035
		c1.785-4.91,4.576-12.06,8.375-21.44L860.933,198.051z M864.618,178.621l-1.006,2.345l-1.004-0.335l0.67-2.345L864.618,178.621z
		 M870.313,144.451h-0.672l0.336-2.01l0.67,0.335L870.313,144.451z M873.997,126.696l-0.67,4.355l-1.004-0.335l0.67-4.02H873.997z
		 M889.407,264.381c-3.574,2.01-7.26,4.574-11.055,7.705c0.891,1.783,2.23,2.789,4.02,3.014c0.445,0.221,0.891,0.221,1.34,0v-0.67
		c-0.225,2.01-0.449,2.9-0.67,2.68c-0.225-0.225-0.785-0.225-1.674,0l-1.006,0.336c-1.34-1.34-1.674-2.01-1.004-2.01
		c-0.896-0.67-3.016-1.23-6.365-1.676C878.353,269.961,883.823,266.836,889.407,264.381z M874.667,122.006l-1.004-0.335l0.334-5.025
		h1.34L874.667,122.006z M878.688,91.855l1.674-32.16c-0.449-0.22-1.23,3.465-2.346,11.055
		C878.907,80.131,879.132,87.166,878.688,91.855z M889.073,258.351l0.334-1.34h-2.344l-0.336,1.005L889.073,258.351z
		 M892.423,211.786h-0.67l-2.01,3.015l0.67,0.67L892.423,211.786z M893.763,205.756h-1.006l-1.674,4.69h0.67L893.763,205.756z
		 M895.772,217.815l-0.67-1.34l-4.02,2.345v1.34L895.772,217.815z M902.138,253.996l-1.676,0.335v-1.005l1.676-0.67V253.996z
		 M911.183,256.341c-0.225,0-0.617,0.167-1.172,0.502c-0.561,0.335-1.174,0.393-1.844,0.167l-4.02-0.335
		c1.115-0.89,2.455-1.225,4.02-1.005L911.183,256.341z M915.202,215.136l-1.674,2.345l-0.67-1.005l1.674-2.01L915.202,215.136z
		 M920.563,117.986l-1.342-0.335l0.336-3.35l1.34,0.335L920.563,117.986z M920.563,216.476h-1.342l0.336-2.01l1.006,0.335V216.476z
		 M921.903,104.92h-1.34l0.334-3.35h1.34L921.903,104.92z M927.263,224.181h-1.006l-1.004,2.68h1.004L927.263,224.181z"/>
	<path fill="#FEFEFE" d="M1027.763,233.226c-3.576,2.46-5.361,4.135-5.361,5.025c-0.225,0.67,0.221,1.12,1.34,1.34
		c-0.895,0.895-4.02,3.575-9.379,8.04c-0.451,0.45-0.67,1.12-0.67,2.01c-1.791,2.01-3.91,4.245-6.365,6.7
		c-1.121,1.12-3.131,3.015-6.031,5.695c-2.459,1.564-5.693,3.91-9.715,7.035l-0.334,0.67l1.674-1.006
		c-0.225,0.221-0.449,0.555-0.67,1.006c0,0.445,0.221,0.891,0.67,1.34c-1.34,0.67-2.795,0.891-4.354,0.67
		c-0.227,0.445-0.451,0.891-0.67,1.34c0,0.445,0.219,0.779,0.67,1.006h-1.006c-0.67-0.451-1.23-0.67-1.674-0.67
		c-1.121,0-1.676,0.443-1.676,1.34c-0.225,0.67-0.225,1.559,0,2.68c-1.121-0.67-2.57-1.006-4.355-1.006
		c-0.895,0.67-1.455,1.006-1.674,1.006c-0.67-0.225-1.676-0.617-3.016-1.172c-1.34-0.561-2.346-0.838-3.016-0.838
		c-1.119-1.121-2.459-2.906-4.02-5.361c-0.225-0.67-0.67-1.004-1.34-1.004s-1.006,0.445-1.006,1.34
		c-0.225-0.449-0.785-1.23-1.674-2.346c-0.67,0.891-1.455,1.225-2.346,1.006c-2.459,0.219-4.02,0.334-4.689,0.334
		c-0.451,0-0.561-0.115-0.336-0.334c0.445-0.451,0.445-0.67,0-0.67c-2.459-0.225-4.469-2.346-6.029-6.365
		c-4.916-12.73-6.699-25.795-5.359-39.195c1.34-11.39,4.354-26.465,9.045-45.225c3.795-16.525,7.705-29.925,11.725-40.2
		c1.34-3.35,3.57-6.7,6.699-10.05c0.891-0.22,2.23-0.78,4.021-1.675c0.443-0.22,1.559-1.005,3.35-2.345
		c0.889,1.34,2.344,3.575,4.354,6.7c3.57-2.229,6.25-3.235,8.041-3.015h2.01c0,0.225-0.115,0.56-0.334,1.005l-0.336,0.67
		c0.445,0.45,0.779,0.67,1.006,0.67c0.67,0,1.783-0.89,3.35-2.68c0.67-0.22,1.559-0.67,2.68-1.34c-2.234,2.905-3.465,5.14-3.686,6.7
		v2.01l1.006,1.005c0.67,0,1.449-0.335,2.344-1.005c0.221,1.565,0.336,2.795,0.336,3.685c-0.225,0.895-0.67,1.34-1.34,1.34h-1.34
		l0.334,2.68c0.67-0.67,1.34-1.005,2.01-1.005c0,0.225,0.111,0.67,0.336,1.34c-1.564,0.895-2.461,1.9-2.68,3.015
		c0.219-0.445,0.219-0.78,0-1.005l-4.02,20.435c-6.256,21.44-10.166,39.865-11.727,55.275c-0.67,7.15-0.895,14.07-0.67,20.77
		c0.221,0.225,0.555,0.45,1.006,0.67l27.471-17.755c-2.012,4.02-5.586,8.04-10.721,12.06c-2.461,1.79-6.926,5.025-13.4,9.715
		c0.891-0.67,6.25-4.24,16.08-10.72l-17.756,14.07c0.221,0.225,0.781,0.115,1.676-0.335l-2.346,1.675
		c0,0.225,0.336,0.335,1.006,0.335c0.891,0.225,12.061-7.255,33.5-22.445c0.221,0.45,0.779,0.785,1.676,1.005
		c0.67-0.22,2.01-0.67,4.02-1.34c-2.236,1.565-3.35,2.795-3.35,3.685c-0.227,1.565,0.555,2.46,2.344,2.68
		C1023.962,233.896,1025.526,233.676,1027.763,233.226z M957.411,267.061v-0.67l-2.344-0.336v0.67L957.411,267.061z
		 M962.437,259.021l0.336-1.005l-3.686-0.335l-0.336,1.005L962.437,259.021z M961.767,268.401l0.336-1.34h-1.006l-0.334,1.34
		H961.767z M964.446,255.67l-3.014-0.335l-0.336,1.34C961.987,256.456,963.106,256.121,964.446,255.67z M968.132,283.141
		l-6.365-1.34l0.336-1.006l6.029,1.34V283.141z M1034.796,80.466c-0.449-0.445-1.119-1.225-2.01-2.345
		c-0.225,0-0.449,0.115-0.67,0.335c0.221,0.67,0.336,1.565,0.336,2.68c-0.225,1.79-0.895,3.8-2.01,6.03
		c0.219-1.56,0.109-4.24-0.336-8.04c-0.449-0.22-0.785-0.22-1.004,0c0,0.45,0,1.23,0,2.345c-1.791,1.565-2.57,3.35-2.346,5.36
		c0.445,0.45,1.225,1.23,2.346,2.345c0.443-0.445,0.67-0.78,0.67-1.005l-3.016,7.705c-2.68,2.46-7.26,6.03-13.734,10.72
		c0,0.45,0.277,0.895,0.836,1.34c0.557,0.45,0.838,0.895,0.838,1.34c0,0.225-0.225,0.561-0.67,1.005
		c-2.01-1.785-3.465-2.68-4.355-2.68l-5.693,2.68c1.34-1.785,2.119-3.015,2.344-3.685l-2.344-0.335l-0.336,3.35
		c0-0.445-0.334-0.67-1.004-0.67c-0.451,0-0.67,0.115-0.67,0.335c0,0.67,0.219,1.34,0.67,2.01c-0.451-0.445-1.121-1.507-2.012-3.183
		c-0.895-1.675-1.564-2.512-2.01-2.512c-2.01-0.22-3.465-0.11-4.354,0.335c-0.67-3.35-2.012-4.69-4.021-4.02
		c1.34-1.34,2.121-2.345,2.346-3.015c-0.67-0.67-1.121-1.005-1.34-1.005l-1.676,1.34c-1.564,1.34-3.014,1.9-4.354,1.675
		c-0.227,0-0.336-0.11-0.336-0.335c0-0.22-0.225-0.335-0.67-0.335c-0.225,0-0.729,0.225-1.508,0.67
		c-0.785,0.45-1.287,0.67-1.508,0.67c-2.459-0.22-3.35-4.13-2.68-11.725l1.34-1.005c0.891-2.01,1.225-4.02,1.006-6.03
		c1.34-4.465,5.135-12.06,11.389-22.78c4.91-2.01,9.381-3.685,13.4-5.025c-0.67-0.89-1.564-1.34-2.68-1.34
		c-0.449,0-1.004,0.225-1.676,0.67c-4.689,0.67-8.877,3.24-12.563,7.705c-3.684,4.47-5.861,9.16-6.531,14.07
		c0.889-2.68,1.785-6.365,2.68-11.055c-6.699,5.14-10.051,11.17-10.051,18.09c0.445,0.895,0.781,2.01,1.006,3.35
		c0-0.445-0.225-0.67-0.67-0.67c-0.451,0-1.121,0.115-2.01,0.335l-0.336-2.68c0.891-8.485,5.805-15.965,14.74-22.445l4.355-3.35
		c0-1.34-0.451-3.35-1.34-6.03c2.01-1.34,3.57-2.01,4.689-2.01c1.785,0.225,4.689,1.005,8.711,2.345l9.045,3.015
		c0,0.45,0.67,1.79,2.01,4.02c1.115-0.22,2.01-0.22,2.68,0c0.221,0.67,0.445,1.005,0.67,1.005c0.445,0,0.779-0.11,1.006-0.335
		c0.219-0.22,0.443-0.335,0.67-0.335c0.443,0,0.836,0.335,1.172,1.005c0.334,0.67,0.723,1.005,1.172,1.005
		c0.445,0,1.006-0.11,1.676-0.335c0.67-0.22,1.225-0.335,1.674-0.335c0,0.895,0.389,1.455,1.174,1.675
		c0.779,0.225,1.057,0.502,0.838,0.837c-0.227,0.335-0.115,0.503,0.334,0.503c2.455,0.225,4.131,0.225,5.025,0l0.67,1.005
		c-0.225,0.225-0.451,0.45-0.67,0.67c0,0.45,0.334,1.23,1.004,2.345l-4.354,2.01c0,0.45,0.443,0.785,1.34,1.005
		c-0.451,1.12-0.67,2.905-0.67,5.36c1.34,0,2.898,0.895,4.689,2.68L1034.796,80.466z M978.183,87.166l-0.67-0.335l-0.336-1.34h0.67
		L978.183,87.166z M985.888,245.621l-0.67-1.005l-1.676,1.005l0.334,0.67L985.888,245.621z M986.892,64.051h-0.67l-1.004,1.005
		l0.67,0.335L986.892,64.051z M1015.032,237.246v-0.335l-1.34,0.335v0.67L1015.032,237.246z M1029.437,86.496l-0.67,1.005
		l-0.67-0.335l0.336-1.34L1029.437,86.496z"/>
	<path fill="#FEFEFE" d="M1175.495,164.216c0,4.02-1.674,9.94-5.025,17.755c-1.34,3.8-3.238,9.83-5.693,18.09
		c-2.682,2.905-6.48,7.82-11.391,14.74l1.676-3.35c1.34-2.455,1.783-3.905,1.34-4.355c-1.791,2.46-4.246,6.48-7.371,12.06
		c-1.34,1.12-3.35,3.24-6.029,6.365c-1.34,2.46-3.24,6.03-5.695,10.72c-5.811,8.265-12.285,14.965-19.43,20.1
		c-12.285,9.16-20.436,13.734-24.455,13.734c-0.67,0-1.676-0.225-3.016-0.67c-1.34-0.449-2.234-0.67-2.68-0.67
		c-1.791,0-4.303,0.389-7.537,1.174c-3.24,0.779-5.752,1.172-7.537,1.172c-6.701,0-13.852-3.574-21.441-10.72l-6.699-1.34
		c-0.225,0.67-0.336,1.566-0.336,2.68c0,1.12,0.111,2.46,0.336,4.021c-2.234-2.9-5.25-6.701-9.045-11.391
		c-0.225-1.115-0.785-3.125-1.676-6.03c-0.67-0.445-1.34-0.89-2.01-1.34c-0.449-2.9-1.119-7.37-2.01-13.4
		c1.115-1.34,1.676-2.345,1.676-3.015c-2.236-5.135-3.686-9.49-4.355-13.065c0.67-0.67,0.67-6.7,0-18.09
		c2.01-16.3,6.141-32.38,12.395-48.24c2.455-6.919,7.256-14.18,14.406-21.775c7.59-8.93,14.404-14.07,20.434-15.41
		c0.891,0,5.135-1.785,12.73-5.36c-15.41,6.255-27.695,15.97-36.85,29.145c-0.225,0.225,0,0.67,0.67,1.34l1.674-1.34
		c-2.904,3.13-5.25,6.925-7.033,11.39l1.34,0.67c6.92-9.6,18.199-19.765,33.834-30.485c-0.67,0-2.57,0.56-5.695,1.675
		c14.291-8.485,25.346-12.615,33.166-12.395c-0.225,0-0.67,0.335-1.34,1.005c0.67,0.45,1.449,0.67,2.344,0.67
		c1.115,0,2.791-0.22,5.025-0.67c2.23-0.445,3.904-0.67,5.025-0.67c0.67,0,2.178,0.785,4.521,2.345
		c2.346,1.565,3.738,2.345,4.188,2.345c0.891,0,1.283-0.168,1.174-0.503c-0.115-0.335,0.053-0.502,0.502-0.502
		c0.67,0.225,1.617,0.953,2.848,2.178c1.225,1.23,4.521,4.857,9.883,10.887c0.889,2.01,3.125,4.69,6.699,8.04l1.34-1.34
		c-1.564-0.67-2.178-1.56-1.842-2.68c0.334-1.115,0.053-2.01-0.838-2.68c3.57,0,6.25,0.785,8.041,2.345
		c1.34-1.56,2.01-2.565,2.01-3.015c0.889,2.46,2.68,5.025,5.359,7.705c1.561,1.791,3.904,7.485,7.035,17.085
		c0,0.896,0.109,2.345,0.334,4.355c0.445,0.895,1.451,1.79,3.016,2.68C1174.825,160.196,1175.495,162.206,1175.495,164.216z
		 M1061.595,128.706l-4.354,4.69l-0.336-1.005l4.02-4.02L1061.595,128.706z M1066.956,125.355l-4.355,3.35l-0.334-1.34l4.02-3.015
		L1066.956,125.355z M1120.22,157.516c-2.234-3.35-3.574-5.915-4.02-7.705c-2.904,2.01-7.594,5.81-14.07,11.39
		c0.221-1.34,1.115-3.015,2.682-5.025c-10.275,12.73-17.756,26.915-22.445,42.545c-0.896-1.34-1.455-2.01-1.676-2.01
		c-1.564,0-3.072,2.68-4.521,8.04c-1.455,5.36-2.178,9.16-2.178,11.39c0,4.47,1.004,10.275,3.014,17.42
		c8.93-2.455,17.531-9.045,25.795-19.765c8.26-10.72,12.281-20.435,12.061-29.145c0.891,0.45,1.561-0.22,2.01-2.01l1.006-2.345
		c-1.791-0.67-3.686-1.45-5.695-2.345c0.221-1.115,0.336-2.01,0.336-2.68c0-2.229-3.576-4.24-10.721-6.03l8.375-0.335
		c1.115,0.45,2.68,1.455,4.689,3.015c0.221-0.67,0.555-1.45,1.006-2.345c-1.34,0-2.125-0.11-2.346-0.335
		c1.115-1.115,1.561-2.01,1.34-2.68c-0.895-0.67-2.125-1.56-3.686-2.68c3.352-1.115,5.58-2.565,6.701-4.355
		c-0.67-0.89-1.564-1.895-2.68-3.015c0.67,0,1.559,0.167,2.68,0.502C1118.991,157.348,1119.771,157.516,1120.22,157.516z
		 M1090.405,108.605h-2.01v-1.34h2.01V108.605z M1104.812,108.94c-2.461,0.67-7.486,2.345-15.076,5.025h3.016
		C1094.091,114.191,1098.11,112.516,1104.812,108.94z M1094.761,106.931h-2.01v-1.34h2.01V106.931z M1109.501,178.956h-1.676v-1.34
		h1.676V178.956z M1169.13,124.016h-1.34V121h1.34V124.016z"/>
</g>
</svg>
